<svg width="793" height="151" viewBox="0 0 793 151" fill="none" xmlns="http://www.w3.org/2000/svg">
<path d="M131.212 149.448L42.2621 38.3598V149.448H0V1.55212H71.4695L160.419 112.419V1.55212H202.681V149.448H131.212Z" fill="white"/>
<path d="M430.779 66.0764L431 97.1189C431 115.449 427.829 128.975 421.486 137.696C415.29 146.418 403.12 150.778 384.976 150.778L361.522 151L334.749 150.778L311.515 150.557C294.699 150.557 281.349 149.448 271.466 147.231C261.583 145.013 253.617 139.987 247.569 132.153C241.669 124.17 238.718 112.123 238.718 96.0103L238.276 77.3847C238.276 48.5595 241.816 28.6035 248.897 17.5169C255.977 6.43025 272.646 0.886933 298.903 0.886933L332.536 0.22173L344.927 0L375.019 0.665203C394.491 0.665203 408.578 4.06511 417.281 10.8649C426.132 17.5169 430.557 30.4513 430.557 49.6681V52.3289H386.525C386.525 48.7812 386.009 45.7509 384.976 43.2379C384.091 40.7249 382.395 39.0989 379.887 38.3598C377.527 37.4728 374.577 36.7337 371.036 36.1424L359.973 35.699L307.975 35.4772C297.354 35.4772 290.643 38.138 287.84 43.4596C285.037 48.6334 283.636 57.281 283.636 69.4024V83.1498C283.636 93.3495 284.963 100.888 287.619 105.767C290.274 110.645 294.33 113.527 299.788 114.414L311.737 115.523L322.358 115.744L362.407 115.966C370.078 115.966 376.052 114.71 380.33 112.197C384.608 109.684 386.746 104.954 386.746 98.0059L386.525 93.793H329.659V66.0764H430.779Z" fill="white"/>
<path d="M682.596 2.25532L681.957 2.46809V13.5106V24.5532H680.613H679.286L678.765 23.5957C678.48 23.0638 678.211 22.6383 678.177 22.6383C678.009 22.6383 675.809 23.7872 675.624 23.9787C675.506 24.0851 675.406 24.5532 675.406 25V25.8298H674.482C673.608 25.8298 673.558 25.8511 673.558 26.3617C673.558 26.8298 673.49 26.8936 672.97 26.8936H672.382V22.8511V18.8085H669.627H666.855L666.804 18.1064L666.754 17.4255L662.941 17.3617L659.11 17.3191V21.5745V25.8298H655.834H652.559V27C652.559 28.0213 652.525 28.1702 652.223 28.1702C651.903 28.1702 651.887 28.3191 651.887 30.617C651.887 32.9149 651.87 33.0638 651.551 33.0638C651.232 33.0638 651.215 32.8936 651.181 25.234L651.131 17.4255L649.669 17.3617L648.191 17.2979V16.4681C648.191 15.6596 648.208 15.6383 648.829 15.5745C649.417 15.5106 649.451 15.4681 649.501 14.7021L649.552 13.9149H643.504H637.439V14.4468C637.439 14.9149 637.507 14.9787 638.111 14.9787C638.766 14.9787 638.783 15 638.783 15.7234V16.4681H637.439H636.095V34.1277C636.095 45.6383 636.045 51.7872 635.927 51.7872C635.827 51.7872 635.743 48.5106 635.726 42.6809L635.675 33.5957L634.634 33.5319C633.592 33.4681 633.576 33.4681 633.576 32.8511V32.2128H630.636H627.696V28.7447C627.696 25.5319 627.662 25.234 627.36 24.8723C627.108 24.5745 627.024 24.2128 627.024 23.3404V22.2128H624.924H622.824V22.8511C622.824 23.4468 622.79 23.4894 622.152 23.4894H621.48V34.766V46.0426H620.556H619.632V42.7447V39.4468H619.212C618.809 39.4468 618.792 39.4043 618.792 37.8936C618.792 36.383 618.775 36.3191 618.154 35.5532L617.516 34.766H614.576H611.636L611.098 35.4681C610.577 36.1489 610.561 36.234 610.561 37.9149V39.6596H609.469H608.377V41.2553V42.8511H607.453H606.529V40.5106V38.1702H604.681H602.833V42.2128V46.2553H602.161H601.489V42.3191V38.383H600.985H600.481V32.9362C600.481 27.6809 600.464 27.4894 600.145 27.383C599.826 27.2766 599.809 27.0851 599.809 22.4043C599.809 19.4255 599.742 17.5319 599.641 17.5319C599.557 17.5319 599.473 16.7447 599.44 15.766L599.389 14.0213L598.348 13.9574L597.306 13.8936L597.256 12.1489L597.205 10.4043L594.837 10.3404C592.619 10.2979 592.417 10.3191 591.527 10.8298C590.956 11.1277 590.25 11.3617 589.814 11.3617H589.058V13.383V15.4043H588.554H588.05V21.2553V27.0851L586.756 27.1489L585.446 27.2128L585.395 39.383L585.362 51.5745H584.69H584.018V46.2553V40.9362H581.212C578.894 40.9362 578.004 40.8298 576.29 40.4043C575.131 40.1064 574.056 39.8723 573.905 39.8723C573.619 39.8723 573.602 40.2553 573.602 44.8723V49.8723H572.762H571.922V47.8511V45.8298H570.864C569.94 45.8298 569.739 45.766 569.403 45.2979C569.05 44.8085 568.882 44.766 567.689 44.766C566.631 44.766 566.379 44.8298 566.379 45.0851C566.379 45.3191 566.177 45.4043 565.623 45.4043H564.867V48.4894V51.5745H563.775H562.7L562.649 50.0213L562.599 48.4894H559.911H557.223L557.173 49.4894L557.122 50.5106H556.114H555.123V53.8085V57.1064H553.611H552.099V52.4043V47.7021L550.739 45.2766C549.999 43.9362 549.328 42.8511 549.277 42.8723C549.21 42.8723 548.605 43.7021 547.95 44.7234C546.774 46.5106 546.724 46.617 546.724 47.6809V48.8085H546.136H545.548V46.3617V43.9149H544.036H542.507L542.02 45.3191C541.533 46.6596 541.516 46.8511 541.516 49.7872V52.8511H540.256H538.996V46.2553V39.6596H538.576C538.223 39.6596 538.156 39.5532 538.156 39.0213V38.383H535.132H532.108V39.1277V39.8723H530.848H529.588V45.5106V51.1489H527.825H526.061V49.9787V48.8085H524.801H523.541V40.7234V32.6383H520.651C519.055 32.6383 516.939 32.7447 515.948 32.8936L514.133 33.1277V41.0851V49.0213H513.125H512.134L512.084 47.0638L512.033 45.1277L508.925 44L505.818 42.8723H498.476L491.118 42.8511V44.5532V46.2553H478.099H465.08V51.5745V56.8936H463.148H461.216V55.8298V54.766H459.788H458.36V55.7234V56.6809H456.68H455V59.3404V62H624H793V56.1915C793 53.0213 792.95 47.8936 792.882 44.8085L792.782 39.2128L791.421 39.2766C790.077 39.3404 790.06 39.3404 790.01 39.9149C789.959 40.4894 789.909 40.5106 789.035 40.5106H788.128V39.6596V38.8085H784.684H781.241V40.1915V41.5745H780.065H778.889V42.7447V43.9149H777.965H777.041V48.4894V53.0638H774.017H770.993V49.766V46.4681H769.985H768.977V45.4043C768.977 44.3617 768.96 44.3404 768.473 44.3404H767.986L767.936 42.2553L767.885 40.1915L767.432 40.1277L766.961 40.0638V35.0638V30.0851L764.307 28.4043L761.653 26.7234L759.435 29.0638L757.218 31.4043V35.7447V40.0851H755.118H753.018V31.7872C753.018 24.8723 752.984 23.4894 752.783 23.4894C752.665 23.4894 750.448 23.9149 747.877 24.4468L743.19 25.4043H733.665H724.123V24.234V23.0638H719.587H715.052V22.2128V21.3617H712.129H709.206L708.601 22.2128L707.996 23.0638H704.25H700.504L700.302 23.766C700.184 24.1489 700.1 25.4468 700.1 26.6383V28.8085H698.756H697.413L697.379 22.2553L697.329 15.7234L696.959 15.6596C696.623 15.5957 696.573 15.4681 696.573 14.6383C696.573 13.7872 696.539 13.7021 696.153 13.7021C695.749 13.7021 695.733 13.6383 695.733 12.5532C695.733 11.9149 695.665 11.3191 695.565 11.2553C695.481 11.1915 695.397 10.5957 695.397 9.95745C695.397 8.95745 695.363 8.80851 695.061 8.80851C694.758 8.80851 694.725 8.65958 694.725 7.6383C694.725 6.61702 694.691 6.46809 694.389 6.46809C694.086 6.46809 694.053 6.31915 694.053 5.19149C694.053 3.97873 694.036 3.91489 693.633 3.91489C693.246 3.91489 693.213 3.82979 693.213 2.95745V2L688.223 2.02128C685.468 2.04256 682.932 2.14894 682.596 2.25532Z" fill="white"/>
<rect width="338" height="89" transform="translate(455 62)" fill="white"/>
<path d="M512.774 96.2028L530.486 79.9264H548.521L523.916 101.326L551.226 123.179H532.032L512.774 106.708H506.075V123.179H493V79.9264H506.075V96.2028H512.774Z" fill="#C3002F"/>
<path d="M580.828 123.827L570.072 123.438C564.919 123.438 561.398 122.12 559.509 119.483C557.662 116.846 556.739 112.739 556.739 107.162C556.739 102.061 557.727 98.3428 559.702 96.0083C561.677 93.6306 565.112 92.4418 570.008 92.4418L580.571 92.2472C583.748 92.2472 586.389 92.4201 588.493 92.766C590.597 93.1118 592.4 93.9116 593.903 95.1653C595.406 96.419 596.394 97.9753 596.866 99.8342C597.381 101.693 597.639 103.811 597.639 106.189C597.639 106.708 597.618 107.292 597.575 107.94C597.575 108.589 597.575 109.323 597.575 110.145H568.075C568.075 112.523 568.505 114.209 569.363 115.203C570.222 116.154 571.811 116.629 574.13 116.629L580.442 116.759C581.859 116.759 583.04 116.673 583.984 116.5C584.929 116.327 585.552 116.024 585.852 115.592C586.196 115.16 586.41 114.381 586.496 113.257H597.575C597.575 117.797 596.115 120.693 593.195 121.947C590.318 123.201 586.196 123.827 580.828 123.827ZM575.547 98.9912C573.185 98.9912 571.339 99.2506 570.008 99.7694C568.676 100.245 568.011 101.477 568.011 103.466L568.075 104.309H586.561C586.561 102.104 586.024 100.677 584.95 100.029C583.877 99.3371 582.138 98.9912 579.733 98.9912H575.547Z" fill="#C3002F"/>
<path d="M617.215 99.1209C618.16 96.3542 619.705 94.5168 621.852 93.609C623.999 92.7011 626.769 92.2472 630.161 92.2472C636.258 92.2472 640.574 93.2631 643.107 95.295C645.684 97.2836 646.972 101.282 646.972 107.292V123.179H635.765V107.292C635.765 104.611 635.206 102.882 634.09 102.104C633.017 101.326 630.998 100.937 628.036 100.937H626.747C623.441 100.937 621.015 101.434 619.469 102.428C617.966 103.379 617.215 105.541 617.215 108.913V123.179H606.072V92.8957H617.215V99.1209Z" fill="#C3002F"/>
<path d="M667.277 136.926L663.09 136.667V129.015L665.538 129.08C667.642 129.08 669.08 128.669 669.853 127.848C670.626 127.07 671.485 125.513 672.429 123.179H667.856L654.073 92.8957H666.439L675.263 115.203L684.989 92.8957H697.356L679.708 130.701C678.42 133.425 676.895 135.132 675.135 135.824C673.417 136.559 670.798 136.926 667.277 136.926Z" fill="#C3002F"/>
<path d="M717.85 92.5066L729.508 92.2472C734.145 92.2472 737.709 92.9389 740.2 94.3223C742.733 95.7057 744 98.5157 744 102.752V123.179H732.793V118.251C731.934 120.672 730.367 122.206 728.091 122.855C725.858 123.503 722.96 123.827 719.396 123.827H717.335C712.525 123.827 708.983 123.222 706.707 122.012C704.474 120.801 703.358 117.991 703.358 113.582C703.358 110.383 704.217 107.983 705.934 106.384C707.695 104.741 710.164 103.92 713.341 103.92C715.016 103.79 716.712 103.725 718.43 103.725H723.454C725.729 103.725 727.597 103.92 729.057 104.309C730.56 104.698 731.805 105.584 732.793 106.967V103.66C732.793 101.844 732.406 100.634 731.633 100.029C730.861 99.3803 729.551 99.0561 727.705 99.0561L722.552 98.9264L718.88 99.0561C717.807 99.0561 717.013 99.2074 716.497 99.51C715.982 99.8126 715.724 100.461 715.724 101.455H704.646C704.646 97.9969 705.87 95.6408 708.317 94.3871C710.808 93.1334 713.985 92.5066 717.85 92.5066ZM723.003 116.694C725.45 116.694 727.447 116.586 728.993 116.37C730.581 116.111 731.612 115.743 732.084 115.268C732.557 114.792 732.793 114.057 732.793 113.063C732.793 111.852 732.299 111.053 731.311 110.664C730.367 110.231 729.207 110.015 727.833 110.015L721.457 109.885C719.482 109.885 717.807 110.08 716.433 110.469C715.059 110.815 714.372 111.723 714.372 113.193C714.372 114.619 714.909 115.57 715.982 116.046C717.056 116.478 718.451 116.694 720.169 116.694H723.003Z" fill="#C3002F"/>
</svg>
