<svg width="841" height="151" viewBox="0 0 841 151" fill="none" xmlns="http://www.w3.org/2000/svg">
<path d="M714.768 5.25516L714.039 5.46767V16.4971V27.5265H712.505H710.991L710.396 26.5702C710.07 26.0389 709.764 25.6139 709.725 25.6139C709.534 25.6139 707.022 26.7615 706.811 26.9527C706.677 27.059 706.562 27.5265 706.562 27.9728V28.8016H705.507C704.51 28.8016 704.452 28.8229 704.452 29.3329C704.452 29.8004 704.376 29.8642 703.781 29.8642H703.11V25.8264V21.7887H699.966H696.802L696.745 21.0874L696.687 20.4073L692.335 20.3436L687.963 20.3011V24.5513V28.8016H684.224H680.485V29.9704C680.485 30.9905 680.447 31.1393 680.102 31.1393C679.737 31.1393 679.718 31.288 679.718 33.5832C679.718 35.8783 679.699 36.0271 679.335 36.0271C678.97 36.0271 678.951 35.857 678.913 28.2066L678.855 20.4073L677.187 20.3436L675.5 20.2798V19.451C675.5 18.6435 675.519 18.6222 676.228 18.5585C676.9 18.4947 676.938 18.4522 676.995 17.6872L677.053 16.9009H670.15H663.229V17.4322C663.229 17.8997 663.305 17.9634 663.996 17.9634C664.743 17.9634 664.762 17.9847 664.762 18.7072V19.451H663.229H661.695V37.0896C661.695 48.5866 661.637 54.7282 661.503 54.7282C661.388 54.7282 661.292 51.4555 661.273 45.6326L661.215 36.5583L660.027 36.4946C658.838 36.4308 658.819 36.4308 658.819 35.8145V35.177H655.463H652.108V31.713C652.108 28.5041 652.069 28.2066 651.724 27.8453C651.437 27.5478 651.341 27.1865 651.341 26.3152V25.1889H648.944H646.547V25.8264C646.547 26.4215 646.509 26.464 645.78 26.464H645.013V37.7272V48.9904H643.959H642.904V45.6964V42.4024H642.425C641.965 42.4024 641.946 42.3599 641.946 40.8511C641.946 39.3423 641.926 39.2785 641.217 38.5135L640.488 37.7272H637.133H633.777L633.164 38.4285C632.57 39.1085 632.55 39.1935 632.55 40.8724V42.615H631.304H630.058V44.2088V45.8027H629.003H627.949V43.465V41.1274H625.839H623.73V45.1651V49.2029H622.963H622.196V45.2714V41.3399H621.621H621.046V35.8995C621.046 30.6505 621.027 30.4592 620.663 30.353C620.298 30.2467 620.279 30.0554 620.279 25.3801C620.279 22.405 620.202 20.5136 620.087 20.5136C619.991 20.5136 619.896 19.7273 619.857 18.7497L619.8 17.0071L618.611 16.9434L617.422 16.8796L617.365 15.137L617.307 13.3944L614.604 13.3307C612.073 13.2882 611.843 13.3094 610.826 13.8194C610.174 14.117 609.369 14.3507 608.871 14.3507H608.008V16.3696V18.3885H607.433H606.857V24.2326V30.0554L605.381 30.1192L603.885 30.1829L603.828 42.3387L603.789 54.5157H603.023H602.256V49.2029V43.89H599.054C596.408 43.89 595.391 43.7838 593.436 43.3588C592.113 43.0612 590.885 42.8275 590.713 42.8275C590.387 42.8275 590.368 43.21 590.368 47.8215V52.8156H589.409H588.45V50.7967V48.7778H587.242C586.188 48.7778 585.958 48.7141 585.574 48.2466C585.172 47.7578 584.98 47.7153 583.619 47.7153C582.411 47.7153 582.123 47.779 582.123 48.034C582.123 48.2678 581.893 48.3528 581.26 48.3528H580.397V51.4343V54.5157H579.151H577.924L577.866 52.9643L577.809 51.4343H574.741H571.673L571.616 52.4331L571.558 53.4531H570.408H569.276V56.7471V60.041H567.551H565.825V55.3445V50.648L564.272 48.2253C563.428 46.8865 562.661 45.8027 562.604 45.8239C562.527 45.8239 561.837 46.6527 561.089 47.6728C559.747 49.4579 559.69 49.5641 559.69 50.6267V51.753H559.018H558.347V49.3091V46.8652H556.622H554.877L554.321 48.2678C553.765 49.6066 553.746 49.7979 553.746 52.7306V55.7908H552.308H550.87V49.2029V42.615H550.39C549.988 42.615 549.911 42.5087 549.911 41.9774V41.3399H546.46H543.008V42.0837V42.8275H541.57H540.132V48.4591V54.0907H538.119H536.106V52.9218V51.753H534.668H533.23V43.6775V35.602H529.932C528.11 35.602 525.694 35.7083 524.563 35.857L522.492 36.0908V44.0388V51.9655H521.342H520.21L520.153 50.0104L520.095 48.0765L516.548 46.9502L513.001 45.8239H504.622L496.224 45.8027V47.5028V49.2029H481.364H466.504V54.5157V59.8285H464.299H462.094V58.766V57.7034H460.465H458.835V58.6597V59.616H456.917H455V62.2724V64.9288H647.889H840.779V59.1272C840.779 55.9608 840.721 50.8392 840.645 47.7578L840.53 42.1687L838.977 42.2324C837.443 42.2962 837.423 42.2962 837.366 42.87C837.308 43.4438 837.251 43.465 836.254 43.465H835.218V42.615V41.7649H831.288H827.357V43.1462V44.5276H826.015H824.673V45.6964V46.8652H823.618H822.564V51.4343V56.0033H819.112H815.661V52.7093V49.4154H814.511H813.36V48.3528C813.36 47.3115 813.341 47.2902 812.785 47.2902H812.229L812.171 45.2076L812.114 43.1462L811.596 43.0825L811.059 43.0187V38.0247V33.0519L808.03 31.373L805 29.6942L802.469 32.0318L799.938 34.3695V38.7047V43.04H797.542H795.145V34.752C795.145 27.8453 795.107 26.464 794.877 26.464C794.742 26.464 792.211 26.889 789.278 27.4203L783.928 28.3766H773.057H762.166V27.2078V26.0389H756.989H751.812V25.1889V24.3388H748.476H745.139L744.449 25.1889L743.759 26.0389H739.483H735.207L734.977 26.7402C734.843 27.1228 734.747 28.4191 734.747 29.6092V31.7768H733.213H731.679L731.641 25.2314L731.584 18.7072L731.162 18.6435C730.778 18.5797 730.721 18.4522 730.721 17.6234C730.721 16.7734 730.682 16.6884 730.241 16.6884C729.781 16.6884 729.762 16.6246 729.762 15.5408C729.762 14.9033 729.685 14.3082 729.57 14.2445C729.474 14.1807 729.379 13.5857 729.379 12.9481C729.379 11.9493 729.34 11.8006 728.995 11.8006C728.65 11.8006 728.612 11.6518 728.612 10.6317C728.612 9.61168 728.573 9.46292 728.228 9.46292C727.883 9.46292 727.845 9.31416 727.845 8.18784C727.845 6.97652 727.825 6.91276 727.365 6.91276C726.924 6.91276 726.886 6.82776 726.886 5.95645V5.00015L721.191 5.0214C718.047 5.04265 715.151 5.1489 714.768 5.25516Z" fill="#C3002F"/>
<rect width="385.779" height="88.9264" transform="translate(455.221 61.3247)" fill="#C3002F"/>
<path d="M584.774 99.2028L602.486 82.9264H620.521L595.916 104.326L623.226 126.179H604.032L584.774 109.708H578.075V126.179H565V82.9264H578.075V99.2028H584.774Z" fill="white"/>
<path d="M652.828 126.827L642.072 126.438C636.919 126.438 633.398 125.12 631.509 122.483C629.662 119.846 628.739 115.739 628.739 110.162C628.739 105.061 629.727 101.343 631.702 99.0083C633.677 96.6306 637.112 95.4418 642.008 95.4418L652.571 95.2472C655.748 95.2472 658.389 95.4201 660.493 95.766C662.597 96.1118 664.4 96.9116 665.903 98.1653C667.406 99.419 668.394 100.975 668.866 102.834C669.381 104.693 669.639 106.811 669.639 109.189C669.639 109.708 669.618 110.292 669.575 110.94C669.575 111.589 669.575 112.323 669.575 113.145H640.075C640.075 115.523 640.505 117.209 641.363 118.203C642.222 119.154 643.811 119.629 646.13 119.629L652.442 119.759C653.859 119.759 655.04 119.673 655.984 119.5C656.929 119.327 657.552 119.024 657.852 118.592C658.196 118.16 658.41 117.381 658.496 116.257H669.575C669.575 120.797 668.115 123.693 665.195 124.947C662.318 126.201 658.196 126.827 652.828 126.827ZM647.547 101.991C645.185 101.991 643.339 102.251 642.008 102.769C640.676 103.245 640.011 104.477 640.011 106.466L640.075 107.309H658.561C658.561 105.104 658.024 103.677 656.95 103.029C655.877 102.337 654.138 101.991 651.733 101.991H647.547Z" fill="white"/>
<path d="M689.215 102.121C690.16 99.3542 691.705 97.5168 693.852 96.609C695.999 95.7011 698.769 95.2472 702.161 95.2472C708.258 95.2472 712.574 96.2631 715.107 98.295C717.684 100.284 718.972 104.282 718.972 110.292V126.179H707.765V110.292C707.765 107.611 707.206 105.882 706.09 105.104C705.017 104.326 702.998 103.937 700.036 103.937H698.747C695.441 103.937 693.015 104.434 691.469 105.428C689.966 106.379 689.215 108.541 689.215 111.913V126.179H678.072V95.8957H689.215V102.121Z" fill="white"/>
<path d="M739.277 139.926L735.09 139.667V132.015L737.538 132.08C739.642 132.08 741.08 131.669 741.853 130.848C742.626 130.07 743.485 128.513 744.429 126.179H739.856L726.073 95.8957H738.439L747.263 118.203L756.989 95.8957H769.356L751.708 133.701C750.42 136.425 748.895 138.132 747.135 138.824C745.417 139.559 742.798 139.926 739.277 139.926Z" fill="white"/>
<path d="M789.85 95.5066L801.508 95.2472C806.145 95.2472 809.709 95.9389 812.2 97.3223C814.733 98.7057 816 101.516 816 105.752V126.179H804.793V121.251C803.934 123.672 802.367 125.206 800.091 125.855C797.858 126.503 794.96 126.827 791.396 126.827H789.335C784.525 126.827 780.983 126.222 778.707 125.012C776.474 123.801 775.358 120.991 775.358 116.582C775.358 113.383 776.217 110.983 777.934 109.384C779.695 107.741 782.164 106.92 785.341 106.92C787.016 106.79 788.712 106.725 790.43 106.725H795.454C797.729 106.725 799.597 106.92 801.057 107.309C802.56 107.698 803.805 108.584 804.793 109.967V106.66C804.793 104.844 804.406 103.634 803.633 103.029C802.861 102.38 801.551 102.056 799.705 102.056L794.552 101.926L790.88 102.056C789.807 102.056 789.013 102.207 788.497 102.51C787.982 102.813 787.724 103.461 787.724 104.455H776.646C776.646 100.997 777.87 98.6408 780.317 97.3871C782.808 96.1334 785.985 95.5066 789.85 95.5066ZM795.003 119.694C797.45 119.694 799.447 119.586 800.993 119.37C802.581 119.111 803.612 118.743 804.084 118.268C804.557 117.792 804.793 117.057 804.793 116.063C804.793 114.852 804.299 114.053 803.311 113.664C802.367 113.231 801.207 113.015 799.833 113.015L793.457 112.885C791.482 112.885 789.807 113.08 788.433 113.469C787.059 113.815 786.372 114.723 786.372 116.193C786.372 117.619 786.909 118.57 787.982 119.046C789.056 119.478 790.451 119.694 792.169 119.694H795.003Z" fill="white"/>
<path d="M755.497 65.0657C755.794 65.0657 756.08 65.0657 756.355 65.0657C756.652 65.0657 756.959 65.0985 757.277 65.1642V68.6119L756.609 68.5463C755.868 68.5463 755.349 68.7542 755.052 69.1701C754.756 69.5642 754.608 70.1552 754.608 70.9433H756.387V77.0179H750V70.9433C750 68.7542 750.392 67.2328 751.176 66.3791C751.981 65.5035 753.421 65.0657 755.497 65.0657Z" fill="white"/>
<path d="M761.133 87V81.4179C761.133 79.4478 761.483 78.003 762.182 77.0836C762.902 76.1423 764.194 75.5403 766.058 75.2776L777.18 74.3582C778.176 74.2488 778.886 74.0517 779.309 73.7672C779.754 73.4826 779.977 72.9353 779.977 72.1254L779.945 71.6657C779.945 70.8119 779.744 70.2428 779.341 69.9582C778.96 69.6517 778.186 69.4985 777.021 69.4985H773.717L769.967 69.5642C769.374 69.5642 768.855 69.6408 768.41 69.794C767.986 69.9254 767.668 70.1443 767.457 70.4507C767.245 70.7572 767.107 71.0527 767.044 71.3373C767.001 71.6219 766.98 71.9502 766.98 72.3224V73.0776H761.133L761.101 71.5343C761.101 68.6667 761.663 66.8826 762.786 66.1821C763.908 65.4816 765.953 65.1313 768.918 65.1313L776.036 65L779.595 65.0657C781.968 65.0657 783.62 65.5473 784.552 66.5104C785.506 67.4517 785.982 69.1483 785.982 71.6C785.982 74.3801 785.527 76.3065 784.616 77.3791C783.705 78.4299 781.925 78.9552 779.277 78.9552L774.034 79.3164L769.586 79.6448C768.738 79.6448 768.082 79.7542 767.616 79.9731C767.171 80.192 766.948 80.7393 766.948 81.6149V82.5672H785.982V87H761.133Z" fill="white"/>
<path d="M817 78.2V82.6328H813.568V87H807.658V82.6328H790.784V74.9821L806.101 65.0985H813.568V78.2H817ZM795.201 78.2H807.658V70.0239L795.201 78.2Z" fill="white"/>
<path d="M131.212 149.448L42.2621 38.3598V149.448H0V1.55212H71.4695L160.419 112.419V1.55212H202.681V149.448H131.212Z" fill="#C3002F"/>
<path d="M430.779 66.0764L431 97.1189C431 115.449 427.829 128.975 421.486 137.696C415.29 146.418 403.12 150.778 384.976 150.778L361.522 151L334.749 150.778L311.515 150.557C294.699 150.557 281.349 149.448 271.466 147.231C261.583 145.013 253.617 139.987 247.569 132.153C241.669 124.17 238.718 112.123 238.718 96.0103L238.276 77.3847C238.276 48.5595 241.816 28.6035 248.897 17.5169C255.977 6.43025 272.646 0.886933 298.903 0.886933L332.536 0.22173L344.927 0L375.019 0.665203C394.491 0.665203 408.578 4.06511 417.281 10.8649C426.132 17.5169 430.557 30.4513 430.557 49.6681V52.3289H386.525C386.525 48.7812 386.009 45.7509 384.976 43.2379C384.091 40.7249 382.395 39.0989 379.887 38.3598C377.527 37.4728 374.577 36.7337 371.036 36.1424L359.973 35.699L307.975 35.4772C297.354 35.4772 290.643 38.138 287.84 43.4596C285.037 48.6334 283.636 57.281 283.636 69.4024V83.1498C283.636 93.3495 284.963 100.888 287.619 105.767C290.274 110.645 294.33 113.527 299.788 114.414L311.737 115.523L322.358 115.744L362.407 115.966C370.078 115.966 376.052 114.71 380.33 112.197C384.608 109.684 386.746 104.954 386.746 98.0059L386.525 93.793H329.659V66.0764H430.779Z" fill="#C3002F"/>
</svg>
