<svg xmlns="http://www.w3.org/2000/svg" xmlns:xlink="http://www.w3.org/1999/xlink" width="864" zoomAndPan="magnify" viewBox="0 0 648 356.999992" height="476" preserveAspectRatio="xMidYMid meet" version="1.0"><defs><g/><clipPath id="50a2f14d3a"><path d="M 0 18.027344 L 648 18.027344 L 648 338.320312 L 0 338.320312 Z M 0 18.027344 " clip-rule="nonzero"/></clipPath><clipPath id="064e43d28b"><path d="M 38.25 18.027344 L 609.75 18.027344 C 619.894531 18.027344 629.625 22.054688 636.796875 29.230469 C 643.96875 36.402344 648 46.132812 648 56.277344 L 648 300.070312 C 648 310.214844 643.96875 319.945312 636.796875 327.117188 C 629.625 334.292969 619.894531 338.320312 609.75 338.320312 L 38.25 338.320312 C 28.105469 338.320312 18.375 334.292969 11.203125 327.117188 C 4.03125 319.945312 0 310.214844 0 300.070312 L 0 56.277344 C 0 46.132812 4.03125 36.402344 11.203125 29.230469 C 18.375 22.054688 28.105469 18.027344 38.25 18.027344 Z M 38.25 18.027344 " clip-rule="nonzero"/></clipPath><clipPath id="28be1a7293"><path d="M 0 18.027344 L 648 18.027344 L 648 338.632812 L 0 338.632812 Z M 0 18.027344 " clip-rule="nonzero"/></clipPath><clipPath id="f187fa76cd"><path d="M 38.25 18.027344 L 609.746094 18.027344 C 619.890625 18.027344 629.621094 22.054688 636.792969 29.230469 C 643.964844 36.402344 647.996094 46.132812 647.996094 56.277344 L 647.996094 300.070312 C 647.996094 310.214844 643.964844 319.945312 636.792969 327.117188 C 629.621094 334.289062 619.890625 338.320312 609.746094 338.320312 L 38.25 338.320312 C 28.105469 338.320312 18.375 334.289062 11.203125 327.117188 C 4.03125 319.945312 0 310.214844 0 300.070312 L 0 56.277344 C 0 46.132812 4.03125 36.402344 11.203125 29.230469 C 18.375 22.054688 28.105469 18.027344 38.25 18.027344 Z M 38.25 18.027344 " clip-rule="nonzero"/></clipPath><clipPath id="b8fcab93b2"><path d="M 453.714844 150.15625 L 531.796875 150.15625 L 531.796875 228.238281 L 453.714844 228.238281 Z M 453.714844 150.15625 " clip-rule="nonzero"/></clipPath></defs><g clip-path="url(#50a2f14d3a)"><g clip-path="url(#064e43d28b)"><path fill="#10263e" d="M 0 18.027344 L 648.097656 18.027344 L 648.097656 338.320312 L 0 338.320312 Z M 0 18.027344 " fill-opacity="1" fill-rule="nonzero"/></g></g><g clip-path="url(#28be1a7293)"><g clip-path="url(#f187fa76cd)"><path stroke-linecap="butt" transform="matrix(0.690965, 0, 0, 0.690965, 0.00000771429, 18.026124)" fill="none" stroke-linejoin="miter" d="M 55.357348 0.00176491 L 882.455766 0.00176491 C 897.137451 0.00176491 911.219884 5.830343 921.599389 16.215501 C 931.978894 26.595006 937.813125 40.677439 937.813125 55.359124 L 937.813125 408.188795 C 937.813125 422.87048 931.978894 436.952913 921.599389 447.332418 C 911.219884 457.711923 897.137451 463.546154 882.455766 463.546154 L 55.357348 463.546154 C 40.675663 463.546154 26.59323 457.711923 16.213725 447.332418 C 5.83422 436.952913 -0.0000111645 422.87048 -0.0000111645 408.188795 L -0.0000111645 55.359124 C -0.0000111645 40.677439 5.83422 26.595006 16.213725 16.215501 C 26.59323 5.830343 40.675663 0.00176491 55.357348 0.00176491 Z M 55.357348 0.00176491 " stroke="#18d26e" stroke-width="21.708767" stroke-opacity="1" stroke-miterlimit="4"/></g></g><g fill="#ffffff" fill-opacity="1"><g transform="translate(87.702892, 235.869499)"><g><path d="M 65.871094 -95.644531 C 52.507812 -95.644531 40.554688 -90.25 31.648438 -81.578125 L 31.648438 -93.765625 L 17.113281 -93.765625 L 17.113281 56.261719 L 31.648438 56.261719 L 31.648438 -12.191406 C 40.554688 -3.515625 52.507812 1.875 65.871094 1.875 C 92.828125 1.875 114.628906 -19.925781 114.628906 -46.882812 C 114.628906 -73.84375 92.828125 -95.644531 65.871094 -95.644531 Z M 65.871094 -12.660156 C 46.882812 -12.660156 31.648438 -27.894531 31.648438 -46.882812 C 31.648438 -65.871094 46.882812 -81.109375 65.871094 -81.109375 C 84.859375 -81.109375 100.097656 -65.871094 100.097656 -46.882812 C 100.097656 -27.894531 84.859375 -12.660156 65.871094 -12.660156 Z M 65.871094 -12.660156 "/></g></g></g><g fill="#ffffff" fill-opacity="1"><g transform="translate(212.882267, 235.869499)"><g><path d="M 117.679688 -12.191406 C 112.519531 -12.191406 108.066406 -15.707031 108.066406 -24.378906 L 108.066406 -93.765625 L 93.53125 -93.765625 L 93.53125 -81.578125 C 84.859375 -90.25 72.667969 -95.644531 59.308594 -95.644531 C 32.351562 -95.644531 10.550781 -73.84375 10.550781 -46.882812 C 10.550781 -19.925781 32.351562 1.875 59.308594 1.875 C 73.371094 1.875 86.03125 -4.6875 94.941406 -14.300781 C 97.988281 -4.6875 105.488281 1.875 116.507812 1.875 C 119.085938 1.875 121.664062 1.171875 123.539062 0 L 123.539062 -12.191406 Z M 59.308594 -12.660156 C 40.320312 -12.660156 25.082031 -27.894531 25.082031 -46.882812 C 25.082031 -65.871094 40.320312 -81.109375 59.308594 -81.109375 C 78.0625 -81.109375 93.53125 -65.871094 93.53125 -46.882812 C 93.53125 -27.894531 78.0625 -12.660156 59.308594 -12.660156 Z M 59.308594 -12.660156 "/></g></g></g><g fill="#ffffff" fill-opacity="1"><g transform="translate(339.23376, 235.869499)"><g><path d="M 77.359375 -93.765625 L 48.289062 -16.878906 L 18.285156 -93.765625 L 2.109375 -93.765625 L 40.554688 0.703125 L 18.050781 56.261719 L 33.523438 56.261719 L 53.449219 7.03125 L 93.765625 -93.765625 Z M 77.359375 -93.765625 "/></g></g></g><g fill="#18d26e" fill-opacity="1"><g transform="translate(435.117984, 235.869499)"><g><path d="M 93.53125 -172.53125 L 93.53125 -81.578125 C 84.625 -90.25 72.667969 -95.644531 59.308594 -95.644531 C 32.351562 -95.644531 10.550781 -73.84375 10.550781 -46.882812 C 10.550781 -19.925781 32.351562 1.875 59.308594 1.875 C 72.667969 1.875 84.625 -3.515625 93.53125 -12.191406 L 93.53125 0 L 108.066406 0 L 108.066406 -172.53125 Z M 59.308594 -12.660156 C 40.320312 -12.660156 25.082031 -27.894531 25.082031 -46.882812 C 25.082031 -65.871094 40.320312 -81.109375 59.308594 -81.109375 C 78.0625 -81.109375 93.53125 -65.871094 93.53125 -46.882812 C 93.53125 -27.894531 78.0625 -12.660156 59.308594 -12.660156 Z M 59.308594 -12.660156 "/></g></g></g><path fill="#10263e" d="M 514.988281 177.109375 L 489.210938 206.242188 C 488.550781 206.988281 487.613281 207.433594 486.617188 207.476562 C 486.566406 207.480469 486.515625 207.480469 486.464844 207.480469 C 485.523438 207.480469 484.613281 207.117188 483.929688 206.464844 L 470.832031 193.941406 C 469.367188 192.539062 469.3125 190.21875 470.714844 188.753906 C 472.113281 187.289062 474.433594 187.238281 475.898438 188.636719 L 486.242188 198.527344 L 509.496094 172.25 C 510.839844 170.730469 513.15625 170.589844 514.675781 171.933594 C 516.191406 173.273438 516.332031 175.59375 514.988281 177.109375 " fill-opacity="1" fill-rule="nonzero"/><g clip-path="url(#b8fcab93b2)"><path fill="#18d26e" d="M 514.988281 177.109375 L 489.210938 206.242188 C 488.550781 206.988281 487.613281 207.433594 486.617188 207.476562 C 486.566406 207.480469 486.515625 207.480469 486.464844 207.480469 C 485.523438 207.480469 484.613281 207.117188 483.929688 206.464844 L 470.832031 193.941406 C 469.367188 192.539062 469.3125 190.21875 470.714844 188.753906 C 472.113281 187.289062 474.433594 187.238281 475.898438 188.636719 L 486.242188 198.527344 L 509.496094 172.25 C 510.839844 170.730469 513.15625 170.589844 514.675781 171.933594 C 516.191406 173.273438 516.332031 175.59375 514.988281 177.109375 Z M 528.820312 174.03125 C 526.851562 169.375 524.03125 165.195312 520.445312 161.605469 C 516.855469 158.015625 512.675781 155.199219 508.019531 153.230469 C 503.199219 151.191406 498.078125 150.15625 492.804688 150.15625 C 487.527344 150.15625 482.410156 151.191406 477.585938 153.230469 C 472.933594 155.199219 468.753906 158.015625 465.164062 161.605469 C 461.574219 165.195312 458.757812 169.375 456.789062 174.03125 C 454.75 178.851562 453.714844 183.96875 453.714844 189.246094 C 453.714844 194.519531 454.75 199.640625 456.789062 204.460938 C 458.757812 209.117188 461.574219 213.296875 465.164062 216.886719 C 468.753906 220.472656 472.933594 223.292969 477.585938 225.261719 C 482.410156 227.300781 487.527344 228.332031 492.804688 228.332031 C 498.078125 228.332031 503.199219 227.300781 508.019531 225.261719 C 512.675781 223.292969 516.855469 220.472656 520.445312 216.886719 C 524.03125 213.296875 526.851562 209.117188 528.820312 204.460938 C 530.859375 199.640625 531.890625 194.519531 531.890625 189.246094 C 531.890625 183.96875 530.859375 178.851562 528.820312 174.03125 " fill-opacity="1" fill-rule="nonzero"/></g><path fill="#10263e" d="M 514.988281 177.109375 L 489.210938 206.242188 C 488.550781 206.988281 487.613281 207.433594 486.617188 207.476562 C 486.566406 207.480469 486.515625 207.480469 486.464844 207.480469 C 485.523438 207.480469 484.613281 207.117188 483.929688 206.464844 L 470.832031 193.941406 C 469.367188 192.539062 469.3125 190.21875 470.714844 188.753906 C 472.113281 187.289062 474.433594 187.238281 475.898438 188.636719 L 486.242188 198.527344 L 509.496094 172.25 C 510.839844 170.730469 513.15625 170.589844 514.675781 171.933594 C 516.191406 173.273438 516.332031 175.59375 514.988281 177.109375 " fill-opacity="1" fill-rule="nonzero"/></svg>