<svg width="179" height="179" viewBox="0 0 179 179" fill="none" xmlns="http://www.w3.org/2000/svg">
<path d="M179 136.899H0V136.989H179V136.899Z" fill="#EBEBEB"/>
<path d="M161.064 140.307H128.521V140.397H161.064V140.307Z" fill="#EBEBEB"/>
<path d="M118.577 139.337H109.666V139.427H118.577V139.337Z" fill="#EBEBEB"/>
<path d="M138.944 143.633H125.129V143.723H138.944V143.633Z" fill="#EBEBEB"/>
<path d="M26.8864 143.032H18.7812V143.121H26.8864V143.032Z" fill="#EBEBEB"/>
<path d="M39.6989 143.032H30.0723V143.121H39.6989V143.032Z" fill="#EBEBEB"/>
<path d="M80.6047 141.521H63.8359V141.61H80.6047V141.521Z" fill="#EBEBEB"/>
<path d="M84.8465 120.932H15.7239C15.1817 120.932 14.6618 120.717 14.2784 120.334C13.8951 119.95 13.6797 119.43 13.6797 118.888V21.7162C13.6844 21.1772 13.9019 20.6618 14.2847 20.2823C14.6676 19.9028 15.1848 19.6899 15.7239 19.6899H84.8465C85.3887 19.6899 85.9086 19.9053 86.292 20.2887C86.6753 20.672 86.8907 21.192 86.8907 21.7341V118.888C86.8907 119.43 86.6753 119.95 86.292 120.334C85.9086 120.717 85.3887 120.932 84.8465 120.932ZM15.7239 19.7615C15.2057 19.7625 14.7091 19.9687 14.3427 20.3351C13.9764 20.7015 13.7701 21.1981 13.7692 21.7162V118.888C13.7701 119.406 13.9764 119.903 14.3427 120.269C14.7091 120.636 15.2057 120.842 15.7239 120.843H84.8465C85.3646 120.842 85.8613 120.636 86.2276 120.269C86.594 119.903 86.8002 119.406 86.8012 118.888V21.7162C86.8002 21.1981 86.594 20.7015 86.2276 20.3351C85.8613 19.9687 85.3646 19.7625 84.8465 19.7615H15.7239Z" fill="#EBEBEB"/>
<path d="M162.285 120.932H93.1555C92.6136 120.931 92.0943 120.716 91.7111 120.333C91.328 119.949 91.1123 119.43 91.1113 118.888V21.7162C91.117 21.1775 91.3347 20.6627 91.7174 20.2834C92.1 19.9041 92.6167 19.6909 93.1555 19.6899H162.285C162.823 19.6918 163.339 19.9055 163.72 20.2848C164.101 20.6641 164.318 21.1784 164.322 21.7162V118.888C164.322 119.429 164.108 119.948 163.726 120.331C163.344 120.714 162.826 120.93 162.285 120.932ZM93.1555 19.7615C92.6374 19.7625 92.1408 19.9687 91.7744 20.3351C91.408 20.7015 91.2018 21.1981 91.2008 21.7162V118.888C91.2018 119.406 91.408 119.903 91.7744 120.269C92.1408 120.636 92.6374 120.842 93.1555 120.843H162.285C162.803 120.842 163.3 120.636 163.666 120.269C164.033 119.903 164.239 119.406 164.24 118.888V21.7162C164.239 21.1981 164.033 20.7015 163.666 20.3351C163.3 19.9687 162.803 19.7625 162.285 19.7615H93.1555Z" fill="#EBEBEB"/>
<path d="M127.941 54.6522H131.876L131.41 45.1866H127.941V54.6522Z" fill="#F5F5F5"/>
<path d="M152.283 55.7477L154.098 60.2442H152.283L141.156 55.7477H152.283Z" fill="#F5F5F5"/>
<path d="M154.097 55.7477V60.2442L142.971 55.7477H154.097Z" fill="#E6E6E6"/>
<path d="M109.558 55.7477L111.373 60.2442H109.558L98.4316 55.7477H109.558Z" fill="#F5F5F5"/>
<path d="M111.375 55.7477V60.2442L100.248 55.7477H111.375Z" fill="#E6E6E6"/>
<path d="M156.214 54.6809H150.164V55.9769H156.214V54.6809Z" fill="#E6E6E6"/>
<path d="M95.5209 55.9803L150.166 55.9803V54.6844L95.5209 54.6844V55.9803Z" fill="#F5F5F5"/>
<path d="M122.168 54.6522H130.61L131.651 43.1819H123.21L122.168 54.6522Z" fill="#E6E6E6"/>
<path d="M121.73 54.6522H130.172L131.214 43.1819H122.772L121.73 54.6522Z" fill="#F0F0F0"/>
<path d="M129.464 53.3813L130.416 44.4528H123.482L122.529 53.3813H129.464Z" fill="white"/>
<path d="M114.582 54.6522H120.374L119.691 40.7117H114.582V54.6522Z" fill="#E0E0E0"/>
<path d="M106.072 54.6522H118.506L120.045 37.7582H107.608L106.072 54.6522Z" fill="#F0F0F0"/>
<path d="M105.428 54.6522H117.861L119.4 37.7582H106.964L105.428 54.6522Z" fill="#F5F5F5"/>
<path d="M116.819 52.7799L118.226 39.627H108.009L106.602 52.7799H116.819Z" fill="#E0E0E0"/>
<path d="M142.727 54.6522H149.593L148.784 38.127H142.727V54.6522Z" fill="#EBEBEB"/>
<path d="M132.639 54.6523H147.381L149.203 34.6257H134.464L132.639 54.6523Z" fill="#F0F0F0"/>
<path d="M131.877 54.6523H146.616L148.438 34.6257H133.699L131.877 54.6523Z" fill="#FAFAFA"/>
<path d="M145.381 52.4362L147.045 36.8453H134.938L133.27 52.4362H145.381Z" fill="#F0F0F0"/>
<path d="M27.4086 113.414H78.9141L78.9141 31.1459H27.4086L27.4086 113.414Z" fill="#E6E6E6"/>
<path d="M25.2536 113.414H77.9082L77.9082 31.1459H25.2536L25.2536 113.414Z" fill="#F0F0F0"/>
<path d="M27.4086 117.424H78.9141V113.414H27.4086V117.424Z" fill="#E6E6E6"/>
<path d="M21.6559 117.424H74.3105V113.414H21.6559V117.424Z" fill="#F5F5F5"/>
<path d="M74.8867 110.396V34.1675H28.2715L28.2715 110.396H74.8867Z" fill="#FAFAFA"/>
<path d="M68.5029 110.396L60.5052 34.1675H47.5312L55.5325 110.396H68.5029Z" fill="white"/>
<path d="M52.7473 110.396L44.746 34.1675H39.6875L47.6888 110.396H52.7473Z" fill="white"/>
<path d="M28.6543 110.393L28.6543 34.1639H28.2712L28.2712 110.393H28.6543Z" fill="#E6E6E6"/>
<path d="M43.0167 112.072H42.4439C42.4439 110.894 42.4439 107.898 42.3867 101.038C42.2828 88.6049 42.0859 87.8459 42.0859 87.8459L43.4499 93.5739C44.3127 99.9428 43.1993 106.326 43.0167 112.072Z" fill="#E6E6E6"/>
<path d="M43.7395 93.6455C44.8565 91.3078 47.2336 90.624 49.6716 90.0441C50.6274 89.8149 47.1656 93.667 45.4615 96.4021C44.1441 98.5287 43.3135 99.1158 42.9555 101.235C42.7514 98.5931 42.7801 95.6611 43.7395 93.6455Z" fill="#E6E6E6"/>
<path d="M42.1685 94.9272C41.4525 93.5346 39.4083 91.7697 38.7102 91.7983C38.1804 91.8162 40.2532 94.8807 41.2664 96.5883C42.054 97.9129 42.48 98.3783 42.8487 99.5096C42.6697 98.2101 42.7879 96.1301 42.1685 94.9272Z" fill="#E6E6E6"/>
<path d="M43.7576 98.6325C44.6311 97.3294 46.8614 95.8151 47.5524 95.9189C48.0786 96.0012 45.6621 98.8079 44.4628 100.383C43.5284 101.611 43.0308 102.016 42.5547 103.104C42.8805 101.833 43.0022 99.7531 43.7576 98.6325Z" fill="#E6E6E6"/>
<path d="M42.2662 97.827C41.1492 95.4893 37.8198 93.753 35.3818 93.173C34.426 92.9439 38.8473 97.8521 40.5442 100.587C41.8616 102.714 42.6922 103.301 43.0502 105.42C43.2543 102.775 43.2256 99.8426 42.2662 97.827Z" fill="#E6E6E6"/>
<path d="M42.7419 88.2112C41.5677 85.5369 39.8028 82.7803 37.4471 81.7672C36.5199 81.377 39.5951 86.9331 40.7586 90.5167C41.6644 93.2984 42.8672 96.5669 43.0534 98.9154C43.6477 95.407 44.5785 92.4034 42.7419 88.2112Z" fill="#E6E6E6"/>
<path d="M42.5592 113.414C44.3134 113.414 45.7812 111.7 45.8635 109.505L46.1571 105.757H38.9648L39.2584 109.505C39.3586 111.696 40.8121 113.414 42.5592 113.414Z" fill="#E6E6E6"/>
<path d="M38.5003 108.188H46.6233L46.856 106.856H38.2676L38.5003 108.188Z" fill="#E6E6E6"/>
<path d="M38.5003 106.208H46.6233L46.856 104.876H38.2676L38.5003 106.208Z" fill="#E6E6E6"/>
<path d="M122.318 96.8532C122.302 96.7768 122.26 96.7083 122.199 96.6593C122.139 96.6103 122.063 96.584 121.985 96.5847H109.097C109.019 96.584 108.943 96.6103 108.882 96.6593C108.821 96.7083 108.779 96.7768 108.764 96.8532L104.178 136.899H104.894L109.369 97.2613H121.72L126.195 136.899H126.889L122.318 96.8532Z" fill="#F0F0F0"/>
<path d="M147.278 96.8532C147.262 96.7768 147.22 96.7083 147.159 96.6593C147.098 96.6103 147.023 96.584 146.945 96.5847H134.057C133.979 96.584 133.903 96.6103 133.842 96.6593C133.781 96.7083 133.739 96.7768 133.724 96.8532L129.148 136.899H129.843L134.329 97.2613H146.669L151.158 136.899H151.849L147.278 96.8532Z" fill="#F0F0F0"/>
<path d="M147.647 94.0072H107.1C105.163 94.0072 103.592 94.938 103.592 96.0908V96.1624C103.592 96.5812 104.165 96.9213 104.87 96.9213H149.874C150.59 96.9213 151.156 96.5633 151.156 96.1624V96.0908C151.156 94.938 149.584 94.0072 147.647 94.0072Z" fill="#E0E0E0"/>
<path d="M124.08 84.4664C124.08 86.9968 125.085 89.4235 126.874 91.2127C128.664 93.002 131.09 94.0071 133.621 94.0071C136.151 94.0071 138.578 93.002 140.367 91.2127C142.156 89.4235 143.161 86.9968 143.161 84.4664H124.08Z" fill="#E6E6E6"/>
<path d="M116.26 86.6538C116.26 88.604 117.034 90.4744 118.414 91.8534C119.793 93.2324 121.663 94.0071 123.613 94.0071C125.563 94.0071 127.434 93.2324 128.813 91.8534C130.192 90.4744 130.966 88.604 130.966 86.6538H116.26Z" fill="#EBEBEB"/>
<path d="M89.5005 153.067C127.836 153.067 158.913 151.252 158.913 149.014C158.913 146.776 127.836 144.961 89.5005 144.961C51.165 144.961 20.0879 146.776 20.0879 149.014C20.0879 151.252 51.165 153.067 89.5005 153.067Z" fill="#F5F5F5"/>
<path d="M157.126 63.434C157.684 64.5903 158.2 65.7466 158.669 66.928C159.138 68.1094 159.596 69.3052 159.986 70.5546C160.036 70.7121 160.083 70.8696 160.129 71.0307L160.197 71.267L160.233 71.3959L160.28 71.5964C160.389 72.1056 160.374 72.6334 160.237 73.1358C160.007 73.9214 159.596 74.6423 159.037 75.2408C158.106 76.2529 156.999 77.0874 155.769 77.7038L154.917 76.4473C155.756 75.6498 156.505 74.7626 157.151 73.8016C157.401 73.4316 157.57 73.0133 157.648 72.5737C157.662 72.4632 157.647 72.3511 157.605 72.2479L157.477 71.9186C157.426 71.7789 157.373 71.6429 157.312 71.4997C156.864 70.3827 156.363 69.2515 155.858 68.1238L154.348 64.7299L157.126 63.434Z" fill="#7F3E3B"/>
<path d="M154.852 76.254L152.801 77.5106L154.988 79.3865C154.988 79.3865 156.474 78.1836 156.449 76.7731L155.482 76.2397C155.386 76.1854 155.276 76.1582 155.165 76.1607C155.054 76.1632 154.946 76.1954 154.852 76.254Z" fill="#7F3E3B"/>
<path d="M152.375 79.9628L154.108 80.7755L154.988 79.3972L152.801 77.5212L152.375 79.9628Z" fill="#7F3E3B"/>
<path d="M150.059 146.128C150.326 146.122 150.591 146.086 150.85 146.021C150.864 146.018 150.876 146.011 150.886 146.001C150.896 145.991 150.902 145.978 150.904 145.964C150.907 145.95 150.906 145.935 150.9 145.922C150.894 145.91 150.884 145.899 150.871 145.892C150.771 145.824 149.858 145.237 149.511 145.395C149.472 145.412 149.438 145.44 149.413 145.475C149.389 145.511 149.374 145.552 149.371 145.595C149.356 145.662 149.358 145.732 149.378 145.798C149.399 145.864 149.436 145.924 149.486 145.971C149.652 146.09 149.855 146.146 150.059 146.128ZM150.649 145.921C150.127 146.025 149.737 146.007 149.575 145.867C149.542 145.835 149.518 145.794 149.506 145.75C149.493 145.705 149.493 145.658 149.504 145.613C149.504 145.594 149.51 145.576 149.52 145.56C149.53 145.545 149.544 145.532 149.561 145.523C149.754 145.441 150.277 145.706 150.649 145.921Z" fill="#DD0031"/>
<path d="M150.835 146.021H150.871C150.881 146.014 150.889 146.005 150.895 145.995C150.901 145.984 150.904 145.972 150.903 145.96C150.903 145.921 150.903 145.058 150.574 144.772C150.535 144.734 150.487 144.705 150.435 144.688C150.383 144.672 150.328 144.667 150.273 144.675C150.217 144.676 150.163 144.695 150.12 144.731C150.077 144.767 150.048 144.817 150.037 144.872C149.969 145.23 150.513 145.856 150.8 146.021C150.811 146.025 150.824 146.025 150.835 146.021ZM150.323 144.807C150.382 144.808 150.438 144.83 150.481 144.868C150.668 145.147 150.766 145.477 150.76 145.813C150.474 145.584 150.134 145.097 150.173 144.893C150.173 144.861 150.202 144.818 150.291 144.807H150.323Z" fill="#DD0031"/>
<path d="M150.572 53.009C150.214 54.799 149.498 58.379 150.733 59.5783C150.733 59.5783 150.246 61.3683 146.938 61.3683C143.305 61.3683 145.202 59.5783 145.202 59.5783C147.185 59.1058 147.135 57.6344 146.792 56.2489L150.572 53.009Z" fill="#7F3E3B"/>
<path d="M146.848 57.9959C146.622 58.3074 146.44 58.7549 146.615 58.7477C149.622 58.6188 150.353 58.7907 150.31 58.4506C150.267 58.1105 150.31 57.7596 150.145 57.7596C149.98 57.7596 146.955 57.8599 146.848 57.9959Z" fill="#DD0031"/>
<path d="M150.02 58.7442C150.225 58.8106 150.441 58.8373 150.657 58.8229C150.793 58.8624 150.909 58.9536 150.979 59.0771C151.009 58.8706 150.96 58.6604 150.841 58.4889C150.722 58.3175 150.542 58.1976 150.338 58.1535C149.576 57.9458 149.772 58.6439 150.02 58.7442Z" fill="#DD0031"/>
<path d="M149.673 57.953C149.874 57.5485 150.389 57.3767 150.547 57.6452C150.704 57.9137 150.422 58.1392 150.064 58.175C149.706 58.2108 149.534 58.2359 149.673 57.953Z" fill="#DD0031"/>
<path d="M149.866 57.9745C150.224 57.706 150.757 57.7776 150.786 58.0926C150.815 58.4076 150.449 58.4756 150.113 58.3468C149.776 58.2179 149.612 58.1642 149.866 57.9745Z" fill="#DD0031"/>
<path d="M144.478 49.2107C144.456 49.2073 144.434 49.1988 144.416 49.1857C144.397 49.1727 144.382 49.1555 144.371 49.1355C144.294 48.9752 144.18 48.8354 144.039 48.7272C143.898 48.619 143.733 48.5454 143.558 48.5126C143.538 48.513 143.518 48.5091 143.499 48.5012C143.481 48.4932 143.464 48.4814 143.45 48.4665C143.436 48.4516 143.426 48.434 143.419 48.4148C143.413 48.3955 143.411 48.3751 143.413 48.355C143.415 48.3348 143.421 48.3153 143.431 48.2977C143.441 48.2802 143.455 48.265 143.472 48.2531C143.488 48.2413 143.507 48.2331 143.527 48.2291C143.547 48.225 143.567 48.2253 143.587 48.2297C143.809 48.2684 144.019 48.3589 144.199 48.4939C144.379 48.6289 144.525 48.8046 144.625 49.0066C144.642 49.0399 144.645 49.0784 144.633 49.1138C144.622 49.1492 144.597 49.1788 144.564 49.1963C144.538 49.2097 144.508 49.2147 144.478 49.2107Z" fill="#263238"/>
<path d="M143.433 50.7787C143.158 51.3017 142.811 51.7837 142.402 52.2107C142.515 52.3122 142.649 52.3879 142.795 52.4324C142.94 52.4769 143.093 52.4892 143.244 52.4684L143.433 50.7787Z" fill="#630F0F"/>
<path d="M143.694 50.3921C143.669 50.6319 143.519 50.8109 143.361 50.793C143.204 50.7751 143.1 50.5675 143.125 50.3276C143.15 50.0878 143.3 49.9052 143.458 49.9231C143.615 49.941 143.723 50.1522 143.694 50.3921Z" fill="#263238"/>
<path d="M143.525 49.9446L142.967 49.7119C142.967 49.7119 143.199 50.1988 143.525 49.9446Z" fill="#263238"/>
<path d="M154.322 145.953H151.322L151.559 139.008H154.555L154.322 145.953Z" fill="#7F3E3B"/>
<path d="M151.075 145.606H154.444C154.502 145.604 154.559 145.624 154.603 145.662C154.647 145.7 154.676 145.752 154.684 145.81L155.067 148.473C155.075 148.541 155.068 148.609 155.047 148.673C155.026 148.738 154.992 148.797 154.947 148.848C154.902 148.898 154.846 148.938 154.784 148.966C154.722 148.993 154.655 149.007 154.587 149.007C153.409 148.989 152.844 148.917 151.365 148.917C150.456 148.917 149.124 149.014 147.864 149.014C146.604 149.014 146.539 147.768 147.062 147.657C149.414 147.149 149.787 146.454 150.578 145.788C150.718 145.672 150.893 145.608 151.075 145.606Z" fill="#263238"/>
<g opacity="0.2">
<path d="M154.559 139.008H151.559L151.438 142.588H154.438L154.559 139.008Z" fill="black"/>
</g>
<path d="M151.867 50.4779C151.355 53.4099 151.201 54.6629 149.54 56.009C147.034 58.0353 143.55 56.7644 143.178 53.7393C142.841 51.0149 143.74 46.6795 146.758 45.8275C147.423 45.6368 148.127 45.6194 148.801 45.777C149.475 45.9346 150.097 46.262 150.609 46.728C151.121 47.194 151.505 47.7831 151.726 48.4395C151.946 49.0958 151.994 49.7975 151.867 50.4779Z" fill="#7F3E3B"/>
<path d="M144.783 78.4449C144.783 78.4449 146.523 99.0264 148.327 110.626C149.788 119.994 150.937 141.897 150.937 141.897H155.015C155.015 141.897 156.368 120.8 155.849 111.517C154.617 89.5 157.929 84.7851 153.733 78.4449H144.783Z" fill="#DD0031"/>
<path opacity="0.2" d="M149.365 89.5537C149.193 95.7113 148.03 99.524 147.117 101.579C146.637 97.5622 146.197 93.37 145.828 89.6719C147.085 85.4833 149.498 84.9176 149.365 89.5537Z" fill="black"/>
<path d="M146.723 144.675C146.728 144.664 146.731 144.651 146.731 144.639C146.731 144.627 146.728 144.615 146.723 144.603C146.718 144.59 146.71 144.578 146.698 144.569C146.687 144.56 146.673 144.554 146.659 144.553C146.508 144.553 145.166 144.503 144.919 144.84C144.895 144.871 144.88 144.908 144.875 144.947C144.87 144.986 144.875 145.025 144.89 145.062C144.909 145.123 144.943 145.178 144.988 145.223C145.034 145.268 145.09 145.301 145.151 145.319C145.57 145.448 146.301 144.961 146.698 144.682L146.723 144.675ZM145.058 144.911C145.216 144.736 145.925 144.686 146.455 144.689C145.9 145.072 145.441 145.255 145.209 145.183C145.168 145.172 145.132 145.15 145.102 145.121C145.072 145.091 145.049 145.055 145.037 145.015C145.028 145.002 145.023 144.986 145.023 144.97C145.023 144.954 145.028 144.939 145.037 144.926L145.058 144.911Z" fill="#DD0031"/>
<path d="M146.723 144.675C146.73 144.664 146.734 144.652 146.734 144.639C146.734 144.626 146.73 144.614 146.723 144.603C146.723 144.575 146.304 143.887 145.828 143.748C145.759 143.729 145.688 143.725 145.618 143.734C145.548 143.744 145.48 143.768 145.42 143.805C145.251 143.905 145.241 144.02 145.262 144.099C145.355 144.432 146.272 144.714 146.662 144.711C146.674 144.711 146.686 144.707 146.697 144.701C146.708 144.695 146.717 144.686 146.723 144.675ZM145.43 143.959L145.498 143.909C145.543 143.881 145.592 143.863 145.644 143.856C145.696 143.849 145.749 143.854 145.799 143.869C146.11 144.01 146.368 144.246 146.537 144.542C146.114 144.5 145.463 144.242 145.405 144.041C145.403 144.027 145.404 144.013 145.409 143.999C145.413 143.985 145.42 143.973 145.43 143.963V143.959Z" fill="#DD0031"/>
<path d="M150.023 143.787L147.188 144.775L146.178 142.14L144.861 138.689L144.707 138.288L147.539 137.297L147.714 137.748L148.989 141.091L150.023 143.787Z" fill="#7F3E3B"/>
<path opacity="0.2" d="M148.989 141.091L146.179 142.14L144.861 138.689L147.715 137.748L148.989 141.091Z" fill="black"/>
<path d="M141.568 78.4449C141.568 78.4449 137.078 98.9011 137.082 109.43C137.082 118.942 145.087 141.156 145.087 141.156L148.885 139.591C148.885 139.591 145.201 115.695 144.346 110.171C146.422 101.579 150.002 89.5 150.002 78.4449H141.568Z" fill="#DD0031"/>
<path d="M146.702 144.227L149.752 142.795C149.805 142.771 149.864 142.766 149.92 142.782C149.976 142.798 150.024 142.833 150.056 142.881L151.531 145.133C151.566 145.191 151.589 145.256 151.597 145.323C151.606 145.39 151.6 145.458 151.58 145.523C151.561 145.588 151.528 145.648 151.484 145.699C151.439 145.75 151.385 145.792 151.324 145.821C150.25 146.3 149.709 146.476 148.367 147.102C147.543 147.489 146.043 148.735 144.808 148.978C143.573 149.222 143.265 148.015 143.756 147.804C145.964 146.848 145.904 145.541 146.326 144.603C146.403 144.438 146.536 144.305 146.702 144.227Z" fill="#263238"/>
<path d="M144.793 141.911L149.68 140.107L149.218 138.134L143.984 140.064L144.793 141.911Z" fill="#263238"/>
<path d="M150.378 141.976H155.587L155.859 140.15L150.346 139.964L150.378 141.976Z" fill="#263238"/>
<path d="M158.484 65.0164L155.473 67.415L153.683 68.847C153.683 68.847 153.494 68.3422 153.264 67.6191C152.824 66.2229 152.258 64.0104 152.652 62.9937C153.272 61.3827 154.442 59.9292 155.924 60.2514C157.163 60.5343 158.484 65.0164 158.484 65.0164Z" fill="#263238"/>
<path opacity="0.2" d="M155.079 67.7264L153.665 68.8577C153.665 68.8577 153.475 68.3529 153.246 67.6298L154.32 62.3135L155.079 67.7264Z" fill="black"/>
<path d="M140.131 60.348C140.131 60.348 138.699 60.8492 141.563 78.4449H153.735C153.531 73.4902 153.528 70.4329 155.883 60.2585C154.178 59.9066 152.449 59.6793 150.71 59.5783C148.869 59.4457 147.021 59.4457 145.179 59.5783C142.841 59.786 140.131 60.348 140.131 60.348Z" fill="#263238"/>
<path d="M141.41 64.1321C141.141 65.7001 140.822 67.2288 140.447 68.7861C140.089 70.3659 139.629 71.9206 139.068 73.4401C138.898 73.8831 138.692 74.3117 138.452 74.7217C138.366 74.8635 138.269 74.9987 138.162 75.1263C138.06 75.2545 137.948 75.3742 137.826 75.4843C137.562 75.722 137.258 75.9111 136.927 76.0428C136.585 76.173 136.22 76.2362 135.853 76.2289C135.532 76.2179 135.213 76.16 134.908 76.0571C134.417 75.8852 133.959 75.6323 133.551 75.3089C132.873 74.7646 132.271 74.1312 131.761 73.4258C131.511 73.0928 131.282 72.7527 131.067 72.4055C130.843 72.0583 130.638 71.6998 130.451 71.3315L131.718 70.4938C132.205 71.0308 132.742 71.5678 133.279 72.069C133.779 72.544 134.328 72.963 134.919 73.3184C135.142 73.4497 135.383 73.5463 135.635 73.6048C135.832 73.637 135.889 73.6048 135.896 73.5618C135.904 73.5189 135.929 73.5296 135.964 73.4831C135.986 73.4556 136.007 73.427 136.025 73.3971C136.025 73.3971 136.025 73.3971 136.061 73.322C136.191 73.0473 136.301 72.7638 136.39 72.4735C136.609 71.8112 136.799 71.0809 136.974 70.3506C137.149 69.6202 137.332 68.8756 137.486 68.131C137.801 66.6381 138.109 65.1202 138.402 63.6273L141.41 64.1321Z" fill="#7F3E3B"/>
<path d="M140.132 60.348C138.643 60.706 136.846 66.1118 136.846 66.1118L141.976 69.7491C141.976 69.7491 144.02 64.1607 143.53 62.5891C143.021 60.928 141.94 59.9077 140.132 60.348Z" fill="#263238"/>
<path d="M145.14 50.7787C143.647 50.1057 144.034 48.3873 144.99 48.7202C141.567 46.2607 143.411 45.108 144.442 45.7094C143.991 45.0471 142.455 43.1605 142.602 41.3919C142.748 39.6234 146.028 40.454 147.521 42.6915C146.93 40.9301 148.845 40.7583 150.27 42.9027C150.844 43.7889 151.267 44.7639 151.523 45.7882C151.523 45.7882 153.163 43.1998 153.582 45.6808C154.043 48.4302 152.658 49.4076 152.658 49.4076C152.658 49.4076 155.06 49.6224 153.854 51.2226C153.501 51.6192 153.099 51.9693 152.658 52.2644C152.658 52.2644 153.539 52.8658 152.357 54.0293C151.373 54.9995 150.388 55.8766 148.688 55.9661C146.78 56.0699 144.302 53.9756 145.14 50.7787Z" fill="#263238"/>
<path d="M151.524 45.8777C151.502 45.8777 151.48 45.8693 151.463 45.854C151.447 45.8388 151.437 45.8178 151.435 45.7953C151.324 44.7566 151.043 43.7431 150.604 42.7953C149.956 41.4492 149 40.8335 148.456 41.0053C148.098 41.1163 147.976 41.5423 148.098 42.1402C148.101 42.1521 148.102 42.1646 148.1 42.1769C148.099 42.1891 148.094 42.2009 148.088 42.2114C148.081 42.2219 148.072 42.2309 148.062 42.2378C148.052 42.2448 148.04 42.2495 148.028 42.2518C148.016 42.254 148.003 42.2537 147.991 42.2508C147.979 42.248 147.968 42.2427 147.958 42.2352C147.948 42.2277 147.94 42.2183 147.934 42.2075C147.928 42.1967 147.924 42.1847 147.923 42.1724C147.79 41.4779 147.976 40.9767 148.413 40.8335C149.029 40.633 150.067 41.2201 150.783 42.7058C151.233 43.6735 151.52 44.709 151.632 45.7703C151.633 45.782 151.631 45.7939 151.628 45.8051C151.624 45.8163 151.618 45.8268 151.611 45.8357C151.603 45.8447 151.594 45.8521 151.583 45.8575C151.573 45.8628 151.561 45.866 151.549 45.8669L151.524 45.8777Z" fill="#263238"/>
<path d="M146.139 51.0472C146.004 51.594 145.687 52.0788 145.24 52.4219C144.635 52.8837 144.141 52.4863 144.149 51.8312C144.149 51.2441 144.474 50.2918 145.162 50.0806C145.849 49.8694 146.282 50.3992 146.139 51.0472Z" fill="#7F3E3B"/>
<path d="M132.056 70.483L130.642 69.767L130.08 72.3088C130.08 72.3088 131.791 72.6023 132.522 71.5462L132.056 70.483Z" fill="#7F3E3B"/>
<path d="M128.98 70.0642L128.701 72.2158L130.083 72.3017L130.642 69.7599L128.98 70.0642Z" fill="#7F3E3B"/>
<path d="M153.939 77.7325L154.491 78.8065C154.534 78.8924 154.434 78.9783 154.29 78.9783H141.506C141.395 78.9783 141.306 78.9246 141.298 78.853L141.188 77.779C141.188 77.7038 141.277 77.6394 141.395 77.6394H153.728C153.769 77.6327 153.81 77.638 153.848 77.6545C153.885 77.6711 153.917 77.6981 153.939 77.7325Z" fill="#DD0031"/>
<path opacity="0.2" d="M153.939 77.7325L154.491 78.8065C154.534 78.8924 154.434 78.9783 154.29 78.9783H141.506C141.395 78.9783 141.306 78.9246 141.298 78.853L141.188 77.779C141.188 77.7038 141.277 77.6394 141.395 77.6394H153.728C153.769 77.6327 153.81 77.638 153.848 77.6545C153.885 77.6711 153.917 77.6981 153.939 77.7325Z" fill="white"/>
<path d="M152.271 79.118H152.601C152.665 79.118 152.715 79.0822 152.712 79.0428L152.558 77.6108C152.558 77.5679 152.497 77.5356 152.429 77.5356H152.099C152.035 77.5356 151.985 77.5679 151.988 77.6108L152.142 79.0428C152.15 79.075 152.203 79.118 152.271 79.118Z" fill="#DD0031"/>
<path d="M144.273 79.118H144.606C144.671 79.118 144.721 79.0822 144.717 79.0428L144.56 77.6108C144.56 77.5679 144.499 77.5356 144.434 77.5356H144.105C144.037 77.5356 143.987 77.5679 143.99 77.6108L144.148 79.0428C144.141 79.075 144.198 79.118 144.273 79.118Z" fill="#DD0031"/>
<path d="M119.215 47.1808C119.422 48.0687 120.346 49.1427 121.434 48.9708C120.557 48.5591 120.282 46.5328 120.282 46.5328L119.215 47.1808Z" fill="#263238"/>
<path d="M119.322 47.1808C119.322 48.0901 119.952 49.3539 121.048 49.4434C120.3 48.8348 120.103 46.9374 120.103 46.9374L119.322 47.1808Z" fill="#263238"/>
<path d="M96.9288 144.07L94.0898 143.633L94.344 136.939L97.183 137.375L96.9288 144.07Z" fill="#FFC3BD"/>
<path d="M114.661 146.078H111.79L111.023 139.423H113.898L114.661 146.078Z" fill="#FFC3BD"/>
<path d="M111.514 145.745H115.019C115.075 145.745 115.129 145.765 115.172 145.801C115.216 145.837 115.245 145.887 115.255 145.942L115.717 148.498C115.727 148.562 115.723 148.626 115.705 148.688C115.687 148.749 115.656 148.806 115.614 148.855C115.573 148.903 115.521 148.942 115.462 148.968C115.404 148.994 115.34 149.008 115.276 149.007C114.149 148.989 113.329 148.921 111.908 148.921C111.034 148.921 108.399 149.014 107.193 149.014C105.986 149.014 105.875 147.822 106.376 147.711C108.61 147.227 110.314 146.562 111.03 145.921C111.164 145.805 111.336 145.742 111.514 145.745Z" fill="#263238"/>
<path d="M94.1548 143.307L97.2587 143.784C97.3152 143.793 97.3669 143.82 97.4053 143.863C97.4437 143.905 97.4665 143.959 97.4699 144.016L97.6418 146.626C97.6459 146.689 97.6357 146.752 97.6119 146.811C97.5882 146.869 97.5516 146.922 97.5047 146.964C97.4579 147.006 97.4021 147.038 97.3416 147.055C97.281 147.073 97.2172 147.077 97.1549 147.066C96.0415 146.877 94.4341 146.562 93.0271 146.35C91.3839 146.096 90.4137 145.992 88.4841 145.695C87.3206 145.516 87.1774 144.288 87.6822 144.263C89.977 144.117 91.3338 144.324 93.4388 143.433C93.6608 143.324 93.9091 143.28 94.1548 143.307Z" fill="#263238"/>
<path d="M108.778 60.5664C108.324 61.6941 107.83 62.7144 107.321 63.7884C106.813 64.8624 106.247 65.872 105.664 66.8851C105.08 67.8983 104.454 68.9114 103.756 69.8959C103.051 70.9068 102.272 71.8641 101.425 72.7599L101.386 72.8029L101.318 72.8709L101.182 73.0034C101.092 73.0893 100.974 73.1788 100.87 73.2647C100.766 73.3506 100.63 73.433 100.512 73.5081C100.375 73.589 100.233 73.6607 100.086 73.7229C99.4683 73.9856 98.785 74.0531 98.1278 73.9163C97.6149 73.8043 97.1286 73.594 96.6958 73.2969C96.3639 73.0693 96.0557 72.8091 95.7757 72.5201C95.3044 72.0342 94.8823 71.503 94.5156 70.9341C94.1576 70.4007 93.8604 69.8601 93.5776 69.3303C92.5094 67.2271 91.66 65.0198 91.043 62.7431L93.0585 61.9805C93.5705 62.9436 94.1003 63.9388 94.6624 64.8839C95.2244 65.829 95.7829 66.7742 96.3915 67.6405C96.9243 68.4581 97.5582 69.205 98.2781 69.8637C98.4044 69.9703 98.5412 70.0638 98.6863 70.1429C98.7973 70.2002 98.8617 70.193 98.8187 70.1716C98.7223 70.1396 98.6181 70.1396 98.5216 70.1716C98.504 70.1748 98.4871 70.1808 98.4715 70.1895H98.4536C98.4536 70.1895 98.4536 70.1895 98.4536 70.1716L98.4929 70.125C99.783 68.4527 100.915 66.6646 101.876 64.7837C102.388 63.8242 102.878 62.8433 103.358 61.8552C103.838 60.8672 104.307 59.8469 104.744 58.891L108.778 60.5664Z" fill="#FFC3BD"/>
<path d="M110.021 59.1417C110.533 61.8374 107.182 65.6931 107.182 65.6931L102.26 63.5737C102.26 63.5737 102.768 60.4842 104.737 58.2538C107.146 55.5223 109.459 56.2061 110.021 59.1417Z" fill="#263238"/>
<path opacity="0.2" d="M107.362 60.0939C108.704 59.6141 109.696 59.7717 110.054 60.0939C109.811 62.6571 107.19 65.6787 107.19 65.6787L103.703 64.1786C103.961 62.9865 105.253 60.86 107.362 60.0939Z" fill="black"/>
<path d="M93.2311 62.7538L93.1201 60.6058L90.2346 61.0784C90.2346 61.0784 89.7012 63.1297 91.7454 63.5844L93.2311 62.7538Z" fill="#FFC3BD"/>
<path d="M92.8263 59.7252L90.442 60.2049L90.2344 61.0606L93.1198 60.588L92.8263 59.7252Z" fill="#FFC3BD"/>
<path opacity="0.2" d="M94.3453 136.942L94.2129 140.39L97.0554 140.826L97.1879 137.379L94.3453 136.942Z" fill="black"/>
<path opacity="0.2" d="M113.898 139.427H111.023L111.417 142.856H114.292L113.898 139.427Z" fill="black"/>
<path d="M122.917 59.181C118.771 69.7456 118.263 81.3376 117.762 83.6431L102.615 81.0154C102.257 66.7384 105.837 58.848 106.796 56.9972C106.865 56.8646 106.968 56.7523 107.093 56.6713C107.219 56.5903 107.363 56.5434 107.512 56.5354C110.061 56.4148 112.616 56.5107 115.148 56.8218C117.654 57.1619 122.928 59.181 122.928 59.181" fill="#263238"/>
<path d="M109.26 81.5453C109.26 81.4164 109.038 68.3995 111.97 60.187L112.142 60.2443C109.217 68.4282 109.439 81.4128 109.439 81.5417L109.26 81.5453Z" fill="white"/>
<path d="M112.877 61.3612C112.802 61.6153 112.648 61.8015 112.519 61.7729C112.391 61.7442 112.358 61.5115 112.43 61.2538C112.502 60.996 112.659 60.8134 112.788 60.8421C112.917 60.8707 112.949 61.1034 112.877 61.3612Z" fill="white"/>
<path d="M112.174 64.3291C112.116 64.5904 111.973 64.7838 111.848 64.7623C111.722 64.7408 111.669 64.5117 111.726 64.2503C111.783 63.989 111.927 63.7993 112.052 63.8207C112.177 63.8422 112.231 64.0821 112.174 64.3291Z" fill="white"/>
<path d="M111.625 67.4078C111.572 67.6691 111.432 67.8625 111.307 67.8446C111.181 67.8267 111.124 67.5975 111.174 67.3362C111.224 67.0749 111.368 66.878 111.493 66.8994C111.618 66.9209 111.676 67.1464 111.625 67.4078Z" fill="white"/>
<path d="M111.16 70.4222C111.124 70.6871 110.995 70.8911 110.87 70.8804C110.744 70.8697 110.673 70.6441 110.708 70.3792C110.744 70.1143 110.873 69.9102 110.998 69.9245C111.124 69.9389 111.195 70.168 111.16 70.4222Z" fill="white"/>
<path opacity="0.2" d="M121.445 63.4305C120.943 65.0845 120.514 66.7313 120.152 68.3279C119.676 65.4389 119.465 62.4711 119.465 62.4711L121.445 63.4305Z" fill="black"/>
<path d="M118.541 50.3456C117.775 52.3468 116.787 55.8731 117.993 57.5056C117.306 58.5044 114.857 60.0116 112.054 60.2156C110.053 59.3743 110.711 57.3087 111.517 56.5282C113.923 56.3743 114.127 54.7132 114.005 53.0342L118.541 50.3456Z" fill="#FFC3BD"/>
<path opacity="0.2" d="M116.708 51.4446L114.023 53.0341C114.057 53.426 114.057 53.8201 114.023 54.2119C114.926 54.237 116.307 53.478 116.562 52.5687C116.679 52.2061 116.729 51.8251 116.708 51.4446Z" fill="black"/>
<path d="M113.348 43.2536C110.588 42.8956 111.229 46.6976 112.299 48.1296C115.854 45.8993 115.02 43.4756 113.348 43.2536Z" fill="#263238"/>
<path d="M112.749 44.0913C112.688 45.4338 111.635 47.231 110.014 47.2703C110.737 46.7132 111.272 45.9471 111.546 45.0758L112.749 44.0913Z" fill="#263238"/>
<path d="M119.329 47.274C118.671 50.0485 118.427 51.706 116.759 52.8982C114.253 54.6882 111.013 52.8087 110.83 49.8945C110.666 47.2704 111.772 43.1713 114.711 42.5341C115.358 42.3896 116.032 42.4131 116.668 42.6023C117.303 42.7916 117.88 43.1404 118.343 43.6154C118.806 44.0904 119.139 44.676 119.312 45.3164C119.485 45.9567 119.491 46.6306 119.329 47.274Z" fill="#FFC3BD"/>
<path d="M119.595 44.4134C116.831 44.0554 117.472 47.8538 118.543 49.2858C121.99 47.3884 121.264 44.6318 119.595 44.4134Z" fill="#263238"/>
<path d="M119.44 44.8503C117.854 45.8133 116.2 44.3921 115.441 43.7763C114.682 43.1605 112.975 44.3634 110.952 43.8837C109.756 43.5973 109.588 42.4195 109.588 41.6677C110.458 43.2644 111.897 43.5006 112.753 42.824C113.608 42.1474 114.639 40.9123 115.874 41.5495C117.109 42.1868 118.86 42.9815 119.651 42.7846C121.03 42.4374 121.23 43.762 119.44 44.8503Z" fill="#263238"/>
<path d="M115.237 43.318C114.21 44.5316 111.925 45.466 110.379 44.3204C111.459 44.321 112.514 43.9898 113.4 43.3717L115.237 43.318Z" fill="#263238"/>
<path d="M116.731 43.7762C116.556 45.108 117.272 47.0627 118.861 47.3885C118.247 46.7124 117.856 45.8637 117.741 44.9576L116.731 43.7762Z" fill="#263238"/>
<path d="M119.812 47.1379C119.34 48.3945 117.786 49.78 116.232 49.3146C117.589 48.8814 118.209 47.2704 118.209 47.2704L119.812 47.1379Z" fill="#263238"/>
<path d="M113.082 42.2727C113.229 41.9827 114.156 40.9195 116.211 40.5722C119.34 40.0495 121.126 42.6128 122.705 41.1844C123.167 40.7691 123.629 41.6784 123.092 42.2584C122.619 42.7847 122.895 46.805 120.84 46.4219C119.573 46.1821 113.082 42.2727 113.082 42.2727Z" fill="#DD0031"/>
<path opacity="0.2" d="M113.082 42.2727C113.229 41.9827 114.156 40.9195 116.211 40.5722C119.34 40.0495 121.126 42.6128 122.705 41.1844C123.167 40.7691 123.629 41.6784 123.092 42.2584C122.619 42.7847 122.895 46.805 120.84 46.4219C119.573 46.1821 113.082 42.2727 113.082 42.2727Z" fill="white"/>
<path d="M111.815 43.1927C111.238 43.0638 112.756 41.9898 113.157 41.9755C113.558 41.9612 120.976 44.392 121.155 46.54C121.04 46.8747 120.887 47.1953 120.7 47.4959C120.682 47.523 120.66 47.5462 120.633 47.5642C120.606 47.5822 120.576 47.5946 120.544 47.6006C120.512 47.6066 120.479 47.6062 120.448 47.5992C120.416 47.5923 120.386 47.5791 120.36 47.5603C119.426 46.898 115.309 43.9767 111.815 43.1927Z" fill="#DD0031"/>
<path d="M123.335 42.9027C124.169 42.9027 124.846 42.2264 124.846 41.392C124.846 40.5576 124.169 39.8812 123.335 39.8812C122.501 39.8812 121.824 40.5576 121.824 41.392C121.824 42.2264 122.501 42.9027 123.335 42.9027Z" fill="#DD0031"/>
<path d="M120.041 49.9553C119.68 50.5053 119.116 50.8911 118.473 51.0293C117.635 51.194 117.313 50.4028 117.624 49.6224C117.911 48.9064 118.698 47.9935 119.49 48.1904C120.281 48.3873 120.492 49.2751 120.041 49.9553Z" fill="#FFC3BD"/>
<path d="M93.489 139.566L98.3006 140.304C98.3006 140.304 99.2922 123.542 101.036 114.76C101.569 112.086 103.04 108.674 104.351 104.736C106.001 99.7853 107.984 94.4547 109.585 90.284C111.274 85.8913 112.52 82.7374 112.52 82.7374L102.614 81.0154C102.614 81.0154 94.0762 104.146 92.8876 112.834C91.6489 121.87 93.489 139.566 93.489 139.566Z" fill="#DD0031"/>
<path opacity="0.3" d="M93.489 139.566L98.3006 140.304C98.3006 140.304 99.2922 123.542 101.036 114.76C101.569 112.086 103.04 108.674 104.351 104.736C106.001 99.7853 107.984 94.4547 109.585 90.284C111.274 85.8913 112.52 82.7374 112.52 82.7374L102.614 81.0154C102.614 81.0154 94.0762 104.146 92.8876 112.834C91.6489 121.87 93.489 139.566 93.489 139.566Z" fill="black"/>
<path opacity="0.2" d="M104.352 104.736C106.002 99.7853 107.985 94.4547 109.586 90.284L108.776 87.9355C105.988 90.6349 104.38 99.7173 104.352 104.736Z" fill="black"/>
<path d="M107.332 81.8352C107.332 81.8352 106.527 106.58 106.885 114.99C107.278 124.205 110.089 142.198 110.089 142.198H115.351C115.351 142.198 114.181 125.884 114.277 116.894C114.406 106.655 117.746 83.6503 117.746 83.6503L107.332 81.8352Z" fill="#DD0031"/>
<path opacity="0.3" d="M107.332 81.8352C107.332 81.8352 106.527 106.58 106.885 114.99C107.278 124.205 110.089 142.198 110.089 142.198H115.351C115.351 142.198 114.181 125.884 114.277 116.894C114.406 106.655 117.746 83.6503 117.746 83.6503L107.332 81.8352Z" fill="black"/>
<path d="M109.459 142.305H115.656V140.454L108.729 140.332L109.459 142.305Z" fill="#DD0031"/>
<path d="M92.87 139.584L98.6016 140.465L98.8844 138.614L92.4941 137.533L92.87 139.584Z" fill="#DD0031"/>
<path d="M115.176 47.3599C115.137 47.589 114.983 47.7501 114.818 47.7179C114.654 47.6857 114.578 47.4852 114.618 47.2597C114.657 47.0341 114.811 46.8659 114.976 46.9017C115.14 46.9375 115.216 47.1308 115.176 47.3599Z" fill="#263238"/>
<path d="M112.595 46.898C112.555 47.1271 112.401 47.2882 112.254 47.256C112.108 47.2238 112.015 47.0233 112.054 46.7978C112.093 46.5722 112.247 46.404 112.412 46.4398C112.577 46.4756 112.634 46.6832 112.595 46.898Z" fill="#263238"/>
<path d="M113.157 47.1272C112.764 47.7783 112.282 48.3712 111.725 48.8886C111.863 49.0297 112.032 49.1385 112.217 49.2072C112.403 49.2758 112.601 49.3027 112.799 49.2859L113.157 47.1272Z" fill="#ED847E"/>
<path d="M113.64 50.0627C113.902 50.0778 114.164 50.0388 114.411 49.9483C114.657 49.8578 114.882 49.7176 115.072 49.5365C115.078 49.5301 115.083 49.5226 115.087 49.5143C115.09 49.506 115.092 49.4971 115.092 49.4881C115.092 49.4791 115.09 49.4702 115.087 49.4619C115.083 49.4536 115.078 49.4461 115.072 49.4398C115.059 49.4277 115.042 49.421 115.024 49.421C115.006 49.421 114.989 49.4277 114.975 49.4398C114.763 49.6352 114.508 49.778 114.231 49.8563C113.954 49.9347 113.662 49.9465 113.379 49.8909C113.361 49.8887 113.343 49.8934 113.328 49.9041C113.313 49.9147 113.303 49.9304 113.3 49.9482C113.297 49.9657 113.301 49.9838 113.311 49.9985C113.321 50.0132 113.336 50.0234 113.354 50.0269C113.448 50.0449 113.544 50.0569 113.64 50.0627Z" fill="#263238"/>
<path d="M115.879 46.6223C115.901 46.6276 115.924 46.6276 115.947 46.6223C115.978 46.6055 116.002 46.5772 116.014 46.5432C116.025 46.5092 116.023 46.4722 116.008 46.4397C115.913 46.2456 115.773 46.0769 115.6 45.9475C115.427 45.818 115.225 45.7315 115.012 45.6951C114.976 45.6913 114.94 45.702 114.912 45.7248C114.884 45.7476 114.866 45.7807 114.862 45.8168C114.858 45.8529 114.869 45.889 114.892 45.9172C114.915 45.9454 114.948 45.9634 114.984 45.9672C115.152 45.9971 115.31 46.0667 115.446 46.17C115.582 46.2733 115.691 46.4075 115.764 46.5614C115.777 46.5806 115.794 46.5962 115.814 46.6069C115.834 46.6175 115.856 46.6228 115.879 46.6223Z" fill="#263238"/>
<path d="M111.399 45.7882C111.421 45.7896 111.443 45.7853 111.463 45.776C111.483 45.7666 111.501 45.7523 111.514 45.7345C111.609 45.5921 111.737 45.4745 111.887 45.3917C112.037 45.3088 112.205 45.2631 112.377 45.2584C112.413 45.2594 112.448 45.2461 112.475 45.2213C112.502 45.1966 112.518 45.1623 112.52 45.1259C112.52 45.0901 112.506 45.0557 112.481 45.0297C112.457 45.0037 112.423 44.9882 112.387 44.9863C112.172 44.9895 111.96 45.0445 111.77 45.1467C111.58 45.2489 111.417 45.3952 111.295 45.5734C111.284 45.5876 111.276 45.6039 111.272 45.6212C111.267 45.6386 111.266 45.6567 111.269 45.6745C111.272 45.6922 111.278 45.7092 111.287 45.7245C111.297 45.7397 111.309 45.7529 111.324 45.7632C111.346 45.7795 111.372 45.7882 111.399 45.7882Z" fill="#263238"/>
<path d="M110.544 146.25C110.798 146.243 111.052 146.208 111.299 146.146C111.312 146.142 111.324 146.135 111.334 146.125C111.343 146.115 111.35 146.102 111.353 146.089C111.355 146.076 111.353 146.063 111.348 146.051C111.343 146.039 111.335 146.029 111.324 146.021C111.22 145.957 110.318 145.387 109.992 145.548C109.957 145.567 109.927 145.595 109.906 145.629C109.884 145.663 109.872 145.702 109.871 145.742C109.86 145.807 109.865 145.874 109.887 145.937C109.909 145.999 109.947 146.056 109.996 146.1C110.156 146.211 110.349 146.264 110.544 146.25ZM111.106 146.05C110.612 146.146 110.239 146.128 110.085 145.996C110.052 145.966 110.028 145.927 110.013 145.885C109.999 145.842 109.995 145.797 110.003 145.753C110.003 145.736 110.007 145.72 110.016 145.705C110.024 145.691 110.035 145.679 110.05 145.67C110.218 145.584 110.737 145.831 111.106 146.064V146.05Z" fill="#DD0031"/>
<path d="M111.281 146.146C111.294 146.15 111.307 146.15 111.32 146.146C111.332 146.136 111.339 146.123 111.343 146.108C111.346 146.093 111.344 146.078 111.338 146.064C111.338 146.028 111.302 145.198 110.98 144.926C110.941 144.891 110.896 144.866 110.846 144.851C110.797 144.836 110.745 144.832 110.694 144.84C110.642 144.839 110.592 144.856 110.552 144.888C110.512 144.92 110.483 144.965 110.472 145.015C110.397 145.337 110.944 145.967 111.234 146.128L111.281 146.146ZM110.751 144.99C110.808 144.99 110.863 145.012 110.905 145.051C111.097 145.311 111.202 145.626 111.206 145.949C110.919 145.724 110.572 145.233 110.619 145.062C110.619 145.044 110.619 145.001 110.719 144.99H110.751Z" fill="#DD0031"/>
<path d="M93.8188 143.658C93.8313 143.655 93.8428 143.649 93.8522 143.64C93.8616 143.631 93.8686 143.62 93.8725 143.608C93.8762 143.595 93.8758 143.58 93.8713 143.567C93.8669 143.553 93.8586 143.542 93.8474 143.533C93.7293 143.447 92.6768 142.695 92.3009 142.835C92.266 142.848 92.2349 142.869 92.2105 142.898C92.1861 142.926 92.1691 142.96 92.1613 142.996C92.1437 143.057 92.1418 143.122 92.1555 143.185C92.1693 143.247 92.1983 143.305 92.24 143.354C92.5085 143.676 93.3391 143.69 93.8116 143.669L93.8188 143.658ZM92.3868 142.942C92.6123 142.903 93.1959 143.232 93.6112 143.515C92.9703 143.515 92.5049 143.426 92.3546 143.243C92.3282 143.212 92.3101 143.174 92.302 143.134C92.2939 143.094 92.2959 143.053 92.308 143.014C92.3097 143 92.3153 142.986 92.3241 142.975C92.3329 142.963 92.3447 142.955 92.3582 142.949L92.3868 142.942Z" fill="#DD0031"/>
<path d="M93.8185 143.658H93.84C93.8502 143.652 93.8589 143.644 93.8651 143.634C93.8714 143.624 93.875 143.613 93.8758 143.601C93.8758 143.569 93.9188 142.792 93.6037 142.437C93.5589 142.386 93.504 142.344 93.4425 142.315C93.3809 142.285 93.314 142.268 93.2457 142.266C93.0596 142.266 92.9916 142.341 92.9665 142.416C92.8663 142.727 93.4498 143.447 93.772 143.655C93.7871 143.659 93.803 143.66 93.8185 143.658ZM93.1706 142.398H93.2386C93.2887 142.4 93.3379 142.413 93.383 142.435C93.428 142.457 93.4678 142.488 93.4999 142.527C93.6754 142.806 93.7593 143.132 93.7398 143.461C93.4247 143.196 93.0238 142.642 93.099 142.455C93.1025 142.437 93.1097 142.409 93.1706 142.398Z" fill="#DD0031"/>
<path d="M123.379 60.9281C123.826 61.8696 124.191 62.7682 124.567 63.699C124.943 64.6298 125.283 65.5642 125.598 66.5129C126.256 68.4395 126.768 70.4129 127.13 72.4163C127.213 72.939 127.295 73.4545 127.338 73.9951L127.377 74.3961V74.4963V74.7004C127.386 74.8446 127.386 74.9893 127.377 75.1335C127.312 75.7255 127.087 76.2885 126.726 76.7624C126.438 77.1312 126.085 77.4442 125.684 77.6861C125.377 77.8714 125.052 78.0261 124.714 78.1479C124.151 78.3496 123.567 78.4901 122.974 78.5668C121.926 78.7066 120.868 78.7461 119.813 78.6849C118.793 78.6366 117.777 78.5169 116.773 78.3269L116.888 76.1789C118.701 76.0041 120.497 75.682 122.258 75.2159C122.617 75.1062 122.966 74.9648 123.3 74.7934C123.579 74.6574 123.737 74.4533 123.626 74.5214C123.554 74.6023 123.506 74.7014 123.486 74.8078C123.486 74.8328 123.486 74.8615 123.486 74.8794V74.9008V74.8221L123.429 74.5035C123.364 74.081 123.26 73.6478 123.164 73.2147C122.956 72.3483 122.713 71.4676 122.426 70.5905C122.14 69.7134 121.839 68.8292 121.521 67.9556C121.202 67.0821 120.855 66.2014 120.515 65.3279C120.174 64.4544 119.799 63.5701 119.441 62.7467L123.379 60.9281Z" fill="#FFC3BD"/>
<path d="M122.917 59.181C124.402 59.9865 125.423 64.8266 125.423 64.8266L121.019 67.5331C121.019 67.5331 119.881 65.2992 119.043 63.4555C117.454 59.9364 119.988 57.5986 122.917 59.181Z" fill="#263238"/>
<path d="M117.259 76.1287L114.363 76.0034L115.634 78.76C115.634 78.76 118.366 78.5953 118.004 77.2886L117.259 76.1287Z" fill="#FFC3BD"/>
<path d="M112.455 77.9009L113.898 79.698L115.645 78.7457L114.36 75.9999L112.455 77.9009Z" fill="#FFC3BD"/>
<path d="M44.9545 62.6929C45.1299 63.6058 45.3125 64.5867 45.5523 65.5247C45.7922 66.4626 46.0034 67.4185 46.2683 68.3493C46.3972 68.8183 46.5368 69.2837 46.68 69.7419C46.8232 70.2001 46.9664 70.662 47.1204 71.1202C47.2743 71.5784 47.4354 72.0259 47.6108 72.4663C47.6967 72.6918 47.7827 72.9138 47.8793 73.1286L48.0189 73.4544L48.0905 73.6155L48.1263 73.6978V73.7408L48.1084 73.7085C48.0798 73.662 48.0476 73.6226 48.001 73.5618C47.9493 73.5105 47.8943 73.4627 47.8364 73.4186C47.7278 73.3452 47.6063 73.2929 47.4784 73.2646C47.2815 73.2396 47.2492 73.2646 47.2564 73.2646C47.3814 73.2308 47.5016 73.1815 47.6144 73.1178C47.9984 72.9093 48.3648 72.6698 48.7099 72.4018C49.4581 71.8505 50.2099 71.2276 50.9438 70.5832C51.6777 69.9388 52.4188 69.2801 53.1419 68.607C53.8651 67.934 54.5954 67.2502 55.315 66.5736L56.4498 67.576C55.8412 68.3958 55.2076 69.1727 54.5596 69.9531C53.9116 70.7336 53.2314 71.4854 52.5369 72.2372C51.8288 72.9984 51.0808 73.7214 50.2958 74.4031C49.8685 74.7756 49.4137 75.1155 48.9354 75.4198C48.6223 75.6186 48.2823 75.7717 47.9259 75.8744C47.6129 75.964 47.2838 75.9824 46.9628 75.9281C46.7049 75.884 46.4602 75.7824 46.2468 75.631C46.034 75.4847 45.8566 75.2927 45.7277 75.0689L45.6848 74.9938L45.6561 74.9401L45.6347 74.8935L45.5917 74.8076L45.5022 74.6286L45.3304 74.2706C45.2086 74.0343 45.1012 73.798 44.9974 73.5546C44.7755 73.0785 44.5786 72.5987 44.3852 72.1226C44.0022 71.1596 43.6692 70.1822 43.3614 69.1977C43.0535 68.2132 42.7814 67.2252 42.5415 66.2263C42.3017 65.2275 42.094 64.243 41.9258 63.1833L44.9545 62.6929Z" fill="#B55B52"/>
<path d="M43.7506 59.367C45.4797 59.725 46.5394 68.1989 46.5394 68.1989L42.068 68.385C42.068 68.385 40.3317 63.1332 40.8508 61.0246C41.2267 59.4888 41.9355 59.0054 43.7506 59.367Z" fill="#DD0031"/>
<path d="M41.8868 68.113C41.8665 68.3626 41.8982 68.6137 41.9799 68.8505C42.0873 69.0509 46.1291 68.5712 46.4585 68.471C46.7878 68.3707 46.8165 67.755 46.8165 67.6368C46.8165 67.5187 41.8868 67.8051 41.8868 68.113Z" fill="#DD0031"/>
<path opacity="0.1" d="M41.8868 68.113C41.8665 68.3626 41.8982 68.6137 41.9799 68.8505C42.0873 69.0509 46.1291 68.5712 46.4585 68.471C46.7878 68.3707 46.8165 67.755 46.8165 67.6368C46.8165 67.5187 41.8868 67.8051 41.8868 68.113Z" fill="black"/>
<path opacity="0.2" d="M45.4453 68.2455L45.2914 67.6584L44.246 63.6201L43.9202 67.755L43.8773 68.3099L43.8379 68.804C44.425 68.7503 45.0479 68.6787 45.542 68.6142L45.4453 68.2455Z" fill="black"/>
<path d="M54.8711 67.304L55.0358 66.0689L57.2232 65.6823C57.2232 65.6823 56.9976 67.5868 55.8413 68.0415L54.8711 67.304Z" fill="#B55B52"/>
<path d="M55.1533 64.311L57.4123 64.1356L57.2225 65.6643L55.0352 66.0509L55.1533 64.311Z" fill="#B55B52"/>
<path d="M40.6719 145.309H43.6576L44.1087 138.392H41.123L40.6719 145.309Z" fill="#B55B52"/>
<path d="M23.3242 139.24L26.2312 139.924L28.7479 133.412L25.841 132.728L23.3242 139.24Z" fill="#B55B52"/>
<path d="M26.682 139.677L23.6748 138.188C23.6235 138.162 23.5645 138.155 23.5087 138.169C23.4528 138.183 23.4038 138.216 23.3705 138.263L21.8383 140.479C21.8022 140.536 21.7785 140.6 21.7687 140.667C21.759 140.733 21.7634 140.801 21.7816 140.866C21.7998 140.931 21.8315 140.991 21.8746 141.043C21.9177 141.095 21.9712 141.137 22.0316 141.167C23.1056 141.668 23.6247 141.854 24.9493 142.509C25.762 142.91 27.7131 144.353 28.8372 144.908C29.9613 145.463 30.5699 144.381 30.151 144.052C28.7956 143.004 27.7247 141.633 27.0364 140.064C26.9667 139.898 26.8414 139.761 26.682 139.677Z" fill="#263238"/>
<path d="M43.8882 144.961H40.5337C40.4759 144.961 40.4197 144.981 40.3756 145.019C40.3316 145.056 40.3025 145.108 40.2939 145.165L39.9108 147.822C39.9038 147.889 39.911 147.957 39.9319 148.021C39.9528 148.085 39.987 148.144 40.0323 148.194C40.0776 148.244 40.1329 148.284 40.1946 148.311C40.2563 148.338 40.3231 148.352 40.3905 148.352C41.5612 148.33 42.1233 148.262 43.6125 148.262C44.5219 148.262 46.3978 148.355 47.6508 148.355C48.9038 148.355 48.9718 147.117 48.4491 147.006C46.1114 146.501 45.1877 145.806 44.4001 145.144C44.2567 145.024 44.0752 144.959 43.8882 144.961Z" fill="#263238"/>
<g opacity="0.2">
<path d="M44.109 138.392L43.8763 141.958H40.8906L41.1233 138.392H44.109Z" fill="black"/>
<path d="M25.8406 132.728L28.7475 133.416L27.3621 136.996L24.541 136.086L25.8406 132.728Z" fill="black"/>
</g>
<path d="M43.7507 59.3671C43.7507 59.3671 45.2078 59.7681 43.5932 77.4461L31.5035 78.2981C31.3603 73.3577 31.1455 70.3219 28.0918 60.3981C29.7601 59.929 31.4603 59.582 33.179 59.3599C34.9951 59.0941 36.8281 58.9601 38.6635 58.959C41.0371 59.0091 43.7507 59.3671 43.7507 59.3671Z" fill="#DD0031"/>
<path opacity="0.2" d="M28.9199 62.7823L28.8555 62.9578C30.2266 67.6333 30.8531 70.5653 31.161 73.1035C31.6914 72.2118 31.9961 71.2041 32.0488 70.1679C32.2421 66.5879 30.5524 63.0079 28.9199 62.7823Z" fill="black"/>
<path d="M29.9113 47.9505C28.755 48.9958 29.9507 50.2954 29.6535 51.6271C29.3564 52.9589 30.0115 53.2775 29.8898 54.1331C29.7946 54.9603 29.5288 55.7587 29.1094 56.478C29.1094 56.478 39.4592 57.3551 41.4496 55.762C42.4449 54.9673 40.1179 51.688 40.4544 50.4529C40.7909 49.2178 41.7325 47.5889 40.6119 45.9564C39.1799 43.88 34.9126 42.5375 31.5438 45.38C29.2562 45.7058 29.9113 47.9505 29.9113 47.9505Z" fill="#263238"/>
<path d="M33.502 53.12C33.9745 54.8635 34.934 58.3253 33.7705 59.5926C33.7705 59.5926 35.0235 59.9506 36.7562 60.3838C38.0092 59.8003 38.3206 59.3528 38.3206 59.3528C36.8886 58.9697 36.8314 57.1618 37.0784 55.7728L33.502 53.12Z" fill="#B55B52"/>
<path d="M33.5029 59.3063C33.6926 58.9733 33.3418 58.1607 33.2809 57.4733C33.22 56.7859 33.9504 56.9828 34.8167 57.1905C35.6831 57.3981 37.8919 56.4745 37.9814 57.2657C38.0709 58.0568 38.1282 58.9948 38.4576 59.1308C38.7869 59.2669 38.232 60.3087 36.7249 60.638C35.2177 60.9674 33.0733 60.0581 33.5029 59.3063Z" fill="#DD0031"/>
<path opacity="0.1" d="M33.623 57.9315C34.7644 58.1311 35.9266 58.184 37.0813 58.089C36.5909 58.4148 34.5538 58.5938 33.623 57.9315Z" fill="black"/>
<path opacity="0.2" d="M34.9623 54.1975L37.0781 55.762C37.0138 56.0875 36.9791 56.4182 36.9743 56.7501C36.2153 56.6928 34.9874 56.1343 34.7654 55.3181C34.6616 54.9457 34.9086 54.3872 34.9623 54.1975Z" fill="black"/>
<path d="M31.2679 49.8264C31.9302 52.7154 32.1486 53.9505 33.8705 55.1964C36.4625 57.083 39.8635 55.6367 40.0783 52.608C40.2716 49.8836 39.1546 45.6163 36.1045 44.9289C35.4321 44.7735 34.7312 44.7928 34.0685 44.985C33.4057 45.1772 32.8032 45.5358 32.3184 46.0268C31.8335 46.5178 31.4824 47.1247 31.2985 47.7898C31.1146 48.4549 31.1041 49.156 31.2679 49.8264Z" fill="#B55B52"/>
<path d="M32.4881 45.2583C34.1098 44.8108 37.3067 43.0351 39.5228 46.6652C39.3151 47.1628 37.1206 47.3812 37.1206 47.3812C37.1206 47.3812 36.8127 46.096 36.1934 45.6879C36.4024 46.2866 36.5593 46.9022 36.6623 47.528C36.6623 47.528 34.0418 48.4552 32.821 48.3729C31.6002 48.2905 31.0274 45.6592 32.4881 45.2583Z" fill="#263238"/>
<path d="M43.5942 77.446C43.5942 77.446 47.5573 100.229 47.9976 109.308C48.4594 118.774 44.5143 141.249 44.5143 141.249H40.476C40.476 141.249 41.6467 119.805 40.6371 110.55C39.5381 100.48 34.7266 78.069 34.7266 78.069L43.5942 77.446Z" fill="#263238"/>
<path d="M40.1282 141.413H44.8645L45.2118 139.903L39.9062 139.717L40.1282 141.413Z" fill="#DD0031"/>
<path opacity="0.2" d="M38.7746 83.5249C42.1684 89.2923 40.5646 100.351 39.7913 104.497C38.8247 98.4392 37.3927 91.0536 36.3008 85.6335C36.5335 82.5082 37.2101 80.8649 38.7746 83.5249Z" fill="black"/>
<path d="M40.3968 77.6859C40.3968 77.6859 39.3228 101.736 37.8013 109.548C35.9827 118.813 28.3107 136.283 28.3107 136.283L24.4551 134.884C24.4551 134.884 28.6687 116.626 29.9719 110.719C32.3382 99.9786 28.7582 85.2147 31.4934 78.3196L40.3968 77.6859Z" fill="#263238"/>
<path d="M23.8184 135.063L28.5475 136.831L29.6108 135.532L24.137 133.197L23.8184 135.063Z" fill="#DD0031"/>
<path d="M36.0503 49.8299C36.0896 50.0662 36.2472 50.238 36.4083 50.213C36.5694 50.1879 36.6589 49.9731 36.6195 49.7368C36.5801 49.5006 36.4226 49.3251 36.2615 49.3538C36.1004 49.3824 36.0109 49.5901 36.0503 49.8299Z" fill="#263238"/>
<path d="M38.7358 49.404C38.7752 49.6403 38.9327 49.8121 39.0938 49.787C39.2549 49.762 39.3444 49.5472 39.305 49.3109C39.2656 49.0746 39.1081 48.8992 38.947 48.9243C38.7859 48.9493 38.6964 49.1462 38.7358 49.404Z" fill="#263238"/>
<path d="M38.8789 48.9313L39.4231 48.6736C39.4231 48.6736 39.2047 49.1676 38.8789 48.9313Z" fill="#263238"/>
<path d="M37.9805 49.9481C38.2796 50.4564 38.6483 50.9203 39.076 51.3264C38.9692 51.4326 38.8405 51.5143 38.6989 51.5656C38.5573 51.6169 38.4062 51.6367 38.2561 51.6236L37.9805 49.9481Z" fill="#A02724"/>
<path d="M37.1133 52.7692C37.2334 52.7687 37.3531 52.7579 37.4713 52.7369C37.4803 52.7355 37.4888 52.7324 37.4965 52.7277C37.5042 52.7229 37.511 52.7167 37.5163 52.7094C37.5216 52.7021 37.5254 52.6938 37.5275 52.685C37.5296 52.6762 37.53 52.6671 37.5286 52.6582C37.5272 52.6492 37.524 52.6407 37.5193 52.633C37.5146 52.6253 37.5084 52.6185 37.5011 52.6132C37.4938 52.6079 37.4855 52.6041 37.4767 52.602C37.4679 52.5999 37.4588 52.5995 37.4498 52.6009C37.155 52.6554 36.8515 52.6401 36.5636 52.5562C36.2758 52.4723 36.0116 52.3221 35.7923 52.1176C35.7864 52.1092 35.7788 52.1022 35.77 52.097C35.7612 52.0918 35.7513 52.0886 35.7412 52.0875C35.731 52.0865 35.7207 52.0876 35.711 52.0909C35.7013 52.0941 35.6924 52.0994 35.6849 52.1064C35.6774 52.1133 35.6715 52.1218 35.6676 52.1313C35.6637 52.1407 35.6618 52.1509 35.6621 52.1611C35.6625 52.1713 35.665 52.1814 35.6696 52.1905C35.6741 52.1997 35.6805 52.2078 35.6885 52.2143C35.8771 52.3969 36.1003 52.5401 36.3449 52.6354C36.5896 52.7307 36.8508 52.7762 37.1133 52.7692Z" fill="#263238"/>
<path d="M32.1768 51.867C33.5766 50.1951 34.0384 47.4206 32.1016 45.7058C30.8486 46.9731 29.7424 50.836 32.1768 51.867Z" fill="#263238"/>
<path d="M30.7886 52.2465C31.0419 52.7599 31.4868 53.1533 32.0273 53.342C32.7433 53.5818 33.1442 52.9482 32.976 52.2465C32.8256 51.6164 32.26 50.7357 31.544 50.7966C31.3826 50.8127 31.2278 50.8688 31.0935 50.9598C30.9591 51.0507 30.8496 51.1736 30.7746 51.3175C30.6997 51.4613 30.6617 51.6216 30.6642 51.7837C30.6666 51.9459 30.7094 52.1049 30.7886 52.2465Z" fill="#B55B52"/>
<path d="M34.9804 49.1176C35.0104 49.1212 35.0408 49.1147 35.0667 49.0992C35.0926 49.0836 35.1126 49.0599 35.1236 49.0317C35.3849 48.4338 36.1976 48.2584 36.219 48.2548C36.2371 48.2514 36.2543 48.2444 36.2696 48.2342C36.2848 48.224 36.2979 48.2108 36.3079 48.1954C36.318 48.18 36.3248 48.1627 36.328 48.1447C36.3311 48.1266 36.3306 48.108 36.3264 48.0901C36.3239 48.071 36.3174 48.0525 36.3074 48.036C36.2974 48.0195 36.2841 48.0052 36.2683 47.9941C36.2524 47.983 36.2345 47.9753 36.2155 47.9715C36.1966 47.9677 36.1771 47.9678 36.1582 47.972C36.1188 47.972 35.1808 48.1796 34.8622 48.9135C34.8545 48.9304 34.8502 48.9487 34.8497 48.9672C34.8491 48.9858 34.8522 49.0043 34.8589 49.0216C34.8656 49.039 34.8756 49.0548 34.8885 49.0682C34.9014 49.0816 34.9168 49.0923 34.9338 49.0997C34.9475 49.1096 34.9636 49.1158 34.9804 49.1176Z" fill="#263238"/>
<path d="M39.6949 47.9398C39.7192 47.9433 39.744 47.9402 39.7667 47.9307C39.7894 47.9212 39.8091 47.9058 39.8237 47.8861C39.8349 47.8713 39.8431 47.8545 39.8477 47.8365C39.8523 47.8186 39.8533 47.7999 39.8506 47.7816C39.848 47.7633 39.8417 47.7457 39.8322 47.7298C39.8226 47.7139 39.81 47.7001 39.7951 47.6892C39.6207 47.5477 39.4148 47.4505 39.1948 47.4056C38.9748 47.3607 38.7472 47.3696 38.5314 47.4314C38.4962 47.4437 38.4674 47.4695 38.4513 47.5031C38.4352 47.5367 38.4331 47.5753 38.4454 47.6104C38.4578 47.6455 38.4836 47.6743 38.5171 47.6904C38.5507 47.7065 38.5893 47.7087 38.6244 47.6963C38.7964 47.6515 38.9764 47.6479 39.15 47.6858C39.3236 47.7238 39.4857 47.8022 39.6233 47.9147C39.6442 47.9298 39.6691 47.9386 39.6949 47.9398Z" fill="#263238"/>
<path d="M27.9241 140.719H27.9599C28.0252 140.699 28.0842 140.662 28.1312 140.613C28.1783 140.563 28.2117 140.502 28.2284 140.436C28.2439 140.397 28.2488 140.354 28.2425 140.312C28.2362 140.269 28.219 140.23 28.1926 140.196C27.9492 139.899 26.8788 140.025 26.7606 140.039C26.7464 140.039 26.7326 140.044 26.7216 140.054C26.7106 140.063 26.7029 140.075 26.6998 140.089C26.6961 140.103 26.6965 140.117 26.7009 140.13C26.7054 140.144 26.7137 140.155 26.7248 140.164C27.0041 140.397 27.5661 140.791 27.9241 140.719ZM26.9432 140.15C27.3728 140.114 27.9563 140.118 28.0816 140.275C28.092 140.29 28.0975 140.309 28.0975 140.327C28.0975 140.346 28.092 140.364 28.0816 140.379C28.0719 140.424 28.0506 140.465 28.0198 140.499C27.989 140.533 27.9498 140.558 27.9062 140.572C27.7093 140.633 27.3549 140.472 26.9325 140.15H26.9432Z" fill="#DD0031"/>
<path d="M26.8675 140.153C27.2255 140.082 27.8663 139.795 27.9415 139.48C27.9566 139.426 27.9524 139.368 27.9295 139.316C27.9067 139.265 27.8666 139.223 27.8162 139.197C27.7705 139.168 27.7191 139.149 27.6654 139.141C27.6118 139.133 27.557 139.136 27.5047 139.151C27.0859 139.265 26.7028 140.032 26.6849 140.067C26.6789 140.078 26.6758 140.089 26.6758 140.101C26.6758 140.113 26.6789 140.125 26.6849 140.135C26.6915 140.145 26.7006 140.154 26.7112 140.159C26.7218 140.165 26.7337 140.168 26.7458 140.168C26.7867 140.167 26.8274 140.162 26.8675 140.153ZM27.5835 139.283C27.6128 139.276 27.6432 139.275 27.6729 139.281C27.7025 139.286 27.7306 139.298 27.7553 139.316C27.8341 139.366 27.8305 139.412 27.8233 139.444C27.7696 139.645 27.2505 139.931 26.8961 140.007C27.0393 139.759 27.3114 139.355 27.562 139.291L27.5835 139.283Z" fill="#DD0031"/>
<path d="M45.0071 145.484C45.2594 145.505 45.5116 145.441 45.7231 145.301C45.7723 145.257 45.8097 145.201 45.8322 145.139C45.8547 145.076 45.8615 145.009 45.8519 144.943C45.8491 144.905 45.8365 144.867 45.8152 144.835C45.7939 144.802 45.7647 144.775 45.7302 144.757C45.3722 144.557 44.1765 145.165 44.0405 145.233C44.0278 145.241 44.0176 145.252 44.0112 145.266C44.0048 145.279 44.0026 145.294 44.0047 145.309C44.0061 145.323 44.0121 145.336 44.0218 145.346C44.0315 145.357 44.0444 145.364 44.0584 145.366C44.3702 145.435 44.6878 145.474 45.0071 145.484ZM45.5405 144.865C45.5852 144.863 45.6295 144.873 45.6694 144.893C45.6841 144.9 45.6968 144.91 45.7057 144.923C45.7146 144.937 45.7194 144.952 45.7195 144.968C45.7254 145.01 45.721 145.052 45.7066 145.092C45.6923 145.131 45.6684 145.166 45.6372 145.194C45.4546 145.359 44.9641 145.387 44.3018 145.276C44.6884 145.07 45.1073 144.931 45.5405 144.865Z" fill="#DD0031"/>
<path d="M44.0806 145.38H44.1092C44.4672 145.219 45.1832 144.575 45.1152 144.235C45.1152 144.156 45.0472 144.056 44.8503 144.038C44.7798 144.029 44.7082 144.035 44.6404 144.056C44.5725 144.077 44.5099 144.112 44.4565 144.159C44.0985 144.471 44.0125 145.276 44.0125 145.309C44.0105 145.321 44.0122 145.334 44.0173 145.345C44.0224 145.356 44.0307 145.366 44.0412 145.373C44.0534 145.379 44.067 145.381 44.0806 145.38ZM44.7966 144.166H44.8395C44.9684 144.166 44.9756 144.231 44.9791 144.249C45.0114 144.453 44.5352 144.965 44.1736 145.176C44.1999 144.837 44.3327 144.515 44.5531 144.256C44.6201 144.199 44.705 144.167 44.793 144.166H44.7966Z" fill="#DD0031"/>
<path d="M36.1934 49.3753L36.7375 49.1176C36.7375 49.1176 36.5156 49.6116 36.1934 49.3753Z" fill="#263238"/>
<path d="M31.2644 77.6L31.0317 78.7062C30.9923 78.7922 31.0997 78.8709 31.2393 78.8602L43.6762 77.9867C43.7872 77.9867 43.8731 77.9186 43.8731 77.8506L43.9089 76.7587C43.9089 76.6835 43.8123 76.6263 43.6905 76.6334L31.4398 77.4962C31.4042 77.4976 31.3696 77.5079 31.339 77.526C31.3084 77.5441 31.2827 77.5695 31.2644 77.6Z" fill="white"/>
<path d="M33.0476 78.853L32.7182 78.8745C32.6538 78.8745 32.6001 78.8495 32.6037 78.8065L32.6574 77.3745C32.6574 77.3351 32.7147 77.2957 32.7791 77.2921L33.1085 77.2671C33.1729 77.2671 33.223 77.2957 33.223 77.3351L33.1693 78.7671C33.1657 78.8101 33.112 78.8459 33.0476 78.853Z" fill="#263238"/>
<path d="M42.7781 78.1692L42.4487 78.1907C42.3843 78.1907 42.3306 78.1656 42.3342 78.1227L42.3879 76.6907C42.3879 76.6513 42.4451 76.6119 42.5096 76.6083L42.8389 76.5833C42.9034 76.5833 42.9571 76.6083 42.9535 76.6513L42.8998 78.0833C42.8962 78.1262 42.8425 78.162 42.7781 78.1692Z" fill="#263238"/>
<path d="M37.9478 78.5093L37.622 78.5308C37.554 78.5308 37.5039 78.5057 37.5039 78.4627L37.5612 77.0307C37.5612 76.9914 37.6149 76.952 37.6829 76.9484L38.0087 76.9233C38.0767 76.9233 38.1268 76.952 38.1268 76.9914L38.0695 78.4234C38.0516 78.4663 37.9979 78.5021 37.9478 78.5093Z" fill="#263238"/>
<path d="M29.9655 63.9745C30.0873 64.8874 30.2018 65.8397 30.3486 66.7669C30.4954 67.6941 30.6243 68.6321 30.7997 69.545C30.9751 70.4579 31.1577 71.36 31.4083 72.1942C31.5135 72.5691 31.6475 72.9354 31.8092 73.2896C31.845 73.372 31.8773 73.4078 31.9059 73.4651C31.9209 73.4912 31.9377 73.5163 31.956 73.5402C32.0214 73.6115 32.1006 73.6687 32.1887 73.7085C32.5008 73.8526 32.8326 73.9491 33.1732 73.9949C33.5903 74.0585 34.0115 74.092 34.4334 74.0951C35.3436 74.1005 36.2534 74.0514 37.1578 73.9484C38.0814 73.8517 39.0122 73.7121 39.943 73.5438C40.8738 73.3756 41.8118 73.1858 42.7247 73.0068L43.1829 74.4388C42.2557 74.8147 41.332 75.119 40.3905 75.4162C39.449 75.7133 38.4931 75.9496 37.5265 76.1608C36.5281 76.3847 35.5146 76.5355 34.4942 76.6119C33.9532 76.6511 33.41 76.6511 32.8689 76.6119C32.254 76.5695 31.6497 76.4293 31.0789 76.1966C30.7235 76.0464 30.3946 75.8396 30.1052 75.5844C29.9491 75.4417 29.8053 75.286 29.6756 75.119C29.5753 74.9722 29.4608 74.8147 29.3892 74.6823C29.1005 74.1839 28.8607 73.6588 28.6732 73.1142C28.3408 72.1501 28.0694 71.1661 27.8605 70.1679C27.6457 69.1941 27.4667 68.2239 27.3092 67.2538C27.1517 66.2836 27.0264 65.317 26.9512 64.3182L29.9655 63.9745Z" fill="#B55B52"/>
<path d="M28.0819 60.3838C25.3289 61.1571 27.1189 70.9126 27.1189 70.9126L31.3862 69.7456C31.3862 69.7456 32.1416 64.5402 31.5223 63.008C30.8779 61.4149 29.4745 59.99 28.0819 60.3838Z" fill="#DD0031"/>
<path d="M26.926 70.3685C26.9357 70.6273 26.9965 70.8816 27.105 71.1167C27.2303 71.3029 31.0215 70.1608 31.3186 70.0033C31.6158 69.8458 31.5728 69.1978 31.5585 69.0868C31.5442 68.9759 26.8902 70.0534 26.926 70.3685Z" fill="#DD0031"/>
<path opacity="0.1" d="M26.926 70.3685C26.9357 70.6273 26.9965 70.8816 27.105 71.1167C27.2303 71.3029 31.0215 70.1608 31.3186 70.0033C31.6158 69.8458 31.5728 69.1978 31.5585 69.0868C31.5442 68.9759 26.8902 70.0534 26.926 70.3685Z" fill="black"/>
<path d="M101.34 64.8875C96.9641 61.7227 91.5104 60.4256 86.1784 61.2816C80.8464 62.1376 76.0727 65.0765 72.9075 69.452C68.53 66.3074 63.0843 65.0266 57.764 65.8903C52.4438 66.754 47.683 69.6918 44.5251 74.0598C41.3672 78.4277 40.0699 83.8695 40.9175 89.1924C41.7651 94.5152 44.6884 99.2849 49.0468 102.456L82.0472 126.32L105.912 93.3199C109.076 88.9432 110.372 83.489 109.514 78.1569C108.657 72.8248 105.716 68.0516 101.34 64.8875Z" fill="#DD0031"/>
<path opacity="0.2" d="M101.34 64.8875C96.9641 61.7227 91.5104 60.4256 86.1784 61.2816C80.8464 62.1376 76.0727 65.0765 72.9075 69.452C68.53 66.3074 63.0843 65.0266 57.764 65.8903C52.4438 66.754 47.683 69.6918 44.5251 74.0598C41.3672 78.4277 40.0699 83.8695 40.9175 89.1924C41.7651 94.5152 44.6884 99.2849 49.0468 102.456L82.0472 126.32L105.912 93.3199C109.076 88.9432 110.372 83.489 109.514 78.1569C108.657 72.8248 105.716 68.0516 101.34 64.8875Z" fill="white"/>
<path d="M47.3987 73.4473L46.1134 75.6418L43.7363 75.0762L45.1289 72.3768L47.3987 73.4473Z" fill="#B55B52"/>
<path d="M42.2765 73.0319L45.1405 72.3804L43.7479 75.0797C43.7479 75.0797 41.829 75.1298 41.2168 74.0522L41.8039 73.3362C41.9232 73.1851 42.0895 73.078 42.2765 73.0319Z" fill="#B55B52"/>
</svg>
