<svg width="93" height="93" viewBox="0 0 93 93" fill="none" xmlns="http://www.w3.org/2000/svg">
<g clip-path="url(#clip0_189_2059)">
<path d="M62.5491 73.3903C61.381 72.2223 20.742 31.5833 19.6096 30.4511C18.424 29.2654 16.5016 29.2654 15.3158 30.4511C14.1301 31.6369 14.1301 33.5592 15.3158 34.7449L18.2571 37.6862L0.178249 88.9487C-0.668015 91.3483 1.64881 93.669 4.05155 92.822L55.3142 74.7429L58.2555 77.6842C59.441 78.87 61.3635 78.8702 62.5493 77.6842C63.7348 76.4985 63.7348 74.576 62.5491 73.3903ZM8.01513 84.9849L11.8221 74.1902L18.8097 81.1777L8.01513 84.9849ZM25.1584 78.939L14.061 67.8417L17.4198 58.3184L34.6816 75.5803L25.1584 78.939ZM41.0303 73.3412L19.6587 51.9696L23.0174 42.4463L50.5536 69.9827L41.0303 73.3412Z" fill="#DD0031"/>
<path d="M69.8789 23.121C68.6932 21.9353 66.7707 21.9353 65.5851 23.121L46.6308 42.0752C45.445 43.261 45.445 45.1833 46.6308 46.369C47.8163 47.5548 49.7388 47.555 50.9246 46.369L69.8788 27.4148C71.0647 26.2291 71.0647 24.3068 69.8789 23.121Z" fill="#DD0031"/>
<path d="M66.7199 51.0314H56.1081C54.4312 51.0314 53.0718 52.3908 53.0718 54.0677C53.0718 55.7446 54.4312 57.104 56.1081 57.104H66.7199C68.3968 57.104 69.7562 55.7446 69.7562 54.0677C69.7562 52.3908 68.3966 51.0314 66.7199 51.0314Z" fill="#DD0031"/>
<path d="M38.9323 23.2438C37.2554 23.2438 35.896 24.603 35.896 26.2801V36.8919C35.896 38.5688 37.2554 39.9282 38.9323 39.9282C40.6092 39.9282 41.9686 38.5688 41.9686 36.8919V26.2801C41.9686 24.6034 40.6092 23.2438 38.9323 23.2438Z" fill="#DD0031"/>
<path d="M90.3364 47.6267C86.7762 44.0666 81.0149 44.0664 77.4546 47.6267C73.9032 51.1782 73.9032 56.9569 77.4546 60.5083C81.0142 64.0679 86.776 64.0686 90.3362 60.5083C93.8878 56.9569 93.8878 51.1783 90.3364 47.6267ZM86.0426 56.2145C84.8561 57.401 82.9354 57.4013 81.7488 56.2145C80.565 55.0306 80.565 53.1044 81.7488 51.9207C82.9358 50.7339 84.8559 50.7339 86.0426 51.9207C87.2292 53.1075 87.229 55.0277 86.0426 56.2145Z" fill="#DD0031"/>
<path d="M45.3732 2.66358C41.8218 -0.88786 36.0431 -0.888041 32.4916 2.66358C28.932 6.22319 28.9313 11.985 32.4916 15.5454C36.0425 19.0966 41.8216 19.097 45.3732 15.5452C48.933 11.9854 48.9336 6.22373 45.3732 2.66358ZM41.0791 11.2514C39.8953 12.4351 37.9692 12.4351 36.7853 11.2514C35.599 10.0647 35.5988 8.1444 36.7853 6.95756C37.9723 5.77072 39.8924 5.77072 41.0791 6.95756C42.2659 8.14422 42.2659 10.0643 41.0791 11.2514Z" fill="#DD0031"/>
<path d="M77.5782 39.9288C79.2551 39.9288 80.6145 38.5694 80.6145 36.8925C80.6145 35.2156 79.2551 33.8562 77.5782 33.8562C75.9013 33.8562 74.5419 35.2156 74.5419 36.8925C74.5419 38.5694 75.9013 39.9288 77.5782 39.9288Z" fill="#DD0031"/>
<path d="M56.1077 18.4585C57.7846 18.4585 59.144 17.0991 59.144 15.4222C59.144 13.7453 57.7846 12.3859 56.1077 12.3859C54.4308 12.3859 53.0714 13.7453 53.0714 15.4222C53.0714 17.0991 54.4308 18.4585 56.1077 18.4585Z" fill="#DD0031"/>
<path d="M77.5782 74.2788C79.2551 74.2788 80.6145 72.9194 80.6145 71.2425C80.6145 69.5656 79.2551 68.2062 77.5782 68.2062C75.9013 68.2062 74.5419 69.5656 74.5419 71.2425C74.5419 72.9194 75.9013 74.2788 77.5782 74.2788Z" fill="#DD0031"/>
<path d="M21.7557 18.4585C23.4326 18.4585 24.792 17.0991 24.792 15.4222C24.792 13.7453 23.4326 12.3859 21.7557 12.3859C20.0788 12.3859 18.7194 13.7453 18.7194 15.4222C18.7194 17.0991 20.0788 18.4585 21.7557 18.4585Z" fill="#DD0031"/>
<path d="M80.6137 0.241402C78.9368 0.241402 77.5774 1.6008 77.5774 3.27771V6.31383C77.5774 7.99074 78.9368 9.35013 80.6137 9.35013C82.2906 9.35013 83.65 7.99074 83.65 6.31383V3.27752C83.65 1.6008 82.2904 0.241402 80.6137 0.241402Z" fill="#DD0031"/>
<path d="M80.6137 15.4226C78.9368 15.4226 77.5774 16.782 77.5774 18.4589V21.4952C77.5774 23.1721 78.9368 24.5315 80.6137 24.5315C82.2906 24.5315 83.65 23.1721 83.65 21.4952V18.4589C83.65 16.782 82.2904 15.4226 80.6137 15.4226Z" fill="#DD0031"/>
<path d="M74.5414 9.34995H71.505C69.8281 9.34995 68.4688 10.7094 68.4688 12.3863C68.4688 14.0632 69.8281 15.4226 71.505 15.4226H74.5414C76.2183 15.4226 77.5777 14.0632 77.5777 12.3863C77.5777 10.7094 76.2181 9.34995 74.5414 9.34995Z" fill="#DD0031"/>
<path d="M89.7225 9.34995H86.6862C85.0093 9.34995 83.6499 10.7094 83.6499 12.3863C83.6499 14.0632 85.0093 15.4226 86.6862 15.4226H89.7225C91.3994 15.4226 92.7588 14.0632 92.7588 12.3863C92.7588 10.7094 91.3992 9.34995 89.7225 9.34995Z" fill="#DD0031"/>
</g>
<defs>
<clipPath id="clip0_189_2059">
<rect width="93" height="93" fill="white"/>
</clipPath>
</defs>
</svg>
