<svg width="93" height="93" viewBox="0 0 93 93" fill="none" xmlns="http://www.w3.org/2000/svg">
<path d="M46.5 20.6925C50.5876 20.6925 53.9013 17.3789 53.9013 13.2913C53.9013 9.20367 50.5876 5.89001 46.5 5.89001C42.4124 5.89001 39.0988 9.20367 39.0988 13.2913C39.0988 17.3789 42.4124 20.6925 46.5 20.6925Z" stroke="#DD0031" stroke-width="6" stroke-miterlimit="10"/>
<path d="M35.4175 31.775C35.4175 28.8357 36.5851 26.0169 38.6635 23.9385C40.7418 21.8601 43.5607 20.6925 46.5 20.6925C49.4392 20.6925 52.2581 21.8601 54.3365 23.9385C56.4149 26.0169 57.5825 28.8357 57.5825 31.775" stroke="#DD0031" stroke-width="6" stroke-miterlimit="10"/>
<path d="M76.105 79.8637C80.1926 79.8637 83.5062 76.5501 83.5062 72.4625C83.5062 68.3749 80.1926 65.0612 76.105 65.0612C72.0174 65.0612 68.7037 68.3749 68.7037 72.4625C68.7037 76.5501 72.0174 79.8637 76.105 79.8637Z" stroke="#DD0031" stroke-width="6" stroke-miterlimit="10"/>
<path d="M64.9838 90.985C64.9838 88.0355 66.1555 85.2067 68.2411 83.1211C70.3267 81.0355 73.1555 79.8638 76.105 79.8638C79.0478 79.874 81.8666 81.0502 83.9439 83.1348C86.0212 85.2193 87.1875 88.0422 87.1875 90.985" stroke="#DD0031" stroke-width="6" stroke-miterlimit="10"/>
<path d="M16.895 79.8637C20.9826 79.8637 24.2963 76.5501 24.2963 72.4625C24.2963 68.3749 20.9826 65.0612 16.895 65.0612C12.8074 65.0612 9.49377 68.3749 9.49377 72.4625C9.49377 76.5501 12.8074 79.8637 16.895 79.8637Z" stroke="#DD0031" stroke-width="6" stroke-miterlimit="10"/>
<path d="M5.8125 90.985C5.81248 88.0422 6.97886 85.2193 9.05613 83.1348C11.1334 81.0502 13.9522 79.874 16.895 79.8638C19.8445 79.8638 22.6733 81.0355 24.7589 83.1211C26.8446 85.2067 28.0163 88.0355 28.0163 90.985" stroke="#DD0031" stroke-width="6" stroke-miterlimit="10"/>
<path d="M46.5 35.495V53.9787" stroke="#DD0031" stroke-width="6" stroke-miterlimit="10"/>
<path d="M31.6975 65.1L46.5 53.9788L61.3025 65.1" stroke="#DD0031" stroke-width="6" stroke-miterlimit="10"/>
</svg>
