<svg width="93" height="93" viewBox="0 0 93 93" fill="none" xmlns="http://www.w3.org/2000/svg">
<path d="M22.0876 34.875C28.1907 40.9781 35.7469 38.6531 41.5594 32.8406C47.3719 27.0281 49.6969 19.1812 43.5938 13.3687C37.4907 7.55624 27.9001 7.26562 21.7969 13.3687C15.6938 19.4719 15.9844 28.7719 22.0876 34.875Z" stroke="#DD0031" stroke-width="6" stroke-miterlimit="10" stroke-linecap="round" stroke-linejoin="round"/>
<path d="M19.7625 31.9688C24.7031 32.8406 29.9343 30.225 34.2937 25.8656C38.6531 21.5063 41.2687 16.275 40.3968 11.3344" stroke="#DD0031" stroke-width="6" stroke-miterlimit="10" stroke-linecap="round" stroke-linejoin="round"/>
<path d="M47.3718 21.2156C61.3219 35.7469 74.4 54.0562 76.725 62.775L71.7844 67.7156C63.0656 65.6812 44.7562 52.3125 30.225 38.3625" stroke="#DD0031" stroke-width="6" stroke-miterlimit="10" stroke-linecap="round" stroke-linejoin="round"/>
<path d="M49.1156 40.6875L51.7312 43.3031" stroke="#DD0031" stroke-width="6" stroke-miterlimit="10" stroke-linecap="round" stroke-linejoin="round"/>
<path d="M24.4125 62.4844C28.7719 56.6719 37.4906 55.8 43.0125 60.45L68.0062 82.2469C71.2031 84.8625 75.8531 84.8625 79.05 81.9563C82.2469 78.7594 82.2469 73.8188 79.05 70.6219L73.8187 65.3906" stroke="#DD0031" stroke-width="6" stroke-miterlimit="10" stroke-linecap="round" stroke-linejoin="round"/>
</svg>
