<svg width="1512" height="425" viewBox="0 0 1512 425" fill="none" xmlns="http://www.w3.org/2000/svg">
<path d="M146.869 646.853C146.352 654.092 137.458 659.813 126.546 659.813C115.634 659.813 106.735 654.077 106.224 646.853H146.869Z" fill="#F8FAFC"/>
<path d="M126.544 646.853H146.866C146.349 654.065 137.456 659.813 126.544 659.813V646.853Z" fill="#F8FAFC"/>
<path d="M136.338 663.849C135.327 674.053 117.991 671.297 117.692 671.667C117.393 672.038 132.127 674.54 131.884 674.678C117.514 683.012 112.391 672.547 112.25 673.567C111.375 679.583 101.002 680.241 101.002 680.241C101.002 680.241 109.25 672.959 106.608 674.001C91.7246 679.879 84.9928 669.553 86.4577 669.962C92.1028 671.517 106.498 669.487 105.592 669.383C92.5572 667.767 91.2729 657.471 91.2729 657.471C101.629 658.849 107.579 662.992 110.438 665.662C109.577 660.789 108.349 653.032 107.717 645.344L113.001 644.565L113.261 663.366C113.3 663.186 113.34 663.004 113.382 662.818C114.937 656.159 123.941 651.483 124.308 652.03C131.198 662.726 117.173 667.182 117.557 667.199C121.982 667.367 136.338 663.71 136.338 663.849Z" fill="#F8FAFC"/>
<path d="M751.999 646.627C751.152 658.412 736.644 667.764 718.834 667.764C701.024 667.764 686.513 658.403 685.686 646.627H751.999Z" fill="#F8FAFC"/>
<path d="M718.834 646.627H751.999C751.152 658.391 736.644 667.764 718.834 667.764V646.627Z" fill="#F8FAFC"/>
<path d="M1259.01 646.711C1258.43 654.775 1248.49 661.188 1236.3 661.188C1224.11 661.188 1214.18 654.778 1213.62 646.711H1259.01Z" fill="#F8FAFC"/>
<path d="M1236.3 646.711H1259.01C1258.43 654.763 1248.49 661.188 1236.3 661.188V646.711Z" fill="#F8FAFC"/>
<path d="M871.181 646.123C870.617 654.19 860.673 660.601 848.48 660.601C836.286 660.601 826.356 654.193 825.792 646.123H871.181Z" fill="#F8FAFC"/>
<path d="M848.468 646.123H871.17C870.606 654.175 860.662 660.601 848.468 660.601V646.123Z" fill="#F8FAFC"/>
<path d="M272.532 646.751C272.094 652.832 264.6 657.679 255.396 657.679C246.192 657.679 238.695 652.841 238.269 646.751H272.532Z" fill="#F8FAFC"/>
<path d="M255.396 646.751H272.532C272.094 652.832 264.6 657.679 255.396 657.679V646.751Z" fill="#F8FAFC"/>
<path d="M690.865 654.361C687.746 654.361 684.924 653.556 682.844 652.209C680.769 653.556 677.966 654.361 674.842 654.361C671.779 654.361 668.985 653.573 666.939 652.262C664.87 653.573 662.101 654.361 659.035 654.361C652.826 654.361 647.802 651.109 647.5 647.018H702.415C702.108 651.109 697.052 654.361 690.865 654.361Z" fill="#F8FAFC"/>
<path d="M482.829 651.561C481.144 651.597 479.482 651.151 478.031 650.272C476.577 651.112 474.937 651.555 473.269 651.561C471.6 651.567 469.958 651.134 468.499 650.304C467.064 651.159 465.427 651.593 463.768 651.561C460.057 651.561 457.042 649.615 456.861 647.166H489.741C489.561 649.615 486.535 651.561 482.829 651.561Z" fill="#F8FAFC"/>
<path d="M217.345 651.601C215.66 651.635 213.999 651.189 212.547 650.313C211.093 651.153 209.454 651.596 207.786 651.601C206.118 651.606 204.476 651.173 203.018 650.342C201.583 651.198 199.947 651.634 198.287 651.601C194.576 651.601 191.561 649.653 191.378 647.203H224.26C224.074 649.653 221.046 651.601 217.345 651.601Z" fill="#F8FAFC"/>
<path d="M58.3394 651.601C56.6546 651.635 54.9936 651.189 53.541 650.313C52.0875 651.153 50.4484 651.596 48.7802 651.601C47.1121 651.606 45.4704 651.173 44.0121 650.342C42.5765 651.199 40.9392 651.634 39.2787 651.601C35.567 651.601 32.5525 649.653 32.3719 647.203H65.2546C65.0683 649.653 62.0426 651.601 58.3394 651.601Z" fill="#F8FAFC"/>
<path d="M1268.54 651.622C1267.07 650.777 1265.42 650.333 1263.74 650.333C1262.06 650.333 1260.41 650.777 1258.94 651.622C1257.49 650.797 1255.86 650.365 1254.21 650.365C1252.55 650.365 1250.92 650.797 1249.47 651.622C1245.76 651.622 1242.75 649.676 1242.56 647.223H1275.44C1275.27 649.676 1272.24 651.622 1268.54 651.622Z" fill="#F8FAFC"/>
<path d="M1474.62 651.622C1473.15 650.776 1471.5 650.332 1469.82 650.332C1468.14 650.332 1466.48 650.776 1465.02 651.622C1463.57 650.797 1461.94 650.365 1460.28 650.365C1458.63 650.365 1457 650.797 1455.55 651.622C1451.84 651.622 1448.82 649.676 1448.64 647.223H1481.52C1481.35 649.676 1478.32 651.622 1474.62 651.622Z" fill="#F8FAFC"/>
<path d="M1414.54 653.947C1411.86 653.947 1409.43 653.255 1407.64 652.097C1405.86 653.255 1403.44 653.947 1400.75 653.947C1398.12 653.947 1395.71 653.269 1393.94 652.14C1392.17 653.269 1389.78 653.947 1387.15 653.947C1381.81 653.947 1377.48 651.15 1377.22 647.629H1424.47C1424.21 651.15 1419.87 653.947 1414.54 653.947Z" fill="#F8FAFC"/>
<path d="M346.74 652.742C344.422 652.742 342.328 652.146 340.784 651.147C339.243 652.146 337.163 652.742 334.84 652.742C332.582 652.742 330.493 652.163 328.966 651.184C327.185 652.244 325.156 652.783 323.098 652.742C318.497 652.742 314.757 650.327 314.531 647.29H355.306C355.086 650.327 351.332 652.742 346.74 652.742Z" fill="#F8FAFC"/>
<path d="M778.334 717.526C774.001 715.884 787.185 727 787.185 727C787.185 727 769.908 725.691 768.934 716.695C768.782 715.175 759.374 730.614 736.026 717.717C735.64 717.5 760.424 714.242 759.995 713.684C759.566 713.125 730.327 716.695 729.475 701.462C729.455 701.242 753.156 707.157 760.577 707.03C761.215 707.01 738.146 699.924 750.497 684.19C751.118 683.44 764.099 689.813 767.39 698.844L765.039 646.676L777.069 647.009C774.179 669.122 772.378 693.545 771.579 705.788C776.115 701.974 786.578 695.216 805.275 693.369C805.275 693.369 802.303 708.683 780.386 710.666C778.884 710.808 802.794 714.286 812.314 712.155C814.798 711.587 802.712 726.768 778.334 717.526Z" fill="#F8FAFC"/>
<path d="M764.173 652.47C761.858 652.47 759.764 651.874 758.217 650.872C756.676 651.874 754.596 652.47 752.276 652.47C750.018 652.47 747.926 651.891 746.399 650.912C744.619 651.971 742.591 652.51 740.534 652.47C735.93 652.47 732.193 650.055 731.967 647.018H772.742C772.519 650.055 768.768 652.47 764.173 652.47Z" fill="#F8FAFC"/>
<path d="M954.687 653.223C952.039 653.223 949.637 652.519 947.882 651.378C946.117 652.519 943.724 653.223 941.082 653.223C938.44 653.223 936.109 652.545 934.367 651.431C932.609 652.545 930.252 653.223 927.647 653.223C922.391 653.223 918.109 650.458 917.864 646.971H964.475C964.218 650.469 959.942 653.223 954.687 653.223Z" fill="#F8FAFC"/>
<path d="M977.459 650.107C976.287 650.133 975.13 649.823 974.12 649.213C970.797 648.652 967.389 648.96 964.213 650.107C961.633 650.107 959.539 648.755 959.414 647.053H982.257C982.133 648.755 980.03 650.107 977.459 650.107Z" fill="#F8FAFC"/>
<path d="M990.42 694.802C990.42 694.802 992.241 667.318 994.914 646.856L986.991 646.639L988.419 694.753L990.42 694.802Z" fill="#F8FAFC"/>
<path d="M1012.94 681.413C1012.94 681.413 1010.98 691.504 996.542 692.81C995.552 692.906 1011.3 695.196 1017.58 693.792C1019.21 693.421 1011.25 703.422 995.188 697.333C992.334 696.253 1001.02 703.575 1001.02 703.575C1001.02 703.575 989.638 702.707 988.995 696.786C988.896 695.787 982.698 705.956 967.315 697.46C967.058 697.315 983.403 695.173 983.121 694.802C982.839 694.432 963.572 696.786 963.013 686.75C962.999 686.605 978.613 690.514 983.505 690.418C983.923 690.418 968.726 685.736 976.863 675.362C977.298 674.835 986.968 679.63 988.332 686.191C988.697 687.884 988.901 689.609 988.941 691.342C988.941 691.342 995.495 683.139 1012.94 681.413Z" fill="#F8FAFC"/>
<path d="M985.673 669.794C984.349 683.194 961.562 679.572 961.187 680.052C960.812 680.533 980.143 683.817 979.816 684.008C960.944 694.953 954.218 681.208 954.032 682.546C952.88 690.447 939.256 691.313 939.256 691.313C939.256 691.313 950.089 681.758 946.617 683.119C927.074 690.835 918.231 677.276 920.156 677.814C927.548 679.841 946.462 677.189 945.276 677.044C928.158 674.922 926.47 661.408 926.47 661.408C940.072 663.221 947.887 668.662 951.641 672.168C950.512 665.769 948.898 655.58 948.068 645.483L955.008 644.461L955.35 669.151C955.401 668.916 955.454 668.676 955.508 668.433C957.552 659.703 969.375 653.544 969.861 654.265C978.907 668.311 960.487 674.166 960.992 674.189C966.826 674.412 985.684 669.611 985.673 669.794Z" fill="#F8FAFC"/>
<path d="M1276.63 309.765H1208.18V641.201H1276.63V309.765Z" fill="#F8FAFC"/>
<path d="M1038.97 623.116H1042.19V387.179H1050.21V385.578H1057.78V387.179H1095.42V396.575H1103.67V623.116H1109.63V637.283H1103.67V637.888H1042.19V637.283H1038.97V623.116Z" fill="#F8FAFC"/>
<path d="M564.613 588.723V245.497H554.4V239.214H553.986V245.497H552.619V231.356H552.202V245.497H548.081V237.251H547.657V245.497H541.837V244.4H540.776V243.308L540.737 236.576H539.509V233.956H510.211V236.576H508.991L508.952 243.308V244.4H507.876V245.497H496.01V238.762H495.587V245.497H485.107V588.723H425.847V636.681H623.883V588.723H564.613Z" fill="#F8FAFC"/>
<path d="M361.239 463.872H366.859V453.391H372.222V440.025H377.33V428.628H382.058V421.288H388.189V416.965L400.45 407.63H418.842L431.103 416.965V421.288H437.233V428.628H441.961V577.08H468.527V628.31H466.261V637.251H464.217V628.31H455.532V637.251H363.091V628.31H361.239V463.872Z" fill="#F8FAFC"/>
<path d="M1447.75 379.243V370.927H1438.55C1438.55 370.75 1438.56 370.579 1438.56 370.403C1438.56 351.521 1422.69 336.216 1403.12 336.216C1383.55 336.216 1367.68 351.513 1367.68 370.403C1367.68 370.579 1367.68 370.75 1367.68 370.927H1358.5V379.243H1346.74V637.535H1459.53V379.243H1447.75Z" fill="#F8FAFC"/>
<path d="M1416.59 591.117V582.335H1388.92V590.585L1334.9 606.105L1323.29 540.29L1334.19 335.915L1297.35 318.883L1297.49 333.254H1285.28L1285.42 318.883L1248.58 335.915L1259.48 540.29L1241.84 640.35H1423.33L1416.59 591.117Z" fill="#F8FAFC"/>
<path d="M1466.23 627.453H1462.74C1461.92 628.294 1460.94 628.958 1459.86 629.405C1458.78 629.853 1457.62 630.075 1456.46 630.059C1451.93 630.059 1448.26 626.807 1448.26 622.794C1448.26 618.781 1451.92 615.532 1456.46 615.532C1457.64 615.515 1458.82 615.744 1459.91 616.206C1461.01 616.668 1462 617.353 1462.83 618.219H1463.68L1466.23 610.905H1462.6V606.078L1458.77 606.773L1457.1 601.851C1457.1 601.851 1456.07 599.978 1455.22 599.61C1454.37 599.242 1450.06 599.61 1450.06 599.61L1449.99 599.74L1448 597.986V597.803L1447.28 596.607C1447.27 595.853 1446.98 595.131 1446.48 594.58C1445.82 593.828 1445.18 594.801 1444.93 595.27L1420.6 573.785L1420.26 574.269L1425.84 579.231C1425.53 581.548 1422.75 598.898 1422.75 598.898L1424.83 598.498C1424.74 598.135 1424.74 597.755 1424.83 597.392C1424.97 596.633 1430.95 589.528 1430.95 589.528L1431.76 590.081L1429.54 593.807C1429.54 593.807 1429.26 593.518 1428.33 593.807C1427.4 594.097 1428.33 595.808 1428.33 595.808V602.152L1430.02 606.637L1429 611.033L1428.39 612.327L1381.99 620.776V618.674H1378.54V613.523H1376.42C1373.52 604.868 1351.2 536.769 1349.14 483.084H1350.35V480.188H1352.38V476.054H1350.1V473.158H1347.06L1343.39 445.9V443.937H1343.67V441.661H1339.71V443.937H1339.99V445.906L1336.32 473.164H1333.27V476.059H1330.99V480.194H1333.27V483.09H1334.23C1332.18 536.775 1309.86 604.874 1306.95 613.529H1304.83V618.68H1301.4V620.782L1261.54 613.523C1261.48 613.395 1259.2 608.829 1258.67 608.285C1258.14 607.74 1257.69 606.171 1257.15 606.446C1256.61 606.721 1254.91 602.682 1254.91 602.392C1254.91 602.103 1252.31 600.366 1252.31 600.366V601.562L1251.77 601.286L1246.66 597.146L1245.76 595.032H1241.28C1241.28 595.032 1241.37 593.376 1241.28 593.101C1241.19 592.826 1238.05 589.696 1238.05 589.696L1239.84 584.637L1237.24 589.603L1234.99 588.04C1234.99 588.04 1231.23 604.472 1230.94 607.943L1228.94 607.581C1227.66 606.927 1226.27 606.133 1226.47 605.884C1226.83 605.424 1225.75 601.379 1226.29 600.551C1226.83 599.723 1228.27 598.709 1228.27 598.709C1228.27 598.709 1229.7 592.455 1229.25 591.812C1228.93 591.38 1228.53 591.007 1228.08 590.709C1228.08 590.709 1229.25 589.974 1228.89 589.421C1228.53 588.868 1227.82 587.582 1226.74 588.96C1225.67 590.339 1226.74 590.799 1226.74 590.799L1224.95 595.95L1224.59 603.678V605.517L1223.85 606.652L1220.75 606.09V610.917H1217.12L1219.67 618.231H1220.52C1221.35 617.364 1222.34 616.678 1223.43 616.216C1224.53 615.754 1225.7 615.526 1226.89 615.544C1231.42 615.544 1235.09 618.795 1235.09 622.806C1235.09 626.816 1231.42 630.071 1226.89 630.071C1225.72 630.087 1224.57 629.864 1223.49 629.417C1222.41 628.969 1221.43 628.306 1220.6 627.465H1217.11L1212.94 630.777V636.021H1470.36V630.777L1466.23 627.453ZM1456.43 604.868L1456.66 605.589L1456.37 605.343L1456.43 604.868ZM1456.23 606.562L1456.83 607.106L1456.15 607.231L1456.23 606.562ZM1339.05 596.697L1338.33 597.036C1336.85 597.725 1337.25 599.656 1337.25 600.348C1337.25 601.04 1336.85 604.625 1336.31 604.761C1335.86 604.88 1330.1 615.304 1328.26 618.639H1320.98V613.488H1318.81C1318.6 611.172 1318.49 608.818 1318.49 606.406C1318.49 589.345 1327.37 574.633 1334.66 567.835C1336.24 571.46 1340.06 581.916 1339.05 596.717V596.697ZM1364.57 613.491H1362.4V618.642H1355.06C1353.73 615.518 1350.67 608.957 1350.56 608.629C1350.43 608.215 1350.56 605.592 1350.56 605.178C1350.56 604.764 1349.41 604.628 1349.41 604.628L1348.82 601.868C1348.82 601.868 1350.16 602.158 1348.82 598.006C1348.12 595.872 1346.07 595.342 1344.24 595.33C1343.56 581.449 1347.09 571.605 1348.66 567.982C1355.88 574.845 1364.89 589.473 1364.89 606.409C1364.89 608.838 1364.78 611.204 1364.57 613.508V613.491ZM1455.4 602.847L1455.33 604.422L1454.05 603.296L1455.4 602.847ZM1453.4 604.005L1455.27 605.696L1455.2 607.402L1452.84 607.833L1453.4 604.005ZM1446.39 598.643L1447.34 598.547L1449.54 600.525L1448.99 601.506L1450.47 603.898L1451.81 603.53L1451.02 608.163L1450.02 608.346L1446.39 602.919V598.643ZM1429.74 596.596L1430.27 594.528L1432.83 589.076L1431.35 589.146L1433.71 586.54C1431.65 586.54 1428.3 582.107 1426.73 580.022L1441.1 592.817L1440.7 593.37L1437.67 594.679C1437.25 594.692 1436.85 594.544 1436.53 594.265C1435.92 593.784 1435.72 594.059 1435.72 594.059L1434.03 594.748L1431.27 597.302L1430.26 596.474L1429.74 596.596ZM1431.01 611.809L1431.75 607.219L1431.92 607.248L1432.69 611.502L1431.01 611.809ZM1433.15 605.357L1432.51 605.178L1430.48 597.563L1431.52 598.46L1434.11 595.009H1435.05L1433.3 605.357H1433.15ZM1434.59 611.148L1433.66 607.529L1434.68 607.697L1435.33 611.012L1434.59 611.148ZM1436.37 610.824L1435.66 607.859L1436.82 608.053L1437.35 610.645L1436.37 610.824ZM1442.76 605.627L1442.18 609.764L1439.64 610.228L1438.42 608.152L1438.48 607.283L1436.87 603.49L1437.81 602.937L1437.88 599.144L1439.25 598.591C1439.25 598.591 1441.51 597.661 1441.68 597.488C1441.84 597.314 1443.22 595.171 1443.22 595.171L1442.92 595.223L1442.18 595.843C1442.18 595.843 1440.77 597.224 1440.3 597.36C1439.82 597.496 1437.67 596.879 1437.67 596.879C1437.67 596.879 1437.27 595.912 1437.54 595.568C1437.81 595.223 1439.89 594.74 1439.89 594.465C1439.89 594.19 1441.51 593.292 1441.51 593.292L1444.19 595.707L1443.3 596.028L1442.76 605.627ZM1443.97 609.44L1444.73 604.474L1447.96 608.713L1443.97 609.44Z" fill="#F8FAFC"/>
<path d="M1390 635.343C1389.65 628.165 1386.62 621.4 1381.55 616.446C1376.47 611.492 1369.73 608.73 1362.73 608.73C1355.72 608.73 1348.99 611.492 1343.91 616.446C1338.83 621.4 1335.81 628.165 1335.46 635.343H1390Z" fill="#F8FAFC"/>
<path d="M1041.86 561.572V548.183H1027.62V309.635H1023.47V285.162H1001.63V253.312H984.033V269.987H973.691V260.183H963.095C965.004 257.169 966.003 253.643 965.966 250.049C965.966 241.394 960.563 234.376 953.899 234.376C947.235 234.376 941.833 241.394 941.833 250.049C941.795 253.643 942.794 257.169 944.703 260.183H937.873V255.446H935.138V77.9524H934.802L928.564 59.8295H926.159L919.921 77.9524H919.597V180.32H907.906V255.446H905.173V260.183H904.138V548.183H889.901V561.572H893.169V568.266H889.901V581.655H893.169V588.364H889.901V601.753H893.169V608.447H889.901V621.836H893.169V628.53H889.901V641.919H1041.86V628.53H1038.59V621.836H1041.86V608.447H1038.59V601.753H1041.86V588.364H1038.59V581.669H1041.86V568.281H1038.59V561.586L1041.86 561.572ZM923.461 245.309L929.301 252.325H923.461V245.309ZM923.461 235.021L929.301 242.037H923.461V235.021ZM923.461 224.736L929.301 231.752H923.461V224.736ZM923.461 214.449L929.301 221.465H923.461V214.449ZM923.461 204.161L929.301 211.177H923.461V204.161ZM923.461 193.876L929.301 200.892H923.461V193.876ZM923.461 183.589L929.301 190.604H923.461V183.589ZM919.597 190.604H914.598L919.597 184.599V190.604ZM919.597 200.892H914.598L919.597 194.887V200.892ZM919.597 211.177H914.598L919.597 205.172V211.177ZM919.597 221.465H914.598L919.597 215.459V221.465ZM919.597 231.752H914.598L919.597 225.744V231.752ZM919.597 242.037H914.598L919.597 236.032V242.037ZM919.597 252.325H914.598L919.597 246.319V252.325ZM931.285 255.446H925.358L924.389 254.288H931.293L931.285 255.446ZM931.285 252.293L924.395 243.997H931.299L931.285 252.293ZM931.285 242.008L924.395 233.71H931.299L931.285 242.008ZM931.285 231.72L924.395 223.425H931.299L931.285 231.72ZM931.285 221.436L924.395 213.137H931.299L931.285 221.436ZM931.285 211.148L924.395 202.849H931.299L931.285 211.148ZM931.285 200.86L924.395 192.565H931.299L931.285 200.86ZM931.285 190.575L924.395 182.277H931.299L931.285 190.575ZM931.285 180.288L925.197 172.971H931.285V180.288ZM923.461 81.2156L929.707 88.7208H923.461V81.2156ZM923.461 91.9898L929.301 99.0055H923.461V91.9898ZM923.461 102.277L929.301 109.293H923.461V102.277ZM923.461 112.565L929.301 119.584H923.461V112.565ZM923.461 122.361L929.707 129.866H923.461V122.361ZM923.461 132.648L929.707 140.142H923.461V132.648ZM923.461 142.933L929.707 150.438H923.461V142.933ZM923.461 153.221L929.707 160.726H923.461V153.221ZM923.461 163.506L929.284 170.504H923.461V163.506ZM931.285 170.492L924.793 162.675H931.285V170.492ZM931.285 160.205L924.793 152.387H931.285V160.205ZM931.285 149.92L924.793 142.102H931.285V149.92ZM931.285 139.632L924.793 131.814H931.285V139.632ZM931.285 129.344L924.793 121.527H931.285V129.344ZM931.285 119.549L924.395 111.253H931.299L931.285 119.549ZM931.285 109.261L924.395 100.966H931.299L931.285 109.261ZM931.285 98.9766L924.395 90.6781H931.299L931.285 98.9766ZM931.285 88.1996L924.395 79.9156H931.299L931.285 88.1996ZM927.373 63.0088L932.513 77.9379H922.236L927.373 63.0088ZM923.461 173.298L929.301 180.314H923.461V173.298ZM911.77 182.274H919.518L912.585 190.602H911.77V182.274ZM911.77 192.562H919.518L912.585 200.889H911.77V192.562ZM911.77 202.847H919.518L912.585 211.174H911.77V202.847ZM911.77 213.134H919.518L912.585 221.462H911.77V213.134ZM911.77 223.422H919.518L912.585 231.749H911.77V223.422ZM911.77 233.707H919.518L912.585 242.034H911.77V233.707ZM911.77 243.994H919.518L912.585 252.322H911.77V243.994ZM911.77 254.279H919.518L918.55 255.437H911.775L911.77 254.279Z" fill="#F8FAFC"/>
<path d="M1233.6 242.08H1242.35V204.106H1207.16V182.068H1190.74V178.617H1151.4V182.068H1134.99V204.106H1099.8V242.08H1108.54V262.792H1099.8V638.265H1116.81V639.061H1118.19V638.265H1124.9V640.39H1217.25V638.265H1217.25V640.39H1221.82V638.265H1223.93V639.061H1225.31V638.265H1242.35V262.792H1233.6V242.08Z" fill="#F8FAFC"/>
<path d="M1019.26 581.087V568.365H1018.34V432.801H1015.73V424.158H985.898V430.56H978.825V426.963H968.266V430.56H965.87V424.158H936.044V430.56H933.221V458.889H929.978V404.164H901.665V401.445H889.909V406.078H846.586V411.84H842.885V581.09H841.849V593.831H842.885V599.112H841.849V636.545H931.003V599.095H929.97V538.113H933.213V599.095H932.343V636.545H1019V599.095H1018.34V581.087H1019.26ZM929.97 527.559V469.452H933.213V527.559H929.97Z" fill="#F8FAFC"/>
<path d="M1026.48 641.198C1024.88 606.823 997.242 579.449 963.259 579.449C929.275 579.449 901.648 606.823 900.034 641.198H1026.48Z" fill="#F8FAFC"/>
<path d="M944.02 627.884H947.232V468.105H955.254V467.023H962.827V468.105H1000.46V474.467H1008.71V627.884H1014.67V637.48H1008.71V637.888H947.232V637.48H944.02V627.884Z" fill="#F8FAFC"/>
<path d="M1239.79 636.637C1239.3 626.356 1234.97 616.663 1227.71 609.564C1220.44 602.465 1210.79 598.506 1200.76 598.506C1190.72 598.506 1181.07 602.465 1173.81 609.564C1166.54 616.663 1162.22 626.356 1161.73 636.637H1239.79Z" fill="#F8FAFC"/>
<path d="M1061.11 337.8V337.765H1049.28V326.015H1049.98V324.136H1049.95V324.101H1042.85V308.283H1042.82V308.248H1042.39V282.418H1042.36V282.383H1036.14V308.248H997.996V282.418H997.968V282.383H991.747V324.101H984.23V325.98H984.259V326.015H985.393V337.765H972.999V339.641H973.028V339.676H973.536V638.253H973.567V638.288H1061.14V337.8H1061.11Z" fill="#F8FAFC"/>
<path d="M651.076 609.73V598.324H635.222V373.672H617.629V338.031H532.258V373.672H530.519V598.324H499.454V609.73H493.081V640.613H660.489V609.73H651.076Z" fill="#F8FAFC"/>
<path d="M142.457 419.505H86.6863V411.832H82.7573V419.505H73.0759V422.753H67.3151V643.711H136.696V637.573H142.457V419.505Z" fill="#F8FAFC"/>
<path d="M751.579 418.94V414.834H675.765V633.783H686.677V637.888H762.493V418.94H751.579Z" fill="#F8FAFC"/>
<path d="M849.981 533.254V528.511H848.494V518.788H826.735V509.302H828.29L829.326 503.254H823.367V499.342H824.708L825.786 493.293H823.379L789.09 475.564L754.802 493.293H752.397L753.472 499.342H754.813V503.254H748.855L749.893 509.302H751.446V518.788H729.687V528.511H728.199V533.254H729.687V539.896H728.199V544.639H729.687V637.274H848.494V544.639H849.981V539.896H848.494V533.254H849.981Z" fill="#F8FAFC"/>
<path d="M236.606 281.479V277.562H211.677V281.479H208.248V639.429H310.676V281.479H236.606Z" fill="#F8FAFC"/>
<path d="M248.241 610.488V600.12H235.957V395.932H222.33V363.541H156.192V395.932H154.843V526.867H130.777V537.235H125.841V638.557H255.534V610.488H248.241Z" fill="#F8FAFC"/>
<path d="M264.654 631.692V612.99H265.142V611.956H264.654V609.727H265.142V608.693H262.814V566.494H263.096V565.461H262.266V559.959H262.591V558.925H261.798V511.017H262.292V509.983H262.009V509.169H261.812V507.756H262.306V506.711H261.812V502.854H262.136V502.038H262.306V500.187H261.377V497.402C261.371 496.876 261.26 496.356 261.05 495.876C260.971 495.727 260.884 495.583 260.787 495.445C260.625 495.145 260.427 494.868 260.197 494.619C260.049 494.482 259.891 494.355 259.726 494.24C259.481 494.042 259.215 493.873 258.933 493.736C258.732 493.645 258.526 493.569 258.315 493.508C258.161 493.442 258.003 493.385 257.843 493.337V492.303H206.38V493.331C206.219 493.377 206.06 493.432 205.905 493.496C205.669 493.557 205.438 493.638 205.214 493.736C204.954 493.869 204.706 494.026 204.474 494.205C204.009 494.497 203.631 494.916 203.385 495.416C202.957 495.982 202.74 496.686 202.772 497.402V500.187H201.835V502.038H202.007V502.854H202.332V506.711H201.835V507.748H202.332V509.161H202.132V509.974H201.835V511.008H202.332V558.922H201.539V559.956H201.863V565.458H201.031V566.491H201.313V608.69H198.999V609.724H199.487V611.953H198.999V612.987H199.487V631.689H198.886V639.95H265.25V631.689L264.654 631.692Z" fill="#F8FAFC"/>
<path d="M889.514 226.039H887.936L865.155 220.133H864.766L872.655 211.953V209.324H786.27V211.953L794.16 220.133L771.379 226.039H770.275L771.796 228.214H774.235L792.336 241.985V243.991H794.16V249.053H801.936V257.916H775.926V265.511H778.294V269.602H778.396V271.939H775.926V276.679H782V282.522H784.278V288.298H782V294.205H784.278V299.985H782V305.891H784.278V310.889H782V316.799H784.278V322.575H782V328.482H784.278V334.261H782V340.168H784.278V345.948H782V351.854H784.278V357.631H782V363.541H784.278V369.317H782V375.224H784.278V381.003H782V386.91H784.278V391.911H782V397.817H784.278V403.594H782V409.504H784.278V415.28H782V421.187H784.278V426.966H782V432.873H784.278V438.652H782V444.559H784.278V450.339H782V456.245H784.278V462.801H782V468.711H784.278V473.708H782V479.615H784.278V485.394H782V491.301H784.278V497.078H782V502.987H784.278V508.764H782V514.674H784.278V520.45H782V526.357H784.278V532.136H782V538.043H784.278V543.822H782V549.729H784.278V556.091H782V561.997H784.278V567.192H782V573.099H784.278V578.487H782V584.397H784.278V590.758H782V596.665H784.278V602.769H782V608.676H784.278V614.713H782V620.623H784.278V638.621H875.037V620.623H877.315V614.713H875.037V608.676H877.315V602.769H875.037V596.665H877.315V590.758H875.037V584.397H877.315V578.487H875.037V573.099H877.315V567.192H875.037V561.997H877.315V556.091H875.037V549.729H877.315V543.822H875.037V538.043H877.315V532.136H875.037V526.357H877.315V520.45H875.037V514.674H877.315V508.764H875.037V502.987H877.315V497.078H875.037V491.301H877.315V485.394H875.037V479.615H877.315V473.708H875.037V468.711H877.315V462.801H875.037V456.245H877.315V450.339H875.037V444.559H877.315V438.652H875.037V432.873H877.315V426.966H875.037V421.187H877.315V415.28H875.037V409.504H877.315V403.594H875.037V397.817H877.315V391.911H875.037V386.91H877.315V381.003H875.037V375.224H877.315V369.317H875.037V363.541H877.315V357.631H875.037V351.854H877.315V345.948H875.037V340.168H877.315V334.261H875.037V328.482H877.315V322.575H875.037V316.799H877.315V310.889H875.037V305.891H877.315V299.985H875.037V294.205H877.315V288.298H875.037V282.522H877.315V276.679H883.392V271.939H879.768V265.511H883.392V257.916H857.382V249.053H865.344V243.991H867.171V241.84L885.077 228.214H887.995L889.514 226.039Z" fill="#F8FAFC"/>
<path d="M762.493 561.042H742.171V465.271H742.764V462.32H739.89V327.825H742.171V322.268H713.663V296.678H714.651V291.121H704.064V155.722H704.837V150.166H699.5V129.501H700.925V123.944H699.5V118.973H697.174V112.75H687.196V81.9192H689.237L690.366 77.7526H685.367L661.003 28.5438V24.8202H662.578V20.7665H661.003V19.1537H660.486V16.8633H659.922L659.188 0H658.872L658.124 16.8633H657.582V19.1537H657.057V20.7723H655.479V24.8259H657.057V28.5322L632.69 77.7555H628.219L629.348 81.9221H631.369V112.736H621.391V118.973H619.085V123.944H617.66V129.501H619.085V150.166H612.957V155.722H613.691V291.121H604.506V296.678H605.497V322.138H576.989V327.694H579.27V462.335H576.397V465.285H576.989V561.056H556.667V636.606H762.493V561.042Z" fill="#F8FAFC"/>
<path d="M236.141 619.841C231.61 619.837 227.255 621.645 224.004 624.882C220.751 621.647 216.397 619.839 211.867 619.841C207.404 619.822 203.108 621.579 199.882 624.743C197.452 622.385 194.413 620.792 191.127 620.154C187.84 619.516 184.444 619.859 181.342 621.144C178.24 622.428 175.563 624.599 173.629 627.398C171.695 630.198 170.585 633.508 170.431 636.936H253.615C253.4 632.329 251.466 627.984 248.212 624.801C244.959 621.618 240.636 619.842 236.141 619.841Z" fill="#F8FAFC"/>
<path d="M803.686 619.841C799.155 619.837 794.801 621.645 791.549 624.882C788.296 621.647 783.942 619.839 779.412 619.841C774.95 619.822 770.655 621.579 767.43 624.743C765 622.385 761.961 620.792 758.675 620.154C755.388 619.516 751.992 619.859 748.89 621.144C745.788 622.428 743.111 624.599 741.177 627.398C739.243 630.198 738.133 633.508 737.979 636.936H821.163C820.948 632.329 819.013 627.983 815.759 624.8C812.505 621.617 808.182 619.841 803.686 619.841Z" fill="#F8FAFC"/>
<path d="M1211.52 619.841C1206.99 619.837 1202.63 621.645 1199.38 624.882C1196.13 621.647 1191.78 619.839 1187.25 619.841C1182.78 619.822 1178.49 621.579 1175.26 624.743C1172.83 622.385 1169.79 620.792 1166.51 620.154C1163.22 619.516 1159.82 619.859 1156.72 621.144C1153.62 622.428 1150.94 624.599 1149.01 627.398C1147.07 630.198 1145.96 633.508 1145.81 636.936H1228.99C1228.78 632.329 1226.84 627.984 1223.59 624.801C1220.34 621.618 1216.02 619.842 1211.52 619.841Z" fill="#F8FAFC"/>
<path d="M1335.58 619.841C1331.05 619.837 1326.69 621.645 1323.44 624.882C1320.19 621.647 1315.84 619.839 1311.31 619.841C1306.84 619.822 1302.55 621.579 1299.32 624.743C1296.89 622.387 1293.85 620.795 1290.57 620.158C1287.28 619.521 1283.89 619.865 1280.79 621.149C1277.68 622.433 1275.01 624.603 1273.07 627.402C1271.14 630.2 1270.03 633.509 1269.88 636.936H1353.06C1352.84 632.328 1350.91 627.982 1347.65 624.799C1344.4 621.616 1340.08 619.841 1335.58 619.841Z" fill="#F8FAFC"/>
<path d="M984.335 590.75L984.366 590.732H984.343L984.357 590.724H984.301L982.348 585.717L982.339 585.709L899.856 507.458L895.563 502.301L895.554 502.292H893.937L890.905 505.935L806.816 585.709L804.369 590.724L804.38 590.729L804.377 590.732H804.38L804.374 590.75L862.999 623.576H856.645V635.696H856.648V635.723H932.541V635.705H932.547V623.585H932.538V623.576H925.733L984.36 590.75H984.335Z" fill="#F8FAFC"/>
<path d="M531.368 582.608L531.337 582.341V582.608H531.368Z" fill="#F8FAFC"/>
<path d="M536.963 630.612H537.245L536.875 627.476H536.599L535.055 614.446H535.337L534.967 611.311H534.691L533.147 598.281H533.429L533.059 595.148H533.028V595.133H532.783L531.239 582.104H531.521L531.151 578.971H530.875L529.511 567.456H529.793L529.421 564.323H529.144L527.6 551.293H527.883L527.51 548.157H527.231L525.687 535.127H525.969L525.596 531.992H525.286L523.812 519.541H523.931L523.863 518.962H524.021L523.649 515.829H523.347L521.803 502.785H522.085L521.715 499.652H521.436L519.892 486.622H520.174L519.804 483.489H519.528L518.165 471.974H518.447L518.077 468.841H517.8L516.324 456.39H516.446L516.375 455.811H516.533L516.163 452.675H515.887L514.343 439.646H514.625L514.255 436.513H514.224V436.498H513.979L512.435 423.469H512.717L512.347 420.336H512.057L510.513 407.291H510.795L510.422 404.158H510.146L508.672 391.708H508.791L508.72 391.129H508.881L508.509 387.996H508.229L506.869 376.483H507.151L506.778 373.348H506.502L504.958 360.318H505.24L504.87 357.185H504.591L503.047 344.155H503.329L502.959 341.022H502.926V341.008H502.68L501.136 327.978H501.418L501.049 324.845H500.73L499.186 311.815H499.468L499.098 308.683H498.822L497.278 295.653H497.56L497.19 292.517H496.914L495.446 280.13L495.94 274.168H495.906V274.145L489.916 275.882V275.324H464.629V256.729H467.305V255.475C468.905 253.506 469.49 249.661 469.69 246.563C471.64 242.075 472.171 236.764 471.234 230.759C472.401 226.59 472.996 222.275 473.004 217.938C473.004 213.117 471.485 206.863 469.416 200.548C471.446 186.418 464.406 172.14 464.022 171.373V171.358H460.932V138.694H463.686V136.323H463.653V136.308H462.227V135.799H467.102V133.424H467.068V133.41H460.932V129.139H460.898V129.124H460.271V111.879H460.237V111.864H458.208V129.116H457.545V133.41H451.374V135.799H456.249V136.294H454.79V138.665H454.821V138.694H457.545V171.344H454.301C453.966 172.01 446.435 187.199 449.105 201.795C447.251 207.676 445.935 213.427 445.927 217.923C445.93 221.892 446.429 225.844 447.412 229.682C446.283 235.945 446.681 241.487 448.603 246.154C448.778 249.339 449.342 253.422 451.016 255.469V256.714H453.844V274.823H429.274V293.024L422.556 294.975L423.643 303.523L422.858 309.919V309.774L421.306 322.398V322.535L414.882 374.781V374.636L413.329 387.26V387.368L413.293 387.657L406.936 439.365L406.902 439.654V439.498L405.35 452.116V452.195L405.324 452.423L399.682 498.36V498.3L398.141 510.84V510.895L391.717 563.179V563.173L390.176 575.728V575.754L383.769 628.032V628.052L382.761 636.276H382.795V636.29H537.643L536.963 630.612ZM451.208 250.779C451.999 251.845 452.881 252.836 453.844 253.741V254.467H452.856C452.105 253.859 451.572 252.487 451.208 250.779ZM470.986 217.926C470.989 220.662 470.743 223.391 470.252 226.08C469.285 222.519 468.019 219.05 466.467 215.714H470.652V214.683H470.619V214.669H465.978C465.696 214.064 465.4 213.473 465.109 212.897C466.582 210.001 467.81 207.216 468.558 204.613C470.006 209.538 470.98 214.22 470.986 217.926ZM453.844 241.148C453.181 239.779 452.52 238.345 451.897 236.828C452.422 235.542 453.091 234.158 453.844 232.714V241.148ZM464.629 242.063V232.997C465.411 234.482 466.107 236.013 466.715 237.581C466.043 239.168 465.335 240.653 464.629 242.063ZM462.473 187.917L463.071 189.365C463.064 191.378 462.863 193.386 462.473 195.359V187.917ZM456.001 195.31C455.681 193.698 455.493 192.062 455.436 190.419C455.622 189.944 455.812 189.484 456.001 189.026V195.31ZM456.001 213.881C455.854 213.606 455.718 213.331 455.56 213.056C455.707 212.769 455.851 212.491 456.001 212.219V213.881ZM466.345 243.16C466.757 242.335 467.172 241.487 467.584 240.592C467.677 241.069 467.73 241.554 467.742 242.04C467.742 242.39 467.765 242.767 467.768 243.155L466.345 243.16ZM464.711 228.92C464.683 228.871 464.655 228.822 464.629 228.773V224.522H462.478V217.741C462.865 217.063 463.246 216.383 463.607 215.714H464.242C466.049 219.522 467.745 223.903 468.759 228.454C468.795 228.611 468.823 228.764 468.857 228.918L464.711 228.92ZM462.473 212.205L462.834 212.891L462.473 213.571V212.205ZM462.473 201.584C462.473 201.552 462.501 201.518 462.518 201.486H467.212C467.113 202.027 467.006 202.566 466.876 203.104C466.311 205.447 465.259 208.027 463.946 210.702C463.441 209.773 462.947 208.898 462.473 208.096V201.584ZM463.009 200.44C463.912 198.297 464.518 196.034 464.807 193.717C465.654 195.921 466.481 198.182 467.237 200.44H463.009ZM457.392 176.59H457.008C457.053 176.411 457.099 176.237 457.141 176.066L457.392 176.59ZM456.001 183.794C455.874 184.084 455.747 184.373 455.62 184.663C455.721 183.618 455.851 182.607 456.001 181.643V183.794ZM456.001 208.073C455.498 208.942 454.97 209.859 454.434 210.85C453.091 208.116 452.018 205.502 451.439 203.119C451.346 202.739 451.267 202.36 451.191 201.978C451.242 201.816 451.298 201.651 451.352 201.486H455.961C455.975 201.506 455.987 201.526 456.001 201.564V208.073ZM464.629 250.839V246.496C465.013 245.769 465.411 245.014 465.82 244.214H467.765C467.765 244.851 467.728 245.52 467.689 246.195C466.893 247.885 465.862 249.447 464.629 250.834V250.839ZM465.29 229.966H469.063C469.106 230.194 469.148 230.423 469.185 230.646C468.767 232.123 468.293 233.542 467.773 234.911C467.085 233.339 466.232 231.68 465.29 229.96V229.966ZM467.748 195.735C466.901 193.419 466.007 191.137 465.117 188.968C465.117 188.389 465.117 187.81 465.084 187.231H466.986C467.505 190.034 467.76 192.882 467.748 195.735ZM462.71 183.299L462.473 182.761V181.602C462.557 182.155 462.625 182.726 462.71 183.305V183.299ZM451.335 187.24H453.393C453.356 188.164 453.347 189.102 453.376 190.046C452.433 192.382 451.496 194.826 450.621 197.302C450.474 193.931 450.714 190.554 451.335 187.24ZM455.476 200.435H451.702C452.36 198.474 453.068 196.511 453.799 194.589C454.114 196.602 454.675 198.566 455.47 200.435H455.476ZM451.998 215.714C450.605 218.725 449.439 221.841 448.512 225.035C448.135 222.69 447.946 220.317 447.948 217.941C447.948 217.237 447.993 216.493 448.061 215.72L451.998 215.714ZM449.715 228.454C450.725 223.903 452.427 219.519 454.231 215.714H454.722C455.143 216.486 455.573 217.252 456.012 218.01V224.502H453.855V228.463L453.604 228.909H449.653C449.658 228.764 449.681 228.619 449.715 228.454ZM453.012 229.948C452.218 231.396 451.49 232.803 450.864 234.147C450.38 232.796 449.943 231.396 449.554 229.948H453.012ZM450.573 242.014C450.599 241.214 450.721 240.421 450.934 239.651C451.482 240.876 452.038 242.04 452.591 243.143H450.55C450.553 242.764 450.559 242.382 450.573 242.025V242.014ZM469.484 239.822C469.318 239.078 469.111 238.344 468.863 237.624C469.143 236.943 469.416 236.245 469.682 235.531C469.731 236.968 469.667 238.407 469.49 239.834L469.484 239.822ZM465.033 186.18C464.745 182.012 464.014 177.888 462.854 173.883C462.871 173.845 462.89 173.808 462.907 173.776C464.619 177.761 465.92 181.918 466.788 186.18H465.033ZM455.699 173.593C454.492 177.69 453.735 181.911 453.441 186.18H451.532C452.413 181.853 453.737 177.634 455.484 173.593H455.699ZM453.285 213.033C453.02 213.563 452.752 214.107 452.487 214.663H448.165C448.572 211.607 449.212 208.588 450.079 205.635C450.957 208.187 452.029 210.664 453.285 213.044V213.033ZM449.729 236.805C449.416 237.622 449.151 238.457 448.936 239.307C448.766 237.685 448.736 236.052 448.845 234.425C449.128 235.25 449.424 236.043 449.729 236.816V236.805ZM453.116 244.191C453.362 244.672 453.604 245.14 453.841 245.596V250.807C452.508 249.306 451.415 247.598 450.601 245.746C450.576 245.21 450.559 244.689 450.55 244.18L453.116 244.191ZM464.626 253.723C465.499 252.9 466.306 252.006 467.04 251.051C466.678 252.623 466.159 253.885 465.445 254.456H464.626V253.723Z" fill="#F8FAFC"/>
<path d="M531.998 582.341V582.608H532.029L531.998 582.341Z" fill="#F8FAFC"/>
<path d="M461.761 618.662C457.231 618.66 452.877 620.468 449.624 623.703C446.371 620.47 442.018 618.662 437.487 618.662C433.024 618.644 428.728 620.403 425.503 623.567C423.073 621.208 420.035 619.614 416.748 618.975C413.461 618.337 410.064 618.68 406.962 619.964C403.859 621.249 401.182 623.42 399.248 626.22C397.314 629.021 396.205 632.332 396.052 635.76H479.236C479.022 631.153 477.088 626.807 473.834 623.624C470.581 620.44 466.258 618.664 461.761 618.662Z" fill="#F8FAFC"/>
<path d="M408.692 637.66L405.305 572.126C405.284 571.711 405.108 571.321 404.815 571.035C404.521 570.75 404.132 570.591 403.727 570.591H356.827L351.871 547.491L357.838 520.051L357.88 519.854L351.882 497.486L357.883 475.48L351.874 451.94L357.872 421.358L351.871 392.255L357.877 363.5L351.854 340.652L351.933 331.175L352.433 312.745L265.797 334.082H265.741L273.079 368.723L267.076 391.485L273.085 420.243L267.115 449.18L267.081 449.346L273.082 479.925L267.07 503.465L273.071 525.471L267.076 547.839L272.015 570.568H221.652C221.439 570.568 221.227 570.613 221.031 570.701C220.747 570.813 220.5 571.007 220.321 571.26C220.141 571.513 220.037 571.814 220.021 572.126L216.651 637.66C216.64 637.879 216.673 638.099 216.747 638.305C216.822 638.511 216.936 638.699 217.084 638.859C217.231 639.018 217.409 639.145 217.606 639.232C217.802 639.319 218.014 639.365 218.229 639.365H397.946C398.23 639.603 398.585 639.732 398.951 639.733C399.305 639.723 399.649 639.606 399.939 639.397L399.973 639.365H407.06C407.511 639.353 407.94 639.165 408.26 638.838C408.405 638.681 408.518 638.496 408.592 638.293C408.666 638.091 408.7 637.876 408.692 637.66Z" fill="#F8FAFC"/>
<path d="M140.735 637.767C140.153 625.478 134.985 613.889 126.3 605.403C117.616 596.917 106.082 592.183 94.0884 592.183C82.0947 592.183 70.5607 596.917 61.8765 605.403C53.1923 613.889 48.0236 625.478 47.4415 637.767H140.735Z" fill="#F8FAFC"/>
<path d="M66.7591 573.044C66.7591 573.044 65.3732 608.983 63.3409 635.737L69.3699 636.027L68.2832 573.11L66.7591 573.044Z" fill="#F8FAFC"/>
<path d="M49.6177 590.547C49.6177 590.547 51.0967 577.361 62.1047 575.647C62.8611 575.528 50.8681 572.528 46.0923 574.367C44.8504 574.848 50.9076 561.772 63.1377 569.734C65.3111 571.147 58.6978 561.572 58.6978 561.572C58.6978 561.572 67.3631 562.698 67.8514 570.449C67.9276 571.755 72.6497 558.459 84.3549 569.581C84.5496 569.766 72.1191 572.572 72.3336 573.055C72.5481 573.539 87.2141 570.449 87.6431 583.583C87.6431 583.775 75.763 578.661 72.0429 578.788C71.7239 578.806 83.2936 584.907 77.0981 598.478C76.7678 599.167 69.4066 592.898 68.3679 584.319C68.0884 582.085 67.9329 579.836 67.9022 577.584C67.9022 577.584 62.8978 588.294 49.6177 590.547Z" fill="#F8FAFC"/>
<path d="M1191.06 582.518V578.482H1188.43V572.317H1182.03V559.646H1178.94V558.216H1178.59L1178.29 555.459H1178.36V554.351H1178.83V553.242H1104.08V551.69H1103.88V540.617H1103.77V536.028H1103.55V540.617H1103.45V551.69H1103.25V553.242H1032.72V554.351H1033.19V555.459H1033.7L1033.61 556.209L1033.55 556.812H1027.67V557.921H1027.75V559.027H1028.19L1028.1 559.646H1025.24V572.317H1018.84V578.482H1016.16V582.518H1014.2V584.481H1015.63V635.491H1191.47V584.481H1192.19V582.518H1191.06Z" fill="#F8FAFC"/>
<path d="M1141.85 628.985C1140.59 630.235 1138.9 630.933 1137.14 630.933C1135.39 630.933 1133.7 630.235 1132.43 628.985C1131.17 630.207 1129.51 630.887 1127.77 630.887C1126.04 630.887 1124.38 630.207 1123.12 628.985C1121.37 628.988 1119.7 629.678 1118.44 630.912C1117.18 632.145 1116.43 633.828 1116.34 635.612H1148.64C1148.55 633.825 1147.8 632.14 1146.54 630.906C1145.28 629.672 1143.6 628.984 1141.85 628.985Z" fill="#F8FAFC"/>
<path d="M654.336 569.3V572.051H654.841V574.966H535.185V446.742H534.149V441.157H535.811V439.611H535.185V438.068H524.507V382.028H525.918V380.482H525.605V378.939H516.626V373.185H515.971V348.666H496.976V361.731H515.142V373.185H514.498V378.945H505.528V380.468H505.206V382.017H506.617V438.059H495.94V439.605H495.316V441.154H496.978V446.737H495.94V574.964H464.271V636.672H724.239V572.051H724.742V569.3H654.336ZM521.371 423.61H516.626V412.269H521.371V423.61ZM521.371 409.171H521.111V397.841H521.371V409.171ZM521.371 394.731H516.626V383.392H521.371V394.731ZM514.509 383.392V394.731H509.762V383.392H514.509ZM510.021 397.829V409.171H509.762V397.841L510.021 397.829ZM514.509 412.269V423.61H509.762V412.269H514.509ZM521.371 443.54V446.725H516.626V441.157H521.371V443.56V443.54ZM509.765 443.54V441.134H514.509V446.716H509.762V443.531L509.765 443.54ZM531.216 446.725H524.498V441.134H531.213V446.716L531.216 446.725ZM516.618 438.039V426.697H521.362V438.039H516.618ZM514.501 426.697V438.039H509.762V426.697H514.501ZM499.903 441.137H506.617V446.719H499.911V441.157L499.903 441.137Z" fill="#F8FAFC"/>
<path d="M486.233 631.388H484.847L482.058 597.629C481.992 596.994 481.859 596.368 481.66 595.762C481.627 595.643 481.587 595.522 481.545 595.394C481.457 595.142 481.358 594.876 481.243 594.595C480.754 593.417 480.114 592.311 479.34 591.306C477.678 589.134 475.005 586.852 470.712 585.266L470.638 585.237L467.234 583.98L466.783 583.815L465.301 583.268L465.101 583.195L463.667 582.668L463.136 582.477L462.075 582.086L461.615 581.918L460.246 581.42L460.105 581.368L458.722 580.867L457.274 580.34L456.85 580.187L455.603 579.738L455.481 579.692L454.205 579.234L453.768 579.075L452.868 578.754L452.467 578.609L451.29 578.189L449.664 577.607L448.837 577.318L448.447 577.179L447.46 576.831L447.321 576.782L446.237 576.4L445.91 576.284L445.134 576.012L444.801 575.896L443.895 575.577L443.768 575.534L442.771 575.189L442.489 575.094L441.755 574.842L441.473 574.743L440.601 574.454L440.541 574.434L439.638 574.124L438.732 573.817L438.467 573.724L437.733 573.478L437.617 573.438L436.819 573.168L436.576 573.087L436.011 572.896L435.774 572.815L435.108 572.595L435.018 572.566L434.292 572.326L434.083 572.256L433.573 572.091L433.352 572.019L432.748 571.822L432.681 571.802L432.034 571.593L431.848 571.532L431.399 571.39L431.199 571.327L430.699 571.17L430.6 571.139L429.869 570.91L429.469 570.785L429.299 570.733L428.845 570.594L428.774 570.574L428.277 570.423L428.128 570.38L427.781 570.276L427.631 570.232L427.256 570.122L427.168 570.096L426.742 569.972L426.604 569.934L426.321 569.85L426.177 569.81L425.85 569.72L425.785 569.702L425.418 569.601L425.294 569.566L425.051 569.503L424.927 569.468L424.665 569.401L424.586 569.381L424.278 569.3L424.168 569.274L423.967 569.225L423.855 569.196L423.648 569.146L423.567 569.126V563.335L419.223 561.685L414.879 563.335V569.083H414.859L414.413 569.187L414.204 569.239L414.122 569.259L413.914 569.312L413.834 569.332L412.759 569.616L412.635 569.65L411.814 569.879L411.664 569.922L411.413 569.995L411.249 570.041L410.967 570.119L410.851 570.154L410.326 570.308L410.117 570.371L409.835 570.452L409.629 570.516L409.093 570.681L408.635 570.82L408.353 570.907L408.071 570.997L407.806 571.081L407.501 571.176L407.218 571.269L406.722 571.428L406.377 571.535L406.067 571.637L405.734 571.744L405.42 571.845L405.022 571.972L404.723 572.071L404.114 572.271L403.8 572.372L403.052 572.621L402.299 572.87L401.579 573.11L401.263 573.218L400.766 573.383L400.413 573.504L399.894 573.678L399.572 573.788L398.745 574.078L398.463 574.176L397.85 574.387L397.483 574.512L396.885 574.717L395.609 575.16L395.381 575.239L394.621 575.502L394.221 575.644L393.563 575.873L393.176 576.006L392.31 576.313L391.968 576.432L391.045 576.756L390.661 576.892L389.885 577.181L389.473 577.326L388.626 577.633L388.299 577.749L386.746 578.302L385.877 578.615L385.431 578.774L384.505 579.107L384.136 579.237L382.868 579.695L382.434 579.854L381.482 580.196L381.025 580.361L379.964 580.746L379.603 580.876L376.695 581.933L374.612 582.694L373.116 583.245L372.834 583.352L371.016 584.021L369.808 584.467L369.303 584.652L367.742 585.231L367.624 585.274H367.598L367.55 585.292C358.575 588.61 356.681 594.963 356.297 597.004C356.26 597.198 356.237 597.351 356.223 597.461C356.209 597.571 356.206 597.621 356.204 597.644L353.415 631.423H351.975V638.166H359.825V631.394H358.258L361.013 598.023C361.079 597.609 361.189 597.203 361.341 596.813C361.4 596.657 361.468 596.491 361.547 596.315C361.586 596.225 361.631 596.13 361.676 596.025C361.722 595.921 361.758 595.863 361.801 595.782C361.885 595.626 361.973 595.464 362.083 595.296C363.13 593.573 365.188 591.393 369.196 589.91L369.269 589.881L371.008 589.241L371.27 589.143L372.763 588.593L372.986 588.512L374.643 587.901L374.731 587.869L376.221 587.324L376.523 587.211L377.934 586.699L378.064 586.65L379.591 586.094L379.789 586.021L382.707 584.962L382.758 584.944L384.116 584.455L384.432 584.339L385.485 583.96L385.787 583.853L387.074 583.389H387.108L388.299 582.964L388.612 582.851L389.609 582.498L389.826 582.419L390.932 581.994L391.144 581.918L392.075 581.588L392.358 581.487L393.261 581.169L394.497 580.734L394.779 580.636L395.539 580.372L395.838 580.268L397.766 579.599L398.028 579.507L398.706 579.275L398.988 579.179L399.835 578.89L400.027 578.823L400.695 578.594L401.793 578.224L402.787 577.888L403.335 577.706L403.6 577.616L404.164 577.428L405.006 577.15L405.24 577.071L405.691 576.924L405.943 576.84L406.702 576.594L407.179 576.437L407.399 576.368L407.791 576.24L408.009 576.171L408.528 576.006L408.757 575.933L409.078 575.832L409.307 575.76L409.62 575.661L409.903 575.577L410.292 575.456L410.761 575.314L410.987 575.244L411.246 575.163L411.562 575.068L411.808 574.995L412.011 574.935L412.217 574.874L412.618 574.758L412.948 574.66L413.106 574.616L413.307 574.558L413.445 574.518L414.108 574.332L414.207 574.306L414.402 574.254L414.478 574.234L414.868 574.13H414.887V576.183L419.231 579.483L423.575 576.183V574.176L423.705 574.211L424.004 574.289L424.188 574.341L424.315 574.376L424.597 574.454L424.755 574.5L424.944 574.552L425.102 574.599L425.384 574.68L425.573 574.735L425.808 574.804L425.983 574.856L426.242 574.932L426.779 575.094L426.962 575.149L427.244 575.23L427.442 575.291L427.803 575.401L428.009 575.464L428.362 575.574L428.574 575.641L428.91 575.745L429.598 575.962L429.816 576.032L430.163 576.142L430.403 576.22L430.86 576.368L431.001 576.411L431.566 576.599L431.797 576.675L432.221 576.814L433.098 577.1L433.279 577.161L433.798 577.335L434.603 577.601L435.514 577.908L435.769 577.992L436.31 578.175L436.593 578.267L437.375 578.534L438.213 578.82L438.529 578.927L439.164 579.145L439.404 579.229L441.256 579.868L441.538 579.967L442.41 580.256L442.65 580.34L443.818 580.74L444.6 581.03L444.883 581.128L445.924 581.496L446.229 581.603L447.025 581.892L447.429 582.034L448.388 582.376L448.552 582.434L449.718 582.848L452.554 583.864L452.805 583.957L453.853 584.333L454.259 584.481L455.605 584.965L456.932 585.445L457.336 585.59L460.243 586.65L460.353 586.69L461.713 587.188L462.179 587.356L463.339 587.785L463.729 587.927L465.256 588.485L465.665 588.636L469.021 589.875L469.094 589.904C472.529 591.172 474.528 592.939 475.688 594.502C475.727 594.554 475.764 594.607 475.801 594.662C475.905 594.803 476.001 594.951 476.083 595.087C476.412 595.597 476.688 596.14 476.907 596.709C476.93 596.767 476.95 596.824 476.969 596.879L477.063 597.169C477.154 597.452 477.222 597.743 477.266 598.038L480.032 631.365H478.412V638.166H486.261V631.394L486.233 631.388Z" fill="#F8FAFC"/>
<path d="M124.585 579.611V581.8H125.584V584.626H128.522V589.693H130.123V635.699H168.365V616.256H206.676V635.699H244.919V589.693H246.522V584.626H249.457V581.8H250.459V579.611H124.585Z" fill="#F8FAFC"/>
<path d="M146.869 636.249C146.622 630.89 144.374 625.834 140.59 622.131C136.805 618.428 131.776 616.362 126.546 616.362C121.316 616.362 116.287 618.428 112.503 622.131C108.719 625.834 106.47 630.89 106.224 636.249H146.869Z" fill="#F8FAFC"/>
<path d="M126.544 636.249H146.866C146.612 630.896 144.36 625.847 140.576 622.15C136.793 618.453 131.769 616.39 126.544 616.389V636.249Z" fill="#F8FAFC"/>
<path d="M136.338 610.193C135.327 594.557 117.991 598.785 117.692 598.223C117.393 597.661 132.127 593.819 131.884 593.611C117.514 580.839 112.391 596.877 112.25 595.316C111.375 586.097 101.002 585.086 101.002 585.086C101.002 585.086 109.25 596.248 106.608 594.641C91.7246 585.636 84.9928 601.457 86.4577 600.829C92.1028 598.449 106.498 601.556 105.592 601.727C92.5572 604.205 91.2729 619.968 91.2729 619.968C98.9945 618.46 105.856 613.965 110.438 607.413C109.577 614.881 108.349 626.77 107.717 638.549L113.001 639.739L113.261 610.934C113.3 611.209 113.34 611.487 113.382 611.774C114.937 621.957 123.941 629.147 124.308 628.301C131.198 611.916 117.173 605.085 117.557 605.059C121.982 604.802 136.338 610.404 136.338 610.193Z" fill="#F8FAFC"/>
<path d="M751.999 636.585C751.583 627.852 747.909 619.617 741.736 613.586C735.564 607.556 727.366 604.193 718.843 604.193C710.319 604.193 702.122 607.556 695.949 613.586C689.777 619.617 686.102 627.852 685.686 636.585H751.999Z" fill="#F8FAFC"/>
<path d="M718.834 636.585H751.999C751.584 627.849 747.908 619.611 741.734 613.579C735.56 607.547 727.36 604.182 718.834 604.182V636.585Z" fill="#F8FAFC"/>
<path d="M1259.01 636.458C1258.72 630.479 1256.21 624.841 1251.98 620.713C1247.76 616.584 1242.15 614.281 1236.31 614.281C1230.48 614.281 1224.86 616.584 1220.64 620.713C1216.41 624.841 1213.9 630.479 1213.62 636.458H1259.01Z" fill="#F8FAFC"/>
<path d="M1236.3 636.458H1259.01C1258.72 630.478 1256.21 624.84 1251.98 620.711C1247.75 616.582 1242.14 614.279 1236.3 614.279V636.458Z" fill="#F8FAFC"/>
<path d="M871.181 637.356C870.898 631.377 868.383 625.739 864.158 621.61C859.933 617.482 854.322 615.179 848.487 615.179C842.652 615.179 837.04 617.482 832.815 621.61C828.59 625.739 826.075 631.377 825.792 637.356H871.181Z" fill="#F8FAFC"/>
<path d="M848.468 637.356H871.17C870.885 631.376 868.369 625.737 864.143 621.608C859.917 617.48 854.304 615.176 848.468 615.176V637.356Z" fill="#F8FAFC"/>
<path d="M272.532 636.391C272.313 631.882 270.413 627.631 267.224 624.518C264.035 621.405 259.802 619.669 255.4 619.669C250.999 619.669 246.765 621.405 243.577 624.518C240.388 627.631 238.487 631.882 238.269 636.391H272.532Z" fill="#F8FAFC"/>
<path d="M255.396 636.391H272.532C272.317 631.878 270.418 627.621 267.228 624.505C264.038 621.388 259.801 619.649 255.396 619.65V636.391Z" fill="#F8FAFC"/>
<path d="M690.865 624.731C687.874 624.715 684.996 625.898 682.844 628.029C680.706 625.926 677.863 624.745 674.901 624.731C671.939 624.716 669.085 625.869 666.927 627.951C664.795 625.874 661.964 624.721 659.024 624.731C656.06 624.729 653.209 625.896 651.062 627.992C648.914 630.087 647.635 632.949 647.488 635.986H702.404C702.256 632.949 700.976 630.087 698.828 627.992C696.68 625.897 693.829 624.73 690.865 624.731Z" fill="#F8FAFC"/>
<path d="M482.829 629.022C481.04 629.013 479.318 629.722 478.031 630.997C476.75 629.738 475.047 629.031 473.274 629.022C471.5 629.014 469.791 629.704 468.499 630.951C467.223 629.707 465.528 629.016 463.768 629.022C461.994 629.021 460.287 629.72 459.001 630.974C457.715 632.228 456.949 633.942 456.861 635.76H489.741C489.653 633.941 488.886 632.227 487.599 630.973C486.312 629.719 484.604 629.02 482.829 629.022Z" fill="#F8FAFC"/>
<path d="M217.345 628.962C215.556 628.953 213.834 629.662 212.547 630.936C211.267 629.677 209.565 628.97 207.791 628.962C206.018 628.953 204.309 629.643 203.018 630.89C201.742 629.646 200.047 628.955 198.287 628.962C196.513 628.96 194.805 629.659 193.519 630.913C192.233 632.167 191.466 633.881 191.378 635.699H224.26C224.171 633.88 223.404 632.166 222.116 630.912C220.829 629.658 219.121 628.959 217.345 628.962Z" fill="#F8FAFC"/>
<path d="M1268.54 628.93C1267.25 630.197 1265.53 630.904 1263.74 630.904C1261.95 630.904 1260.23 630.197 1258.94 628.93C1257.66 630.168 1255.97 630.858 1254.21 630.858C1252.45 630.858 1250.75 630.168 1249.47 628.93C1247.7 628.928 1245.99 629.627 1244.7 630.881C1243.42 632.136 1242.65 633.85 1242.56 635.668H1275.44C1275.36 633.85 1274.59 632.136 1273.3 630.882C1272.02 629.628 1270.31 628.929 1268.54 628.93Z" fill="#F8FAFC"/>
<path d="M1474.62 628.93C1473.32 630.198 1471.6 630.905 1469.82 630.905C1468.03 630.905 1466.31 630.198 1465.02 628.93C1463.74 630.168 1462.04 630.858 1460.28 630.858C1458.52 630.858 1456.83 630.168 1455.55 628.93C1453.77 628.928 1452.07 629.627 1450.78 630.881C1449.49 632.135 1448.73 633.849 1448.64 635.668H1481.52C1481.43 633.85 1480.67 632.136 1479.38 630.882C1478.1 629.628 1476.39 628.929 1474.62 628.93Z" fill="#F8FAFC"/>
<path d="M1414.54 625.368C1412.69 627.189 1410.22 628.206 1407.65 628.206C1405.08 628.206 1402.61 627.189 1400.75 625.368C1398.91 627.146 1396.48 628.136 1393.95 628.136C1391.42 628.136 1388.99 627.146 1387.15 625.368C1384.6 625.366 1382.14 626.37 1380.3 628.172C1378.45 629.975 1377.35 632.438 1377.22 635.051H1424.47C1424.34 632.438 1423.24 629.976 1421.39 628.174C1419.55 626.372 1417.09 625.367 1414.54 625.368Z" fill="#F8FAFC"/>
<path d="M346.74 627.213C344.519 627.2 342.382 628.078 340.784 629.659C339.196 628.099 337.085 627.223 334.886 627.213C332.687 627.202 330.568 628.057 328.966 629.601C327.383 628.059 325.281 627.203 323.098 627.213C320.898 627.211 318.781 628.077 317.186 629.632C315.591 631.187 314.641 633.312 314.531 635.566H355.306C355.196 633.312 354.245 631.188 352.651 629.633C351.056 628.078 348.94 627.211 346.74 627.213Z" fill="#F8FAFC"/>
<path d="M778.334 527.944C774.001 530.457 787.185 513.429 787.185 513.429C787.185 513.429 769.908 515.432 768.934 529.218C768.782 531.534 759.374 507.889 736.026 527.651C735.64 527.984 760.424 532.973 759.995 533.83C759.566 534.687 730.327 529.218 729.475 552.558C729.455 552.897 753.156 543.831 760.577 544.028C761.215 544.057 738.146 554.915 750.497 579.026C751.118 580.184 764.099 570.412 767.39 556.571L765.039 636.507L777.069 635.998C774.179 602.12 772.378 564.69 771.579 545.948C776.115 551.788 786.578 562.142 805.275 564.974C805.275 564.974 802.303 541.521 780.386 538.469C778.884 538.252 802.794 532.924 812.314 536.19C814.798 537.041 802.712 513.785 778.334 527.944Z" fill="#F8FAFC"/>
<path d="M764.173 627.63C761.952 627.617 759.815 628.497 758.217 630.079C756.63 628.517 754.519 627.64 752.319 627.629C750.12 627.619 748.001 628.475 746.399 630.021C744.818 628.478 742.716 627.622 740.534 627.63C738.333 627.628 736.216 628.494 734.621 630.05C733.026 631.606 732.076 633.731 731.967 635.986H772.742C772.632 633.731 771.681 631.606 770.086 630.051C768.491 628.495 766.374 627.628 764.173 627.63Z" fill="#F8FAFC"/>
<path d="M954.687 626.46C952.146 626.456 949.704 627.47 947.882 629.286C946.059 627.473 943.62 626.459 941.082 626.46C938.581 626.449 936.174 627.434 934.367 629.208C933.006 627.885 931.303 626.992 929.461 626.634C927.619 626.276 925.715 626.469 923.977 627.189C922.238 627.908 920.738 629.125 919.654 630.695C918.57 632.264 917.949 634.12 917.864 636.041H964.475C964.357 633.459 963.274 631.024 961.451 629.24C959.629 627.455 957.206 626.46 954.687 626.46Z" fill="#F8FAFC"/>
<path d="M977.459 631.249C976.562 632.13 975.368 632.622 974.126 632.622C972.884 632.622 971.689 632.13 970.792 631.249C969.902 632.109 968.725 632.588 967.503 632.588C966.28 632.588 965.103 632.109 964.213 631.249C962.98 631.248 961.793 631.733 960.9 632.605C960.007 633.476 959.475 634.668 959.414 635.931H982.257C982.197 634.668 981.665 633.476 980.772 632.605C979.878 631.733 978.692 631.248 977.459 631.249Z" fill="#F8FAFC"/>
<path d="M990.42 562.765C990.42 562.765 992.241 604.88 994.914 636.235L986.991 636.568L988.419 562.837L990.42 562.765Z" fill="#F8FAFC"/>
<path d="M1012.94 583.279C1012.94 583.279 1010.98 567.82 996.542 565.817C995.552 565.672 1011.3 562.163 1017.58 564.314C1019.21 564.893 1011.25 549.547 995.188 558.885C992.334 560.541 1001.02 549.33 1001.02 549.33C1001.02 549.33 989.638 550.65 988.995 559.733C988.896 561.268 982.698 545.681 967.315 558.702C967.058 558.92 983.403 562.206 983.121 562.774C982.839 563.341 963.572 559.733 963.013 575.111C962.999 575.334 978.613 569.361 983.505 569.491C983.923 569.508 968.726 576.663 976.863 592.551C977.298 593.356 986.968 586.01 988.332 575.954C988.698 573.34 988.902 570.704 988.941 568.064C988.941 568.064 995.495 580.636 1012.94 583.279Z" fill="#F8FAFC"/>
<path d="M985.673 601.087C984.349 580.552 961.562 586.102 961.187 585.364C960.812 584.626 980.143 579.573 979.816 579.307C960.944 562.533 954.218 583.595 954.032 581.545C952.88 569.436 939.256 568.11 939.256 568.11C939.256 568.11 950.089 582.77 946.617 580.668C927.074 568.84 918.231 589.621 920.156 588.798C927.548 585.671 946.462 589.751 945.276 589.974C928.158 593.228 926.47 613.951 926.47 613.951C940.072 611.175 947.887 602.838 951.641 597.464C950.512 607.271 948.898 622.884 948.068 638.357L955.008 639.918L955.35 602.088C955.401 602.447 955.454 602.815 955.508 603.189C957.552 616.566 969.375 626.002 969.861 624.905C978.907 603.383 960.487 594.413 960.992 594.378C966.826 594.007 985.684 601.367 985.673 601.087Z" fill="#F8FAFC"/>
<path d="M1512 635.413H0V647.666H1512V635.413Z" fill="#F8FAFC"/>
</svg>
