<svg width="887" height="151" viewBox="0 0 887 151" fill="none" xmlns="http://www.w3.org/2000/svg">
<path d="M745.285 5.25516L744.471 5.46767V16.4971V27.5265H742.757H741.064L740.4 26.5702C740.036 26.0389 739.693 25.6139 739.65 25.6139C739.436 25.6139 736.629 26.7615 736.393 26.9527C736.243 27.059 736.115 27.5265 736.115 27.9728V28.8016H734.936C733.822 28.8016 733.758 28.8229 733.758 29.3329C733.758 29.8004 733.672 29.8642 733.008 29.8642H732.258V25.8264V21.7887H728.744H725.209L725.145 21.0874L725.08 20.4073L720.216 20.3436L715.331 20.3011V24.5513V28.8016H711.153H706.975V29.9704C706.975 30.9905 706.932 31.1393 706.546 31.1393C706.139 31.1393 706.118 31.288 706.118 33.5832C706.118 35.8783 706.096 36.0271 705.689 36.0271C705.282 36.0271 705.261 35.857 705.218 28.2066L705.154 20.4073L703.29 20.3436L701.404 20.2798V19.451C701.404 18.6435 701.425 18.6222 702.218 18.5585C702.968 18.4947 703.011 18.4522 703.075 17.6872L703.14 16.9009H695.426H687.691V17.4322C687.691 17.8997 687.777 17.9634 688.548 17.9634C689.384 17.9634 689.405 17.9847 689.405 18.7072V19.451H687.691H685.977V37.0896C685.977 48.5866 685.913 54.7282 685.763 54.7282C685.634 54.7282 685.527 51.4555 685.506 45.6326L685.441 36.5583L684.113 36.4946C682.784 36.4308 682.763 36.4308 682.763 35.8145V35.177H679.013H675.264V31.713C675.264 28.5041 675.221 28.2066 674.835 27.8453C674.514 27.5478 674.407 27.1865 674.407 26.3152V25.1889H671.728H669.05V25.8264C669.05 26.4215 669.007 26.464 668.193 26.464H667.336V37.7272V48.9904H666.158H664.979V45.6964V42.4024H664.443C663.929 42.4024 663.908 42.3599 663.908 40.8511C663.908 39.3423 663.886 39.2785 663.094 38.5135L662.279 37.7272H658.53H654.78L654.094 38.4285C653.43 39.1085 653.409 39.1935 653.409 40.8724V42.615H652.016H650.623V44.2088V45.8027H649.445H648.266V43.465V41.1274H645.91H643.553V45.1651V49.2029H642.696H641.839V45.2714V41.3399H641.196H640.553V35.8995C640.553 30.6505 640.532 30.4592 640.124 30.353C639.717 30.2467 639.696 30.0554 639.696 25.3801C639.696 22.405 639.61 20.5136 639.482 20.5136C639.374 20.5136 639.267 19.7273 639.225 18.7497L639.16 17.0071L637.832 16.9434L636.503 16.8796L636.439 15.137L636.375 13.3944L633.354 13.3307C630.525 13.2882 630.268 13.3094 629.133 13.8194C628.404 14.117 627.504 14.3507 626.947 14.3507H625.983V16.3696V18.3885H625.34H624.697V24.2326V30.0554L623.048 30.1192L621.376 30.1829L621.312 42.3387L621.269 54.5157H620.412H619.555V49.2029V43.89H615.977C613.02 43.89 611.884 43.7838 609.699 43.3588C608.22 43.0612 606.849 42.8275 606.656 42.8275C606.292 42.8275 606.271 43.21 606.271 47.8215V52.8156H605.199H604.128V50.7967V48.7778H602.778C601.6 48.7778 601.343 48.7141 600.914 48.2466C600.464 47.7578 600.25 47.7153 598.729 47.7153C597.379 47.7153 597.057 47.779 597.057 48.034C597.057 48.2678 596.8 48.3528 596.093 48.3528H595.129V51.4343V54.5157H593.736H592.365L592.301 52.9643L592.236 51.4343H588.808H585.38L585.316 52.4331L585.251 53.4531H583.966H582.702V56.7471V60.041H580.773H578.845V55.3445V50.648L577.109 48.2253C576.167 46.8865 575.309 45.8027 575.245 45.8239C575.159 45.8239 574.388 46.6527 573.552 47.6728C572.053 49.4579 571.988 49.5641 571.988 50.6267V51.753H571.238H570.488V49.3091V46.8652H568.56H566.61L565.989 48.2678C565.368 49.6066 565.346 49.7979 565.346 52.7306V55.7908H563.739H562.132V49.2029V42.615H561.597C561.147 42.615 561.061 42.5087 561.061 41.9774V41.3399H557.204H553.347V42.0837V42.8275H551.74H550.133V48.4591V54.0907H547.884H545.634V52.9218V51.753H544.027H542.42V43.6775V35.602H538.735C536.699 35.602 533.999 35.7083 532.735 35.857L530.421 36.0908V44.0388V51.9655H529.135H527.871L527.807 50.0104L527.743 48.0765L523.779 46.9502L519.815 45.8239H510.452L501.067 45.8027V47.5028V49.2029H484.461H467.856V54.5157V59.8285H465.392H462.928V58.766V57.7034H461.107H459.285V58.6597V59.616H457.143H455V62.2724V64.9288H670.55H886.1V59.1272C886.1 55.9608 886.036 50.8392 885.95 47.7578L885.821 42.1687L884.086 42.2324C882.372 42.2962 882.35 42.2962 882.286 42.87C882.222 43.4438 882.157 43.465 881.043 43.465H879.886V42.615V41.7649H875.494H871.101V43.1462V44.5276H869.602H868.102V45.6964V46.8652H866.923H865.745V51.4343V56.0033H861.888H858.031V52.7093V49.4154H856.746H855.46V48.3528C855.46 47.3115 855.439 47.2902 854.817 47.2902H854.196L854.132 45.2076L854.067 43.1462L853.489 43.0825L852.889 43.0187V38.0247V33.0519L849.504 31.373L846.118 29.6942L843.29 32.0318L840.462 34.3695V38.7047V43.04H837.783H835.105V34.752C835.105 27.8453 835.062 26.464 834.805 26.464C834.655 26.464 831.827 26.889 828.549 27.4203L822.571 28.3766H810.422H798.252V27.2078V26.0389H792.466H786.681V25.1889V24.3388H782.953H779.225L778.453 25.1889L777.682 26.0389H772.904H768.126L767.869 26.7402C767.719 27.1228 767.612 28.4191 767.612 29.6092V31.7768H765.898H764.184L764.141 25.2314L764.076 18.7072L763.605 18.6435C763.176 18.5797 763.112 18.4522 763.112 17.6234C763.112 16.7734 763.069 16.6884 762.577 16.6884C762.062 16.6884 762.041 16.6246 762.041 15.5408C762.041 14.9033 761.955 14.3082 761.827 14.2445C761.719 14.1807 761.612 13.5857 761.612 12.9481C761.612 11.9493 761.569 11.8006 761.184 11.8006C760.798 11.8006 760.755 11.6518 760.755 10.6317C760.755 9.61168 760.712 9.46292 760.327 9.46292C759.941 9.46292 759.898 9.31416 759.898 8.18784C759.898 6.97652 759.877 6.91276 759.363 6.91276C758.87 6.91276 758.827 6.82776 758.827 5.95646V5.00014L752.463 5.0214C748.949 5.04265 745.714 5.1489 745.285 5.25516Z" fill="#C3002F"/>
<g clip-path="url(#clip0_355_1944)">
<rect width="431.1" height="88.9264" transform="translate(455.247 61.3247)" fill="#C3002F"/>
<path d="M538.438 91.954V99.554H513.161V105.254H538.438V111.854H513.161V125.304H503V91.954H538.438Z" fill="white"/>
<path d="M581.837 91.954V99.554H554.758V105.254H580.035V111.854H554.758V117.754H581.837V125.304H544.597V91.954H581.837Z" fill="white"/>
<path d="M598.933 115.204C598.933 116.537 599.383 117.404 600.284 117.804C601.285 118.137 602.57 118.304 604.138 118.304L608.944 118.354L615.751 118.154C617.619 118.154 618.837 117.921 619.405 117.454C619.972 116.987 620.256 116.254 620.256 115.254C620.256 114.354 619.922 113.637 619.255 113.104C618.621 112.571 617.386 112.304 615.551 112.304H613.899L597.181 111.954C594.078 111.954 591.859 111.171 590.524 109.604C589.256 107.971 588.622 105.537 588.622 102.304C588.622 99.5707 589.022 97.454 589.823 95.954C590.624 94.4207 592.109 93.354 594.278 92.754C595.446 92.454 596.73 92.2207 598.132 92.054C599.567 91.854 601.102 91.754 602.737 91.754L609.794 91.604L616.902 91.704C618.37 91.704 619.638 91.754 620.706 91.854C621.807 91.954 622.825 92.1373 623.759 92.404C625.461 92.804 626.662 93.604 627.363 94.804C628.097 96.004 628.564 97.104 628.765 98.104C628.998 99.0707 629.115 100.404 629.115 102.104H619.154C619.154 100.971 618.804 100.171 618.103 99.704C617.436 99.204 616.485 98.954 615.25 98.954L610.345 98.904L602.587 99.154C601.619 99.154 600.751 99.354 599.984 99.754C599.25 100.121 598.883 100.754 598.883 101.654C598.883 102.854 599.3 103.671 600.134 104.104C600.535 104.271 601.018 104.404 601.586 104.504C602.186 104.604 602.87 104.654 603.638 104.654H604.689L611.496 104.754L618.203 104.804C622.541 104.804 625.661 105.487 627.563 106.854C629.532 108.154 630.517 110.854 630.517 114.954C630.517 118.887 629.632 121.587 627.864 123.054C626.129 124.521 623.242 125.254 619.204 125.254L606.191 125.604L599.383 125.454C595.746 125.454 593.077 124.871 591.375 123.704C589.706 122.537 588.872 120.187 588.872 116.654V114.654H598.883L598.933 115.204Z" fill="white"/>
<path d="M650.408 125.304V100.304H635.492V91.954H675.434V100.304H660.569V125.304H650.408Z" fill="white"/>
<path d="M681.12 125.304V91.954H691.281V125.304H681.12Z" fill="white"/>
<path d="M714.553 125.304L696.934 91.954H708.046L721.16 117.104L734.825 91.954H746.137L727.517 125.304H714.553Z" fill="white"/>
<path d="M760.509 125.304H749.197L767.817 91.954H781.531L799.751 125.304H788.539L785.385 119.254H763.812L760.509 125.304ZM767.366 112.354H781.681L774.524 99.154L767.366 112.354Z" fill="white"/>
<path d="M839 116.954V125.304H805.765V91.954H815.925V116.954H839Z" fill="white"/>
<path d="M778.454 61.0624H779.305L780.22 61.156V64.4324L779.557 64.37C778.843 64.37 778.328 64.5676 778.013 64.9629C777.718 65.3581 777.571 65.9198 777.571 66.6478H779.337V72.4205H773V66.6478C773 64.5884 773.389 63.1426 774.166 62.3105C774.965 61.4785 776.394 61.0624 778.454 61.0624Z" fill="white"/>
<path d="M784.046 81.9064V76.6018C784.046 74.7296 784.392 73.3566 785.086 72.4829C785.78 71.6092 787.062 71.0371 788.932 70.7667L799.966 69.893C800.933 69.8098 801.637 69.6226 802.079 69.3314C802.52 69.0817 802.741 68.5617 802.741 67.7712L802.709 67.3343C802.709 66.523 802.51 65.9822 802.11 65.7117C801.711 65.4205 800.944 65.2749 799.809 65.2749H796.53L792.81 65.3373C792.221 65.3373 791.706 65.4101 791.265 65.5557C790.845 65.6805 790.54 65.8782 790.351 66.1486C790.162 66.419 790.015 66.7103 789.909 67.0223L789.846 67.9584V68.6761H784.046L784.014 67.2095C784.014 64.4844 784.571 62.789 785.685 62.1233C786.799 61.4577 788.827 61.1248 791.77 61.1248L798.831 61L802.362 61.0624C804.716 61.0624 806.356 61.5097 807.281 62.4042C808.226 63.2987 808.699 64.9212 808.699 67.2719C808.699 69.893 808.247 71.7132 807.344 72.7325C806.461 73.7519 804.695 74.2615 802.047 74.2615L796.845 74.6048L792.432 74.9168C791.612 74.9168 790.971 75.0208 790.508 75.2288C790.046 75.416 789.815 75.9361 789.815 76.789V77.6939H808.699V81.9064H784.046Z" fill="white"/>
<path d="M829.227 69.4874C830.32 69.4874 831.139 69.3938 831.686 69.2065C832.232 69.0193 832.506 68.5097 832.506 67.6776C832.506 66.7415 832.316 66.1174 831.938 65.8053C831.56 65.4933 830.73 65.3373 829.448 65.3373H829.164L825.664 65.2437L822.638 65.3373C821.713 65.3373 821.009 65.5037 820.526 65.8366C820.063 66.1694 819.832 66.7623 819.832 67.6152L819.863 68.1768H813.905C813.905 65.6597 814.304 63.9435 815.103 63.0282C815.902 62.0921 817.173 61.5305 818.918 61.3432L822.732 61.0624L825.885 61H826.736L831.623 61.0936C834.019 61.0936 835.753 61.4993 836.825 62.3105C837.918 63.101 838.464 64.6404 838.464 66.9287C838.464 67.636 838.422 68.1976 838.338 68.6137C838.275 69.0297 838.096 69.4666 837.802 69.9242C837.529 70.3611 836.993 70.7147 836.194 70.9851L834.24 71.5156C836.047 71.7028 837.287 72.1085 837.96 72.7325C838.653 73.3566 839 74.5632 839 76.3522C839 78.1828 838.475 79.5869 837.424 80.5646C836.394 81.5215 834.176 82 830.772 82H825.79L821.755 81.9688C819.002 81.9688 816.984 81.5944 815.702 80.8455C814.42 80.0966 813.779 78.422 813.779 75.8217L813.842 74.6984H819.611C819.611 75.7801 819.8 76.5498 820.179 77.0074C820.557 77.4651 821.293 77.6939 822.386 77.6939L826.043 77.7251H829.574L830.299 77.7563C831.118 77.7563 831.77 77.6315 832.253 77.3819C832.758 77.1114 833.01 76.5706 833.01 75.7593C833.01 74.8856 832.81 74.2927 832.411 73.9807C832.201 73.8143 831.949 73.6895 831.654 73.6062C831.36 73.523 830.961 73.4814 830.456 73.4814L828.912 73.5126H823.867V69.4874H829.227Z" fill="white"/>
</g>
<path d="M131.212 149.448L42.2621 38.3598V149.448H0V1.55212H71.4695L160.419 112.419V1.55212H202.681V149.448H131.212Z" fill="#C3002F"/>
<path d="M430.779 66.0764L431 97.1189C431 115.449 427.829 128.975 421.486 137.696C415.29 146.418 403.12 150.778 384.976 150.778L361.522 151L334.749 150.778L311.515 150.557C294.699 150.557 281.349 149.448 271.466 147.231C261.583 145.013 253.617 139.987 247.569 132.153C241.669 124.17 238.718 112.123 238.718 96.0103L238.276 77.3847C238.276 48.5595 241.816 28.6035 248.897 17.5169C255.977 6.43025 272.646 0.886933 298.903 0.886933L332.536 0.22173L344.927 0L375.019 0.665203C394.491 0.665203 408.578 4.06511 417.281 10.8649C426.132 17.5169 430.557 30.4513 430.557 49.6681V52.3289H386.525C386.525 48.7812 386.009 45.7509 384.976 43.2379C384.091 40.7249 382.395 39.0989 379.887 38.3598C377.527 37.4728 374.577 36.7337 371.036 36.1424L359.973 35.699L307.975 35.4772C297.354 35.4772 290.643 38.138 287.84 43.4596C285.037 48.6334 283.636 57.281 283.636 69.4024V83.1498C283.636 93.3495 284.963 100.888 287.619 105.767C290.274 110.645 294.33 113.527 299.788 114.414L311.737 115.523L322.358 115.744L362.407 115.966C370.078 115.966 376.052 114.71 380.33 112.197C384.608 109.684 386.746 104.954 386.746 98.0059L386.525 93.793H329.659V66.0764H430.779Z" fill="#C3002F"/>
<defs>
<clipPath id="clip0_355_1944">
<rect width="431.1" height="88.9264" fill="white" transform="translate(455.247 61.3247)"/>
</clipPath>
</defs>
</svg>
