<svg width="887" height="151" viewBox="0 0 887 151" fill="none" xmlns="http://www.w3.org/2000/svg">
<path d="M745.532 5.65116L744.718 5.86367V16.8931V27.9225H743.004H741.311L740.647 26.9662C740.283 26.4349 739.94 26.0099 739.897 26.0099C739.683 26.0099 736.876 27.1575 736.64 27.3487C736.49 27.455 736.362 27.9225 736.362 28.3688V29.1976H735.183C734.069 29.1976 734.005 29.2189 734.005 29.7289C734.005 30.1964 733.919 30.2602 733.255 30.2602H732.505V26.2224V22.1847H728.991H725.456L725.392 21.4834L725.327 20.8033L720.464 20.7396L715.578 20.6971V24.9473V29.1976H711.4H707.222V30.3664C707.222 31.3865 707.179 31.5352 706.793 31.5352C706.386 31.5352 706.365 31.684 706.365 33.9792C706.365 36.2743 706.343 36.4231 705.936 36.4231C705.529 36.4231 705.508 36.253 705.465 28.6026L705.401 20.8033L703.537 20.7396L701.651 20.6758V19.847C701.651 19.0395 701.673 19.0182 702.465 18.9545C703.215 18.8907 703.258 18.8482 703.322 18.0832L703.387 17.2969H695.673H687.938V17.8282C687.938 18.2957 688.024 18.3594 688.795 18.3594C689.631 18.3594 689.652 18.3807 689.652 19.1032V19.847H687.938H686.224V37.4856C686.224 48.9826 686.16 55.1242 686.01 55.1242C685.881 55.1242 685.774 51.8515 685.753 46.0286L685.688 36.9543L684.36 36.8906C683.032 36.8268 683.01 36.8268 683.01 36.2105V35.573H679.26H675.511V32.109C675.511 28.9001 675.468 28.6026 675.082 28.2413C674.761 27.9438 674.654 27.5825 674.654 26.7112V25.5849H671.975H669.297V26.2224C669.297 26.8175 669.254 26.86 668.44 26.86H667.583V38.1232V49.3863H666.405H665.226V46.0924V42.7984H664.69C664.176 42.7984 664.155 42.7559 664.155 41.2471C664.155 39.7383 664.133 39.6745 663.341 38.9095L662.526 38.1232H658.777H655.027L654.342 38.8244C653.677 39.5045 653.656 39.5895 653.656 41.2683V43.011H652.263H650.87V44.6048V46.1987H649.692H648.514V43.861V41.5234H646.157H643.8V45.5611V49.5989H642.943H642.086V45.6674V41.7359H641.443H640.8V36.2955C640.8 31.0465 640.779 30.8552 640.371 30.749C639.964 30.6427 639.943 30.4514 639.943 25.7761C639.943 22.801 639.857 20.9096 639.729 20.9096C639.622 20.9096 639.514 20.1233 639.472 19.1457L639.407 17.4031L638.079 17.3394L636.75 17.2756L636.686 15.533L636.622 13.7904L633.601 13.7267C630.772 13.6842 630.515 13.7054 629.38 14.2154C628.651 14.513 627.751 14.7467 627.194 14.7467H626.23V16.7656V18.7845H625.587H624.944V24.6286V30.4514L623.295 30.5152L621.623 30.5789L621.559 42.7347L621.516 54.9117H620.659H619.802V49.5989V44.286H616.224C613.267 44.286 612.131 44.1798 609.946 43.7548C608.468 43.4572 607.096 43.2235 606.903 43.2235C606.539 43.2235 606.518 43.606 606.518 48.2175V53.2116H605.446H604.375V51.1927V49.1738H603.025C601.847 49.1738 601.59 49.1101 601.161 48.6426C600.711 48.1538 600.497 48.1113 598.976 48.1113C597.626 48.1113 597.304 48.175 597.304 48.43C597.304 48.6638 597.047 48.7488 596.34 48.7488H595.376V51.8302V54.9117H593.983H592.612L592.548 53.3603L592.483 51.8302H589.055H585.627L585.563 52.8291L585.498 53.8491H584.213H582.949V57.1431V60.437H581.02H579.092V55.7405V51.044L577.356 48.6213C576.414 47.2825 575.557 46.1987 575.492 46.2199C575.407 46.2199 574.635 47.0487 573.8 48.0688C572.3 49.8539 572.235 49.9601 572.235 51.0227V52.149H571.485H570.736V49.7051V47.2612H568.807H566.857L566.236 48.6638C565.615 50.0026 565.593 50.1939 565.593 53.1266V56.1868H563.986H562.379V49.5989V43.011H561.844C561.394 43.011 561.308 42.9047 561.308 42.3734V41.7359H557.451H553.594V42.4797V43.2235H551.987H550.38V48.8551V54.4867H548.131H545.881V53.3178V52.149H544.274H542.667V44.0735V35.998H538.982C536.946 35.998 534.246 36.1043 532.982 36.253L530.668 36.4868V44.4348V52.3615H529.383H528.118L528.054 50.4064L527.99 48.4725L524.026 47.3462L520.062 46.2199H510.699L501.314 46.1987V47.8988V49.5989H484.708H468.103V54.9117V60.2245H465.639H463.175V59.1619V58.0994H461.354H459.532V59.0557V60.012H457.39H455.247V62.6684V65.3248H670.797H886.347V59.5232C886.347 56.3568 886.283 51.2352 886.197 48.1538L886.068 42.5647L884.333 42.6284C882.619 42.6922 882.597 42.6922 882.533 43.266C882.469 43.8398 882.405 43.861 881.29 43.861H880.133V43.011V42.1609H875.741H871.348V43.5422V44.9236H869.849H868.349V46.0924V47.2612H867.17H865.992V51.8302V56.3993H862.135H858.278V53.1053V49.8114H856.993H855.707V48.7488C855.707 47.7075 855.686 47.6862 855.064 47.6862H854.443L854.379 45.6036L854.314 43.5422L853.736 43.4785L853.136 43.4147V38.4207V33.4479L849.751 31.769L846.365 30.0902L843.537 32.4278L840.709 34.7654V39.1007V43.436H838.03H835.352V35.148C835.352 28.2413 835.309 26.86 835.052 26.86C834.902 26.86 832.074 27.285 828.796 27.8163L822.818 28.7726H810.669H798.499V27.6038V26.4349H792.713H786.928V25.5849V24.7348H783.2H779.472L778.701 25.5849L777.929 26.4349H773.151H768.373L768.116 27.1362C767.966 27.5188 767.859 28.8151 767.859 30.0052V32.1728H766.145H764.431L764.388 25.6274L764.323 19.1032L763.852 19.0395C763.424 18.9757 763.359 18.8482 763.359 18.0194C763.359 17.1694 763.316 17.0844 762.824 17.0844C762.309 17.0844 762.288 17.0206 762.288 15.9368C762.288 15.2993 762.202 14.7042 762.074 14.6405C761.967 14.5767 761.859 13.9817 761.859 13.3441C761.859 12.3453 761.817 12.1966 761.431 12.1966C761.045 12.1966 761.002 12.0478 761.002 11.0277C761.002 10.0077 760.959 9.85892 760.574 9.85892C760.188 9.85892 760.145 9.71016 760.145 8.58384C760.145 7.37251 760.124 7.30876 759.61 7.30876C759.117 7.30876 759.074 7.22375 759.074 6.35245V5.39614L752.71 5.41739C749.196 5.43864 745.961 5.5449 745.532 5.65116Z" fill="white"/>
<rect width="431.1" height="88.9264" transform="translate(455.247 61.3247)" fill="white"/>
<path d="M538.685 88.6518V96.2518H513.408V101.952H538.685V108.552H513.408V122.002H503.247V88.6518H538.685Z" fill="#C3002F"/>
<path d="M582.084 88.6518V96.2518H555.005V101.952H580.282V108.552H555.005V114.452H582.084V122.002H544.844V88.6518H582.084Z" fill="#C3002F"/>
<path d="M599.18 111.902C599.18 113.235 599.63 114.102 600.531 114.502C601.532 114.835 602.817 115.002 604.385 115.002L609.191 115.052L615.998 114.852C617.867 114.852 619.084 114.618 619.652 114.152C620.219 113.685 620.503 112.952 620.503 111.952C620.503 111.052 620.169 110.335 619.502 109.802C618.868 109.268 617.633 109.002 615.798 109.002H614.146L597.428 108.652C594.325 108.652 592.106 107.868 590.771 106.302C589.503 104.668 588.869 102.235 588.869 99.0018C588.869 96.2684 589.269 94.1518 590.07 92.6518C590.871 91.1184 592.356 90.0518 594.525 89.4518C595.693 89.1518 596.978 88.9184 598.379 88.7518C599.814 88.5518 601.349 88.4518 602.984 88.4518L610.042 88.3018L617.149 88.4018C618.617 88.4018 619.885 88.4518 620.953 88.5518C622.054 88.6518 623.072 88.8351 624.006 89.1018C625.708 89.5018 626.91 90.3018 627.61 91.5018C628.344 92.7018 628.812 93.8018 629.012 94.8018C629.245 95.7684 629.362 97.1018 629.362 98.8018H619.402C619.402 97.6684 619.051 96.8684 618.35 96.4018C617.683 95.9018 616.732 95.6518 615.497 95.6518L610.592 95.6018L602.834 95.8518C601.866 95.8518 600.999 96.0518 600.231 96.4518C599.497 96.8184 599.13 97.4518 599.13 98.3518C599.13 99.5518 599.547 100.368 600.381 100.802C600.782 100.968 601.265 101.102 601.833 101.202C602.433 101.302 603.117 101.352 603.885 101.352H604.936L611.743 101.452L618.45 101.502C622.788 101.502 625.908 102.185 627.81 103.552C629.779 104.852 630.764 107.552 630.764 111.652C630.764 115.585 629.879 118.285 628.111 119.752C626.376 121.218 623.489 121.952 619.452 121.952L606.438 122.302L599.63 122.152C595.993 122.152 593.324 121.568 591.622 120.402C589.953 119.235 589.119 116.885 589.119 113.352V111.352H599.13L599.18 111.902Z" fill="#C3002F"/>
<path d="M650.655 122.002V97.0018H635.739V88.6518H675.681V97.0018H660.816V122.002H650.655Z" fill="#C3002F"/>
<path d="M681.367 122.002V88.6518H691.528V122.002H681.367Z" fill="#C3002F"/>
<path d="M714.8 122.002L697.181 88.6518H708.293L721.407 113.802L735.072 88.6518H746.384L727.764 122.002H714.8Z" fill="#C3002F"/>
<path d="M760.756 122.002H749.444L768.064 88.6518H781.778L799.998 122.002H788.786L785.632 115.952H764.059L760.756 122.002ZM767.613 109.052H781.928L774.771 95.8518L767.613 109.052Z" fill="#C3002F"/>
<path d="M839.247 113.652V122.002H806.012V88.6518H816.172V113.652H839.247Z" fill="#C3002F"/>
<path d="M131.212 149.448L42.2621 38.3598V149.448H0V1.55212H71.4695L160.419 112.419V1.55212H202.681V149.448H131.212Z" fill="white"/>
<path d="M430.779 66.0764L431 97.1189C431 115.449 427.829 128.975 421.486 137.696C415.29 146.418 403.12 150.778 384.976 150.778L361.522 151L334.749 150.778L311.515 150.557C294.699 150.557 281.349 149.448 271.466 147.231C261.583 145.013 253.617 139.987 247.569 132.153C241.669 124.17 238.718 112.123 238.718 96.0103L238.276 77.3847C238.276 48.5595 241.816 28.6035 248.897 17.5169C255.977 6.43025 272.646 0.886933 298.903 0.886933L332.536 0.22173L344.927 0L375.019 0.665203C394.491 0.665203 408.578 4.06511 417.281 10.8649C426.132 17.5169 430.557 30.4513 430.557 49.6681V52.3289H386.525C386.525 48.7812 386.009 45.7509 384.976 43.2379C384.091 40.7249 382.395 39.0989 379.887 38.3598C377.527 37.4728 374.577 36.7337 371.036 36.1424L359.973 35.699L307.975 35.4772C297.354 35.4772 290.643 38.138 287.84 43.4596C285.037 48.6334 283.636 57.281 283.636 69.4024V83.1498C283.636 93.3495 284.963 100.888 287.619 105.767C290.274 110.645 294.33 113.527 299.788 114.414L311.737 115.523L322.358 115.744L362.407 115.966C370.078 115.966 376.052 114.71 380.33 112.197C384.608 109.684 386.746 104.954 386.746 98.0059L386.525 93.793H329.659V66.0764H430.779Z" fill="white"/>
</svg>
