<svg width="161" height="27" viewBox="0 0 161 27" fill="none" xmlns="http://www.w3.org/2000/svg">
<g clip-path="url(#clip0_377_989)">
<path d="M135.322 0.470957L135.174 0.508707V2.46789V4.42706H134.863H134.556L134.435 4.25719C134.369 4.16281 134.307 4.08732 134.299 4.08732C134.26 4.08732 133.751 4.29117 133.708 4.32513C133.681 4.34401 133.658 4.42706 133.658 4.50633V4.65355H133.444C133.242 4.65355 133.23 4.65732 133.23 4.74793C133.23 4.83097 133.214 4.84229 133.094 4.84229H132.958V4.12506V3.40784H132.32H131.678L131.667 3.28327L131.655 3.16246L130.772 3.15115L129.885 3.1436V3.89857V4.65355H129.127H128.368V4.86117C128.368 5.04237 128.361 5.06879 128.291 5.06879C128.217 5.06879 128.213 5.09522 128.213 5.5029C128.213 5.9106 128.209 5.93701 128.135 5.93701C128.061 5.93701 128.057 5.90682 128.05 4.54784L128.038 3.16246L127.7 3.15115L127.357 3.13981V2.99259C127.357 2.84915 127.361 2.84537 127.505 2.83406C127.641 2.82272 127.649 2.81517 127.661 2.67927L127.672 2.53961H126.272H124.868V2.63397C124.868 2.71703 124.884 2.72835 125.024 2.72835C125.176 2.72835 125.179 2.73213 125.179 2.86047V2.99259H124.868H124.557V6.12576C124.557 8.16799 124.546 9.25894 124.518 9.25894C124.495 9.25894 124.475 8.6776 124.472 7.64327L124.46 6.03139L124.219 6.02007C123.978 6.00874 123.974 6.00874 123.974 5.89927V5.78603H123.293H122.613V5.17071C122.613 4.60071 122.605 4.54784 122.535 4.48368C122.476 4.43084 122.457 4.36666 122.457 4.21189V4.01182H121.971H121.485V4.12506C121.485 4.23075 121.477 4.2383 121.329 4.2383H121.174V6.239V8.2397H120.96H120.746V7.6546V7.06949H120.648C120.555 7.06949 120.551 7.06194 120.551 6.79393C120.551 6.5259 120.547 6.51458 120.404 6.37868L120.256 6.239H119.575H118.895L118.77 6.36358C118.649 6.48438 118.646 6.49948 118.646 6.79769V7.10723H118.393H118.14V7.39036V7.67347H117.926H117.712V7.25824V6.84299H117.285H116.857V7.56023V8.27745H116.701H116.546V7.57909V6.88075H116.429H116.312V5.91436C116.312 4.98196 116.308 4.948 116.234 4.92911C116.16 4.91025 116.157 4.87627 116.157 4.04579C116.157 3.5173 116.141 3.18134 116.118 3.18134C116.098 3.18134 116.079 3.04167 116.071 2.86802L116.059 2.55848L115.818 2.54716L115.577 2.53583L115.565 2.22629L115.554 1.91675L115.005 1.90542C114.492 1.89787 114.445 1.90165 114.239 1.99224C114.107 2.04509 113.944 2.08662 113.843 2.08662H113.668V2.44524V2.80384H113.551H113.434V3.84195V4.87627L113.135 4.8876L112.831 4.89892L112.82 7.05817L112.812 9.22119H112.656H112.501V8.27745V7.33373H111.851C111.315 7.33373 111.108 7.31487 110.712 7.23935C110.444 7.18651 110.195 7.14498 110.16 7.14498C110.093 7.14498 110.09 7.21294 110.09 8.03209V8.9192H109.895H109.701V8.56058V8.20196H109.456C109.242 8.20196 109.195 8.19064 109.117 8.10758C109.036 8.02077 108.997 8.01321 108.721 8.01321C108.476 8.01321 108.417 8.02454 108.417 8.06984C108.417 8.11137 108.371 8.12646 108.242 8.12646H108.067V8.67382V9.22119H107.814H107.566L107.554 8.94561L107.542 8.67382H106.92H106.298L106.286 8.85124L106.274 9.03244H106.041H105.812V9.61756V10.2027H105.461H105.112V9.36841V8.53415L104.796 8.10382C104.625 7.86599 104.47 7.67347 104.458 7.67725C104.443 7.67725 104.303 7.82447 104.151 8.00566C103.879 8.32276 103.867 8.34163 103.867 8.53038V8.73045H103.731H103.595V8.29633V7.86222H103.245H102.891L102.778 8.11137C102.665 8.34918 102.661 8.38316 102.661 8.9041V9.44767H102.37H102.078V8.27745V7.10723H101.981C101.899 7.10723 101.884 7.08837 101.884 6.99399V6.88075H101.183H100.483V7.01287V7.14498H100.192H99.9V8.14533V9.14568H99.4918H99.0834V8.93806V8.73045H98.7917H98.5V7.29598V5.86152H97.8311C97.4616 5.86152 96.9715 5.8804 96.7421 5.90682L96.322 5.94835V7.36016V8.76819H96.0888H95.8592L95.8476 8.42091L95.836 8.07738L95.1164 7.87732L94.3969 7.67725H92.6975L90.994 7.67347V7.97546V8.27745H87.9798H84.9658V9.22119V10.1649H84.5186H84.0713V9.97616V9.78743H83.7408H83.4101V9.95729V10.1272H83.0213H82.6323V10.599V11.0709H121.757H160.882V10.0403C160.882 9.47789 160.87 8.56813 160.854 8.02077L160.831 7.02797L160.516 7.03929C160.205 7.05062 160.201 7.05062 160.189 7.15253C160.178 7.25445 160.166 7.25824 159.964 7.25824H159.754V7.10723V6.95625H158.956H158.159V7.20161V7.44699H157.887H157.615V7.6546V7.86222H157.401H157.187V8.67382V9.48543H156.487H155.787V8.90032V8.31522H155.554H155.32V8.12646C155.32 7.9415 155.316 7.93771 155.203 7.93771H155.091L155.079 7.56778L155.067 7.20161L154.962 7.19029L154.853 7.17896V6.29187V5.40852L154.239 5.11032L153.624 4.81209L153.111 5.22734L152.598 5.64257V6.41266V7.18274H152.112H151.625V5.71052C151.625 4.48368 151.618 4.2383 151.571 4.2383C151.544 4.2383 151.03 4.31382 150.435 4.40817L149.35 4.57806H147.145H144.936V4.37043V4.16281H143.886H142.836V4.01182V3.86082H142.159H141.483L141.343 4.01182L141.203 4.16281H140.335H139.468L139.421 4.28738C139.394 4.35533 139.375 4.58561 139.375 4.79699V5.18204H139.064H138.753L138.745 4.01937L138.733 2.86047L138.647 2.84915C138.57 2.83782 138.558 2.81517 138.558 2.66795C138.558 2.51695 138.55 2.50185 138.461 2.50185C138.367 2.50185 138.364 2.49053 138.364 2.29802C138.364 2.18476 138.348 2.07907 138.325 2.06774C138.305 2.05642 138.286 1.95071 138.286 1.83747C138.286 1.66005 138.278 1.63363 138.208 1.63363C138.138 1.63363 138.13 1.6072 138.13 1.42601C138.13 1.24481 138.122 1.21839 138.052 1.21839C137.982 1.21839 137.975 1.19196 137.975 0.991895C137.975 0.776725 137.971 0.765401 137.877 0.765401C137.788 0.765401 137.78 0.7503 137.78 0.59553V0.425659L136.625 0.429434C135.987 0.433209 135.4 0.452084 135.322 0.470957Z" fill="#C3002F"/>
<mask id="mask0_377_989" style="mask-type:luminance" maskUnits="userSpaceOnUse" x="82" y="11" width="79" height="16">
<path d="M160.882 11.0708H82.6323V26.8669H160.882V11.0708Z" fill="white"/>
</mask>
<g mask="url(#mask0_377_989)">
<path d="M160.882 11.0708H82.6323V26.8669H160.882V11.0708Z" fill="#C3002F"/>
<path d="M97.7771 16.9373V18.2873H93.1891V19.2998H97.7771V20.4721H93.1891V22.8613H91.3447V16.9373H97.7771Z" fill="white"/>
<path d="M105.654 16.9373V18.2873H100.739V19.2998H105.327V20.4721H100.739V21.5202H105.654V22.8613H98.895V16.9373H105.654Z" fill="white"/>
<path d="M108.758 21.0671C108.758 21.3039 108.839 21.4579 109.003 21.5289C109.185 21.5881 109.418 21.6178 109.703 21.6178L110.575 21.6266L111.81 21.5911C112.15 21.5911 112.371 21.5497 112.474 21.4668C112.577 21.3838 112.628 21.2536 112.628 21.076C112.628 20.9161 112.568 20.7888 112.446 20.6941C112.331 20.5994 112.107 20.552 111.774 20.552H111.474L108.44 20.4898C107.877 20.4898 107.474 20.3507 107.231 20.0724C107.001 19.7823 106.886 19.3499 106.886 18.7757C106.886 18.2902 106.959 17.9141 107.104 17.6477C107.25 17.3753 107.519 17.1859 107.913 17.0793C108.125 17.026 108.358 16.9845 108.612 16.9549C108.873 16.9194 109.151 16.9016 109.448 16.9016L110.729 16.875L112.019 16.8928C112.286 16.8928 112.516 16.9016 112.71 16.9194C112.91 16.9372 113.094 16.9697 113.264 17.0171C113.573 17.0882 113.791 17.2303 113.918 17.4434C114.051 17.6566 114.136 17.852 114.173 18.0296C114.215 18.2014 114.236 18.4382 114.236 18.7401H112.428C112.428 18.5389 112.365 18.3968 112.237 18.3138C112.116 18.225 111.944 18.1806 111.719 18.1806L110.829 18.1717L109.421 18.2161C109.245 18.2161 109.088 18.2516 108.949 18.3227C108.815 18.3879 108.749 18.5003 108.749 18.6602C108.749 18.8734 108.824 19.0185 108.976 19.0954C109.049 19.1251 109.136 19.1487 109.239 19.1664C109.348 19.1842 109.472 19.1931 109.612 19.1931H109.803L111.038 19.2109L112.255 19.2197C113.043 19.2197 113.609 19.3411 113.954 19.5839C114.312 19.8148 114.491 20.2944 114.491 21.0227C114.491 21.7213 114.33 22.2009 114.009 22.4615C113.694 22.7221 113.17 22.8523 112.437 22.8523L110.075 22.9145L108.839 22.8878C108.179 22.8878 107.695 22.7843 107.386 22.577C107.083 22.3697 106.932 21.9522 106.932 21.3247V20.9694H108.749L108.758 21.0671Z" fill="white"/>
<path d="M118.101 22.8613V18.4205H115.394V16.9373H122.643V18.4205H119.945V22.8613H118.101Z" fill="white"/>
<path d="M123.676 22.8613V16.9373H125.52V22.8613H123.676Z" fill="white"/>
<path d="M129.744 22.8613L126.546 16.9373H128.563L130.943 21.4047L133.424 16.9373H135.477L132.097 22.8613H129.744Z" fill="white"/>
<path d="M138.085 22.8613H136.032L139.412 16.9373H141.901L145.208 22.8613H143.173L142.601 21.7866H138.685L138.085 22.8613ZM139.33 20.5609H141.928L140.629 18.2162L139.33 20.5609Z" fill="white"/>
<path d="M152.333 21.378V22.8613H146.3V16.9373H148.144V21.378H152.333Z" fill="white"/>
<path d="M141.298 11.0243H141.452L141.618 11.0409V11.6229L141.498 11.6118C141.368 11.6118 141.275 11.6469 141.218 11.7171C141.164 11.7873 141.138 11.8871 141.138 12.0164H141.458V13.0418H140.308V12.0164C140.308 11.6506 140.378 11.3938 140.52 11.246C140.665 11.0982 140.924 11.0243 141.298 11.0243Z" fill="white"/>
<path d="M142.313 14.7268V13.7846C142.313 13.452 142.376 13.2081 142.502 13.0529C142.628 12.8977 142.86 12.7961 143.2 12.7481L145.203 12.5929C145.378 12.5781 145.506 12.5448 145.586 12.4931C145.666 12.4487 145.706 12.3564 145.706 12.216L145.7 12.1384C145.7 11.9942 145.664 11.8982 145.592 11.8501C145.519 11.7984 145.38 11.7725 145.174 11.7725H144.579L143.904 11.7836C143.797 11.7836 143.703 11.7966 143.623 11.8224C143.547 11.8446 143.492 11.8797 143.457 11.9277C143.423 11.9758 143.396 12.0275 143.377 12.0829L143.366 12.2492V12.3767H142.313L142.307 12.1162C142.307 11.6321 142.408 11.331 142.61 11.2127C142.813 11.0945 143.181 11.0354 143.715 11.0354L144.997 11.0132L145.637 11.0243C146.065 11.0243 146.362 11.1037 146.53 11.2626C146.702 11.4215 146.788 11.7097 146.788 12.1273C146.788 12.5929 146.706 12.9162 146.542 13.0972C146.382 13.2783 146.061 13.3688 145.58 13.3688L144.636 13.4298L143.835 13.4852C143.686 13.4852 143.57 13.5037 143.486 13.5407C143.402 13.5739 143.36 13.6663 143.36 13.8178V13.9785H146.788V14.7268H142.313Z" fill="white"/>
<path d="M150.514 12.5208C150.712 12.5208 150.861 12.5042 150.96 12.4709C151.059 12.4377 151.109 12.3471 151.109 12.1993C151.109 12.0331 151.074 11.9222 151.006 11.8668C150.937 11.8113 150.787 11.7836 150.554 11.7836H150.502L149.867 11.767L149.318 11.7836C149.15 11.7836 149.022 11.8132 148.934 11.8723C148.85 11.9314 148.808 12.0367 148.808 12.1883L148.814 12.288H147.733C147.733 11.8409 147.805 11.536 147.95 11.3735C148.095 11.2072 148.326 11.1074 148.643 11.0741L149.335 11.0243L149.907 11.0132H150.062L150.949 11.0298C151.383 11.0298 151.698 11.1019 151.893 11.246C152.091 11.3864 152.19 11.6598 152.19 12.0663C152.19 12.1919 152.183 12.2917 152.167 12.3656C152.156 12.4395 152.124 12.5171 152.07 12.5984C152.021 12.676 151.923 12.7388 151.778 12.7869L151.424 12.8811C151.752 12.9143 151.977 12.9864 152.099 13.0972C152.225 13.2081 152.288 13.4224 152.288 13.7402C152.288 14.0654 152.192 14.3148 152.002 14.4885C151.815 14.6584 151.412 14.7434 150.794 14.7434H149.89L149.157 14.7379C148.658 14.7379 148.291 14.6714 148.059 14.5384C147.826 14.4053 147.71 14.1079 147.71 13.646L147.721 13.4465H148.768C148.768 13.6386 148.803 13.7753 148.871 13.8566C148.94 13.9379 149.074 13.9785 149.272 13.9785L149.936 13.9841H150.577L150.708 13.9896C150.857 13.9896 150.975 13.9675 151.063 13.9231C151.155 13.8751 151.2 13.779 151.2 13.6349C151.2 13.4797 151.164 13.3744 151.092 13.319C151.054 13.2894 151.008 13.2672 150.954 13.2524C150.901 13.2377 150.828 13.2303 150.737 13.2303L150.457 13.2358H149.541V12.5208H150.514Z" fill="white"/>
</g>
<path d="M23.8164 26.5467L7.67102 6.81396V26.5467H0V0.275757H12.9725L29.1178 19.9692V0.275757H36.7888V26.5467H23.8164Z" fill="#C3002F"/>
<path d="M78.1911 11.7373L78.2312 17.2514C78.2312 20.5074 77.6557 22.91 76.5043 24.4592C75.3797 26.0085 73.1707 26.7829 69.8774 26.7829L65.6202 26.8224L60.7606 26.7829L56.5434 26.7437C53.4911 26.7437 51.068 26.5467 49.2741 26.1529C47.4802 25.7589 46.0343 24.8661 44.9365 23.4745C43.8656 22.0565 43.33 19.9166 43.33 17.0545L43.2498 13.746C43.2498 8.6257 43.8923 5.08088 45.1776 3.11155C46.4627 1.14222 49.4883 0.157547 54.2542 0.157547L60.359 0.0393863L62.6081 0L68.0701 0.118161C71.6045 0.118161 74.1614 0.722092 75.7411 1.92995C77.3476 3.11155 78.1508 5.40911 78.1508 8.82262V9.29527H70.1585C70.1585 8.66508 70.0649 8.12681 69.8774 7.68042C69.7167 7.23403 69.4089 6.9452 68.9537 6.81391C68.5253 6.65635 67.9898 6.52507 67.3471 6.42003L65.3391 6.34127L55.9009 6.30187C53.973 6.30187 52.7549 6.77451 52.2462 7.7198C51.7374 8.63883 51.4831 10.1749 51.4831 12.3281V14.77C51.4831 16.5818 51.7239 17.9209 52.206 18.7876C52.6879 19.654 53.4242 20.166 54.4148 20.3235L56.5837 20.5205L58.5115 20.5598L65.7809 20.5992C67.1732 20.5992 68.2576 20.3761 69.0341 19.9297C69.8106 19.4833 70.1987 18.6431 70.1987 17.4089L70.1585 16.6606H59.8367V11.7373H78.1911Z" fill="#C3002F"/>
</g>
<defs>
<clipPath id="clip0_377_989">
<rect width="161" height="27" fill="white"/>
</clipPath>
</defs>
</svg>
