<svg width="288" height="48" viewBox="0 0 288 48" fill="none" xmlns="http://www.w3.org/2000/svg">
<g clip-path="url(#clip0_377_1302)">
<path d="M242.067 0.837121L241.803 0.904233V4.38722V7.87018H241.246H240.696L240.481 7.56819C240.363 7.40042 240.251 7.26621 240.237 7.26621C240.168 7.26621 239.256 7.62861 239.18 7.68898C239.131 7.72255 239.089 7.87018 239.089 8.01112V8.27285H238.707C238.345 8.27285 238.324 8.27954 238.324 8.44063C238.324 8.58826 238.296 8.60837 238.081 8.60837H237.837V7.33331V6.05825H236.696H235.548L235.528 5.83678L235.506 5.62202L233.928 5.6019L232.341 5.58848V6.93065V8.27285H230.985H229.628V8.64194C229.628 8.96408 229.614 9.01104 229.489 9.01104C229.357 9.01104 229.35 9.05803 229.35 9.78279C229.35 10.5076 229.343 10.5546 229.21 10.5546C229.078 10.5546 229.071 10.5009 229.057 8.08492L229.037 5.62202L228.431 5.6019L227.819 5.58175V5.32003C227.819 5.06503 227.826 5.0583 228.083 5.03819C228.327 5.01804 228.341 5.00462 228.362 4.76301L228.383 4.51473H225.878H223.367V4.68248C223.367 4.83014 223.395 4.85026 223.645 4.85026C223.916 4.85026 223.923 4.85699 223.923 5.08514V5.32003H223.367H222.81V10.8901C222.81 14.5207 222.789 16.4602 222.741 16.4602C222.699 16.4602 222.664 15.4267 222.657 13.5879L222.636 10.7223L222.205 10.7022C221.774 10.6821 221.767 10.6821 221.767 10.4874V10.2861H220.549H219.332V9.19224C219.332 8.1789 219.318 8.08492 219.192 7.97086C219.088 7.87691 219.053 7.76282 219.053 7.48767V7.132H218.184H217.314V7.33331C217.314 7.52121 217.3 7.53463 217.036 7.53463H216.758V11.0914V14.6482H216.375H215.992V13.608V12.5678H215.818C215.651 12.5678 215.645 12.5544 215.645 12.078C215.645 11.6015 215.637 11.5813 215.38 11.3397L215.116 11.0914H213.898H212.681L212.458 11.3129C212.242 11.5277 212.236 11.5545 212.236 12.0846V12.6349H211.783H211.331V13.1383V13.6416H210.949H210.566V12.9034V12.1652H209.801H209.035V13.4403V14.7153H208.757H208.479V13.4738V12.2323H208.27H208.061V10.5143C208.061 8.85668 208.055 8.7963 207.922 8.76273C207.79 8.72919 207.783 8.66878 207.783 7.19237C207.783 6.25284 207.755 5.65558 207.714 5.65558C207.679 5.65558 207.644 5.40728 207.63 5.09856L207.609 4.54827L207.178 4.52815L206.746 4.50801L206.726 3.95771L206.705 3.40742L205.724 3.38727C204.805 3.37385 204.722 3.38057 204.353 3.54163C204.117 3.63557 203.825 3.70941 203.644 3.70941H203.331V4.34695V4.98447H203.122H202.913V6.83001V8.66878L202.378 8.68893L201.835 8.70905L201.814 12.5477L201.8 16.3931H201.522H201.244V14.7153V13.0376H200.082C199.122 13.0376 198.753 13.0041 198.043 12.8698C197.564 12.7759 197.118 12.702 197.055 12.702C196.937 12.702 196.93 12.8229 196.93 14.2791V15.8562H196.582H196.235V15.2187V14.5811H195.796C195.414 14.5811 195.33 14.561 195.191 14.4133C195.045 14.259 194.975 14.2456 194.482 14.2456C194.043 14.2456 193.939 14.2657 193.939 14.3462C193.939 14.4201 193.855 14.4469 193.626 14.4469H193.313V15.42V16.3931H192.86H192.415L192.394 15.9032L192.373 15.42H191.26H190.147L190.127 15.7354L190.105 16.0575H189.688H189.278V17.0977V18.1379H188.651H188.025V16.6548V15.1717L187.462 14.4066C187.156 13.9838 186.878 13.6416 186.857 13.6483C186.829 13.6483 186.578 13.91 186.307 14.2321C185.82 14.7959 185.799 14.8294 185.799 15.165V15.5207H185.556H185.312V14.7489V13.9771H184.686H184.053L183.851 14.4201C183.65 14.8428 183.642 14.9033 183.642 15.8294V16.7957H183.121H182.599V14.7153V12.6349H182.425C182.279 12.6349 182.251 12.6014 182.251 12.4336V12.2323H180.999H179.746V12.4672V12.702H179.225H178.703V14.4804V16.2588H177.973H177.242V15.8898V15.5207H176.72H176.199V12.9705V10.4203H175.002C174.341 10.4203 173.464 10.4539 173.054 10.5009L172.303 10.5747V13.0846V15.5878H171.885H171.475L171.454 14.9704L171.433 14.3597L170.146 14.004L168.859 13.6483H165.819L162.772 13.6416V14.1785V14.7153H157.38H151.988V16.3931V18.0708H151.188H150.388V17.7353V17.3997H149.797H149.206V17.7017V18.0037H148.51H147.814V18.8426V19.6814H217.801H287.788V17.8494C287.788 16.8494 287.767 15.2321 287.739 14.259L287.697 12.494L287.134 12.5142C286.578 12.5343 286.57 12.5343 286.55 12.7155C286.529 12.8967 286.508 12.9034 286.146 12.9034H285.77V12.6349V12.3665H284.344H282.918V12.8027V13.239H282.431H281.944V13.608V13.9771H281.561H281.179V15.42V16.8629H279.927H278.674V15.8226V14.7825H278.257H277.84V14.4469C277.84 14.1181 277.833 14.1114 277.631 14.1114H277.429L277.408 13.4537L277.387 12.8027L277.2 12.7826L277.005 12.7625V11.1854V9.61502L275.906 9.08487L274.806 8.55469L273.888 9.29291L272.97 10.0311V11.4001V12.7692H272.1H271.23V10.1519C271.23 7.97086 271.217 7.53463 271.133 7.53463C271.084 7.53463 270.166 7.66887 269.102 7.83662L267.161 8.13864H263.216H259.265V7.76951V7.40042H257.386H255.508V7.132V6.86354H254.297H253.087L252.836 7.132L252.586 7.40042H251.034H249.483L249.4 7.62188C249.351 7.74267 249.316 8.15206 249.316 8.52785V9.21238H248.76H248.203L248.189 7.14542L248.168 5.08514L248.015 5.06503C247.876 5.04488 247.855 5.00462 247.855 4.74289C247.855 4.47444 247.841 4.4476 247.681 4.4476C247.514 4.4476 247.507 4.42748 247.507 4.08523C247.507 3.88388 247.479 3.69599 247.438 3.67584C247.403 3.65572 247.368 3.4678 247.368 3.26648C247.368 2.95107 247.354 2.90409 247.229 2.90409C247.104 2.90409 247.09 2.85712 247.09 2.53499C247.09 2.21286 247.076 2.16589 246.951 2.16589C246.825 2.16589 246.812 2.11891 246.812 1.76323C246.812 1.38071 246.805 1.36058 246.638 1.36058C246.478 1.36058 246.464 1.33373 246.464 1.05858V0.756592L244.397 0.763302C243.257 0.770013 242.206 0.803569 242.067 0.837121Z" fill="white"/>
<mask id="mask0_377_1302" style="mask-type:luminance" maskUnits="userSpaceOnUse" x="147" y="19" width="141" height="29">
<path d="M287.788 19.6815H147.814V47.7635H287.788V19.6815Z" fill="white"/>
</mask>
<g mask="url(#mask0_377_1302)">
<path d="M287.788 19.6815H147.814V47.7635H287.788V19.6815Z" fill="white"/>
<path d="M174.906 30.1106V32.5106H166.699V34.3106H174.906V36.3948H166.699V40.6422H163.399V30.1106H174.906Z" fill="#C3002F"/>
<path d="M188.997 30.1106V32.5106H180.205V34.3106H188.412V36.3948H180.205V38.258H188.997V40.6422H176.906V30.1106H188.997Z" fill="#C3002F"/>
<path d="M194.548 37.4526C194.548 37.8736 194.694 38.1474 194.986 38.2737C195.311 38.3788 195.729 38.4316 196.238 38.4316L197.798 38.4474L200.008 38.3842C200.615 38.3842 201.01 38.3106 201.195 38.1632C201.379 38.0157 201.471 37.7842 201.471 37.4684C201.471 37.1842 201.363 36.9578 201.146 36.7895C200.94 36.6212 200.539 36.5368 199.944 36.5368H199.407L193.979 36.4263C192.971 36.4263 192.251 36.1791 191.818 35.6842C191.406 35.1685 191.2 34.3999 191.2 33.3789C191.2 32.5159 191.33 31.8474 191.59 31.3737C191.85 30.8895 192.332 30.5526 193.036 30.3632C193.416 30.2684 193.833 30.1947 194.288 30.1421C194.754 30.0789 195.252 30.0474 195.783 30.0474L198.075 30L200.382 30.0316C200.859 30.0316 201.271 30.0474 201.617 30.0789C201.975 30.1105 202.305 30.1684 202.609 30.2526C203.161 30.3789 203.551 30.6316 203.779 31.0105C204.017 31.3895 204.169 31.7368 204.234 32.0526C204.31 32.358 204.348 32.7789 204.348 33.3158H201.114C201.114 32.958 201 32.7054 200.772 32.5579C200.556 32.4 200.247 32.3211 199.846 32.3211L198.253 32.3053L195.734 32.3842C195.42 32.3842 195.138 32.4474 194.889 32.5737C194.651 32.6896 194.532 32.8895 194.532 33.1737C194.532 33.5526 194.667 33.8106 194.938 33.9474C195.068 34.0001 195.225 34.0421 195.409 34.0737C195.604 34.1053 195.826 34.1211 196.075 34.1211H196.417L198.627 34.1526L200.805 34.1684C202.213 34.1684 203.226 34.3841 203.844 34.8158C204.483 35.2263 204.803 36.0789 204.803 37.3737C204.803 38.6157 204.515 39.4683 203.941 39.9316C203.378 40.3948 202.441 40.6263 201.13 40.6263L196.904 40.7368L194.694 40.6895C193.513 40.6895 192.646 40.5054 192.094 40.1368C191.552 39.7683 191.281 39.0262 191.281 37.9105V37.2789H194.532L194.548 37.4526Z" fill="#C3002F"/>
<path d="M211.261 40.6422V32.7474H206.418V30.1106H219.387V32.7474H214.56V40.6422H211.261Z" fill="#C3002F"/>
<path d="M221.233 40.6422V30.1106H224.532V40.6422H221.233Z" fill="#C3002F"/>
<path d="M232.088 40.6422L226.368 30.1106H229.976L234.234 38.0527L238.67 30.1106H242.343L236.298 40.6422H232.088Z" fill="#C3002F"/>
<path d="M247.01 40.6422H243.337L249.383 30.1106H253.835L259.751 40.6422H256.111L255.087 38.7316H248.082L247.01 40.6422ZM249.236 36.5527H253.884L251.56 32.3843L249.236 36.5527Z" fill="#C3002F"/>
<path d="M272.495 38.0053V40.6422H261.704V30.1106H265.003V38.0053H272.495Z" fill="#C3002F"/>
<path d="M252.756 19.5986H253.033L253.33 19.6282V20.6628L253.114 20.6431C252.883 20.6431 252.715 20.7055 252.613 20.8304C252.517 20.9552 252.47 21.1325 252.47 21.3624H253.043V23.1854H250.985V21.3624C250.985 20.7121 251.112 20.2555 251.364 19.9928C251.623 19.73 252.087 19.5986 252.756 19.5986Z" fill="#C3002F"/>
<path d="M254.572 26.181V24.5059C254.572 23.9146 254.684 23.4811 254.91 23.2052C255.135 22.9293 255.551 22.7486 256.158 22.6632L259.741 22.3873C260.055 22.361 260.284 22.3019 260.427 22.2099C260.57 22.1311 260.642 21.9669 260.642 21.7173L260.632 21.5793C260.632 21.3231 260.567 21.1523 260.437 21.0669C260.308 20.9749 260.059 20.9289 259.69 20.9289H258.625L257.418 20.9487C257.226 20.9487 257.059 20.9716 256.916 21.0176C256.779 21.057 256.68 21.1195 256.619 21.2049C256.558 21.2902 256.51 21.3822 256.476 21.4808L256.455 21.7764V22.003H254.572L254.562 21.5399C254.562 20.6793 254.742 20.1439 255.104 19.9337C255.466 19.7235 256.124 19.6184 257.08 19.6184L259.372 19.579L260.519 19.5987C261.283 19.5987 261.816 19.7399 262.116 20.0224C262.423 20.3049 262.576 20.8173 262.576 21.5596C262.576 22.3873 262.43 22.9621 262.137 23.284C261.85 23.6059 261.276 23.7668 260.417 23.7668L258.728 23.8752L257.295 23.9738C257.029 23.9738 256.82 24.0066 256.67 24.0723C256.52 24.1314 256.445 24.2956 256.445 24.565V24.8507H262.576V26.181H254.572Z" fill="#C3002F"/>
<path d="M269.242 22.2592C269.597 22.2592 269.862 22.2297 270.04 22.1705C270.217 22.1114 270.306 21.9505 270.306 21.6877C270.306 21.3921 270.245 21.195 270.122 21.0964C269.999 20.9979 269.73 20.9487 269.313 20.9487H269.221L268.085 20.9191L267.102 20.9487C266.802 20.9487 266.573 21.0012 266.417 21.1063C266.266 21.2114 266.191 21.3987 266.191 21.668L266.201 21.8453H264.267C264.267 21.0505 264.396 20.5085 264.656 20.2195C264.915 19.9239 265.328 19.7465 265.894 19.6874L267.133 19.5987L268.157 19.579H268.433L270.02 19.6085C270.798 19.6085 271.361 19.7367 271.709 19.9928C272.064 20.2425 272.241 20.7286 272.241 21.4512C272.241 21.6746 272.227 21.8519 272.2 21.9833C272.179 22.1147 272.121 22.2526 272.026 22.3971C271.937 22.5351 271.763 22.6468 271.504 22.7322L270.869 22.8997C271.456 22.9588 271.859 23.0869 272.077 23.284C272.302 23.4811 272.415 23.8621 272.415 24.427C272.415 25.0051 272.244 25.4485 271.903 25.7573C271.569 26.0595 270.849 26.2106 269.743 26.2106H268.126L266.816 26.2007C265.922 26.2007 265.266 26.0825 264.85 25.846C264.434 25.6095 264.226 25.0807 264.226 24.2595L264.246 23.9048H266.119C266.119 24.2464 266.181 24.4894 266.304 24.6339C266.427 24.7785 266.666 24.8507 267.02 24.8507L268.208 24.8606H269.354L269.59 24.8704C269.856 24.8704 270.067 24.831 270.224 24.7522C270.388 24.6668 270.47 24.496 270.47 24.2398C270.47 23.9639 270.405 23.7767 270.275 23.6781C270.207 23.6256 270.125 23.5862 270.03 23.5599C269.934 23.5336 269.805 23.5205 269.641 23.5205L269.139 23.5303H267.501V22.2592H269.242Z" fill="#C3002F"/>
</g>
<path d="M42.6032 47.1941L13.7221 12.1136V47.1941H0V0.490112H23.2054L52.0864 35.5007V0.490112H65.8085V47.1941H42.6032Z" fill="white"/>
<path d="M139.87 20.8662L139.941 30.6691C139.941 36.4576 138.912 40.729 136.852 43.483C134.84 46.2373 130.889 47.6141 124.998 47.6141L117.382 47.6842L108.69 47.6141L101.146 47.5443C95.6857 47.5443 91.3511 47.1941 88.1422 46.494C84.9333 45.7936 82.3468 44.2064 80.3831 41.7325C78.4674 39.2116 77.5092 35.4073 77.5092 30.319L77.3657 24.4373C77.3657 15.3346 78.5151 9.03269 80.8143 5.53165C83.1131 2.03061 88.5253 0.280084 97.0507 0.280084L107.971 0.07002L111.994 0L121.765 0.210064C128.087 0.210064 132.661 1.28372 135.487 3.43102C138.361 5.53165 139.797 9.6162 139.797 15.6847V16.5249H125.501C125.501 15.4046 125.333 14.4477 124.998 13.6541C124.71 12.8605 124.16 12.347 123.345 12.1136C122.579 11.8335 121.621 11.6001 120.472 11.4134L116.88 11.2734L99.9963 11.2033C96.5478 11.2033 94.3688 12.0436 93.4587 13.7241C92.5485 15.3579 92.0937 18.0887 92.0937 21.9165V26.2578C92.0937 29.4788 92.5245 31.8594 93.3869 33.4001C94.2489 34.9405 95.5659 35.8506 97.338 36.1307L101.218 36.481L104.666 36.5507L117.67 36.6208C120.161 36.6208 122.1 36.2242 123.489 35.4306C124.878 34.6371 125.572 33.1434 125.572 30.9492L125.501 29.6188H107.037V20.8662H139.87Z" fill="white"/>
</g>
<defs>
<clipPath id="clip0_377_1302">
<rect width="288" height="48" fill="white"/>
</clipPath>
</defs>
</svg>
